<svg width="24" height="24" viewBox="0 0 24 24" fill="none" xmlns="http://www.w3.org/2000/svg">
<path d="M12.7066 22.707L19.7066 15.707C19.8887 15.5184 19.9895 15.2658 19.9873 15.0036C19.985 14.7414 19.8798 14.4906 19.6944 14.3052C19.509 14.1198 19.2582 14.0146 18.996 14.0123C18.7338 14.01 18.4812 14.1108 18.2926 14.293L12.9996 19.586L12.9996 2C12.9996 1.73478 12.8942 1.48043 12.7067 1.29289C12.5192 1.10536 12.2648 1 11.9996 1C11.7344 1 11.48 1.10536 11.2925 1.29289C11.1049 1.48043 10.9996 1.73478 10.9996 2L10.9996 19.586L5.70659 14.293C5.61434 14.1975 5.504 14.1213 5.38199 14.0689C5.25999 14.0165 5.12877 13.9889 4.99599 13.9877C4.86321 13.9866 4.73153 14.0119 4.60864 14.0622C4.48574 14.1125 4.37409 14.1867 4.2802 14.2806C4.1863 14.3745 4.11205 14.4861 4.06177 14.609C4.01149 14.7319 3.98619 14.8636 3.98734 14.9964C3.98849 15.1292 4.01608 15.2604 4.06849 15.3824C4.1209 15.5044 4.19708 15.6148 4.29259 15.707L11.2926 22.707C11.4801 22.8945 11.7344 22.9998 11.9996 22.9998C12.2648 22.9998 12.5191 22.8945 12.7066 22.707Z" fill="#4BC4D6"/>
</svg>
