<svg width="15" height="15" viewBox="0 0 15 15" fill="none" xmlns="http://www.w3.org/2000/svg">
<g clip-path="url(#clip0_2734_16119)">
<path fill-rule="evenodd" clip-rule="evenodd" d="M3.41418 14.6554V5.00021H0.205322V14.6554H3.41418V14.6554ZM1.81009 3.68244C2.92873 3.68244 3.62556 2.94041 3.62556 2.0139C3.6044 1.06679 2.92873 0.345703 1.83106 0.345703C0.733223 0.345732 0.015625 1.06682 0.015625 2.01393C0.015625 2.94044 0.71207 3.68247 1.78896 3.68247L1.81009 3.68244ZM5.19016 14.6554C5.19016 14.6554 5.23226 5.90613 5.19016 5.00024H8.39951V6.40046H8.37821C8.8002 5.74157 9.56046 4.77352 11.2915 4.77352C13.4034 4.77352 14.9863 6.15349 14.9863 9.11921V14.6555H11.7775V9.49019C11.7775 8.19231 11.3132 7.30667 10.1516 7.30667C9.26523 7.30667 8.73701 7.90374 8.50504 8.48089C8.42017 8.68632 8.39951 8.97486 8.39951 9.26344V14.6554H5.19016Z" fill="black"/>
</g>
<defs>
<clipPath id="clip0_2734_16119">
<rect width="15" height="15" fill="white"/>
</clipPath>
</defs>
</svg>
