<svg width="13" height="12" viewBox="0 0 13 12" fill="none" xmlns="http://www.w3.org/2000/svg">
<path fill-rule="evenodd" clip-rule="evenodd" d="M6.89395 9.13804L9.41009 11.8047C9.65574 12.0651 10.054 12.0651 10.2996 11.8047L12.8158 9.13804C13.0614 8.87769 13.0614 8.45564 12.8158 8.19529C12.5701 7.93493 12.1719 7.93493 11.9262 8.19529L10.4839 9.72382V0.666667C10.4839 0.29848 10.2022 0 9.85485 0C9.50746 0 9.22582 0.29848 9.22582 0.666667V9.72382L7.78349 8.19529C7.53783 7.93493 7.13961 7.93493 6.89395 8.19529C6.64829 8.45564 6.64829 8.87769 6.89395 9.13804ZM3.58996 0.195262C3.34431 -0.0650846 2.94602 -0.0650846 2.70037 0.195262L0.184238 2.86193C-0.0614125 3.12228 -0.0614125 3.54439 0.184238 3.80474C0.429888 4.06508 0.828175 4.06508 1.07383 3.80474L2.51613 2.27614V11.3333C2.51613 11.7015 2.79776 12 3.14516 12C3.49257 12 3.7742 11.7015 3.7742 11.3333V2.27614L5.21653 3.80474C5.46219 4.06508 5.86041 4.06508 6.10607 3.80474C6.35173 3.54439 6.35173 3.12228 6.10607 2.86193L3.58996 0.195262Z" fill="#778499"/>
</svg>
