<svg width="210" height="349" viewBox="0 0 210 349" fill="none" xmlns="http://www.w3.org/2000/svg">
<g clip-path="url(#clip0_3388_21096)">
<path opacity="0.2" d="M-358.597 44.9893L-318.095 68.373L-317.692 68.6045L-279.417 46.5049C-278.44 47.4907 -276.887 47.7373 -275.629 47.0107C-275.384 46.8695 -275.167 46.6996 -274.977 46.5088L-238.294 67.6885L-277.99 90.6084L-277.99 91.0732L-277.992 137.36L-278.002 137.366L-278.002 137.376L-318.498 160.757L-318.498 161.222L-318.5 207.986L-318.5 208.451L-318.097 208.685L-277.595 232.068L-277.192 232.3L-236.69 208.915L-196.999 231.832L-197 278.139L-197 278.604L-196.998 278.604L-196.998 325.366L-196.596 325.598L-156.094 348.982L-155.691 349.215L-115.185 325.828L-75.0869 348.979L-74.6846 349.21L-36.4053 327.108C-35.4283 328.094 -33.8757 328.341 -32.6172 327.614C-31.1197 326.75 -30.6061 324.834 -31.4707 323.337C-31.9043 322.586 -32.6024 322.083 -33.3789 321.877L-33.378 278.132L-33.377 277.667L-33.7803 277.435L-73.8789 254.283L-73.8789 209.381L-34.583 232.068L-34.1807 232.3L7.12498 208.452L7.12498 208.448L46.8252 185.527L86.916 208.678L87.3183 208.91L124.452 187.47C125.811 189.066 128.156 189.518 130.037 188.432C132.156 187.208 132.881 184.499 131.658 182.38C130.983 181.211 129.855 180.467 128.624 180.239L128.624 137.363L128.222 137.132L87.7197 113.748L87.3174 113.516L48.1992 136.099C47.6528 135.677 46.919 135.516 46.208 135.73C45.9303 135.813 45.6816 135.948 45.4678 136.118L7.11815 113.979L7.11815 70.709C7.37986 70.6396 7.63707 70.5354 7.8828 70.3936C8.12587 70.2532 8.34172 70.084 8.53123 69.8945L46.418 91.7695L46.8203 92.002L85.9443 69.4141C86.6356 69.9645 87.619 70.0691 88.4306 69.6006C89.2467 69.1295 89.6473 68.2182 89.5098 67.3399L126.433 46.0215C127.124 46.5772 128.112 46.6841 128.927 46.2139C129.986 45.6023 130.35 44.2479 129.738 43.1885C129.476 42.7347 129.077 42.4098 128.624 42.2334L128.624 -1.99607L128.625 -1.99705L128.625 -2.00096L169.129 -25.3857L169.129 -69.5957C169.388 -69.6651 169.643 -69.7685 169.887 -69.9092C169.973 -69.9591 170.056 -70.0136 170.136 -70.0703C170.242 -70.1167 170.347 -70.1683 170.449 -70.2275C171.707 -70.9536 172.269 -72.4196 171.905 -73.7578L209.629 -95.5361L209.629 -143.234L209.227 -143.466L168.726 -166.848L168.323 -167.08L131.191 -145.643C129.832 -147.239 127.487 -147.69 125.606 -146.604C125.157 -146.345 124.77 -146.018 124.451 -145.645L88.1211 -166.619L88.1211 -212.454L88.125 -212.456L88.125 -212.921L88.126 -259.687L88.127 -260.151L87.7236 -260.384L47.2217 -283.768L46.8193 -284L6.31055 -260.612L-33.7861 -283.762L-34.1885 -283.994L-75.4941 -260.145L-75.4941 -212.448L-75.0918 -212.217L-34.9834 -189.06L-34.9844 -144.169L-74.2842 -166.855L-74.6865 -167.088L-115.99 -143.241L-115.99 -143.234L-155.691 -120.312L-195.786 -143.461L-196.188 -143.693L-233.315 -122.258C-233.796 -122.821 -234.423 -123.273 -235.168 -123.545C-237.467 -124.382 -240.01 -123.196 -240.847 -120.897C-241.684 -118.599 -240.499 -116.057 -238.2 -115.22C-237.967 -115.135 -237.73 -115.072 -237.494 -115.027L-237.494 -72.1475L-237.092 -71.916L-196.591 -48.5332L-196.188 -48.3018L-157.066 -70.8906C-156.836 -70.7069 -156.565 -70.5656 -156.262 -70.4844C-155.555 -70.2952 -154.84 -70.4722 -154.309 -70.8955L-115.99 -48.7715L-115.99 -5.4912C-116.25 -5.42179 -116.504 -5.31836 -116.748 -5.17772C-116.993 -5.03608 -117.213 -4.86636 -117.403 -4.67479L-155.29 -26.5488L-155.692 -26.7812L-194.806 -4.19921C-195.038 -4.38478 -195.31 -4.52758 -195.615 -4.60937C-196.323 -4.79905 -197.042 -4.62167 -197.573 -4.19628L-236.294 -26.5508L-236.696 -26.7832L-277.189 -3.40429L-317.29 -26.5547L-317.692 -26.7871L-358.998 -2.93848L-358.998 -2.47363L-359 44.291L-359 44.7559L-358.597 44.9893ZM131.995 -141.285C132.328 -142.225 132.344 -143.27 131.996 -144.248L168.323 -165.221L208.018 -142.304L208.019 -96.4658L171.099 -75.1513C170.566 -75.6852 169.865 -76.0004 169.133 -76.0595L169.134 -119.378L169.135 -119.843L168.731 -120.075L131.995 -141.285ZM128.626 -138.412C129.11 -138.501 129.587 -138.672 130.037 -138.932C130.486 -139.191 130.872 -139.518 131.19 -139.891L167.523 -118.914L167.522 -75.7578C167.454 -75.7245 167.386 -75.6891 167.318 -75.6504C167.232 -75.6004 167.148 -75.5469 167.068 -75.4902C166.963 -75.4439 166.858 -75.3911 166.756 -75.332C166.511 -75.1908 166.293 -75.0218 166.103 -74.831L128.626 -96.4668L128.626 -138.412ZM166.11 -70.4033C166.506 -70.0087 166.993 -69.7339 167.518 -69.5947L167.519 -26.3154L128.625 -3.86131L128.625 -48.7607L166.11 -70.4033ZM127.822 -95.0703L165.298 -73.4355C165.155 -72.9063 165.15 -72.3398 165.3 -71.7949L127.827 -50.1592L88.9267 -72.6162L127.822 -95.0703ZM88.1299 -115.027C88.6107 -115.117 89.0855 -115.286 89.5332 -115.545C91.4119 -116.63 92.1938 -118.883 91.4941 -120.856L124.457 -139.888C125.129 -139.101 126.04 -138.595 127.017 -138.414L127.016 -96.4658L88.1299 -74.0176L88.1299 -115.027ZM127.014 -48.7646L127.014 -3.8701L91.4922 -24.3789C91.9087 -25.5575 91.8283 -26.9038 91.1543 -28.0713C90.4802 -29.2386 89.3549 -29.9823 88.126 -30.2109L88.126 -71.2158L127.014 -48.7646ZM127.014 -1.06639L127.014 42.2344C126.911 42.2745 126.81 42.3213 126.712 42.378C125.9 42.8466 125.499 43.7511 125.63 44.625L88.6973 65.9473C88.5227 65.8092 88.3302 65.6994 88.126 65.6201L88.126 21.3848L127.014 -1.06639ZM47.6289 139.92C48.6239 139.545 49.2052 138.517 49.0273 137.48L87.3174 115.374L127.014 138.294L127.014 180.238C126.531 180.328 126.055 180.5 125.606 180.759C123.727 181.844 122.944 184.1 123.646 186.074L87.3183 207.05L47.6289 184.133L47.6289 139.92ZM50.9932 -0.983381C51.3285 -1.92616 51.3443 -2.97589 50.9932 -3.95701L83.9473 -22.9824C85.3061 -21.3849 87.6521 -20.9334 89.5332 -22.0195C89.9822 -22.2788 90.3679 -22.6055 90.6865 -22.9785L126.215 -2.4658L87.3193 19.9903L50.9932 -0.983381ZM49.8398 -141.954C49.9817 -142.48 49.9865 -143.043 49.8398 -143.585L87.3193 -165.223L123.647 -144.249C123.314 -143.308 123.299 -142.259 123.649 -141.28L90.6904 -122.252C89.3319 -123.852 86.9848 -124.304 85.1025 -123.218C84.654 -122.959 84.2676 -122.633 83.9492 -122.261L49.8398 -141.954ZM47.623 -139.743C47.8831 -139.813 48.1386 -139.917 48.3828 -140.058C48.6271 -140.199 48.844 -140.369 49.0342 -140.56L83.1445 -120.866C82.7253 -119.686 82.8063 -118.337 83.4814 -117.167C84.1567 -115.997 85.2851 -115.254 86.5166 -115.026L86.5166 -74.0156L48.9941 -95.6797C49.0402 -95.9912 49.0233 -96.3171 48.9267 -96.6387C48.7244 -97.3123 48.2294 -97.8171 47.623 -98.0586L47.623 -139.743ZM47.6269 1.88674C48.1102 1.79743 48.5872 1.62694 49.0371 1.36721C49.4844 1.10892 49.8686 0.783346 50.1865 0.412127L86.5166 21.3877L86.5166 65.6221C86.4147 65.6621 86.3135 65.7083 86.2158 65.7647C86.1191 65.8205 86.0292 65.8838 85.9443 65.9512L49.8408 45.1055C50.0482 44.3315 49.9606 43.4783 49.5283 42.7295C49.0959 41.9808 48.401 41.4788 47.6269 41.2715L47.6269 1.88674ZM7.12305 -259.223L46.8193 -282.141L86.5156 -259.223L86.5146 -214.319L47.2178 -237.006L46.8154 -237.238L7.68945 -214.65C7.51593 -214.788 7.32493 -214.897 7.12207 -214.977L7.12305 -259.223ZM86.5127 -71.2158L86.5127 -30.2129C86.0295 -30.1236 85.5524 -29.9521 85.1025 -29.6924C83.2239 -28.6075 82.4419 -26.3546 83.1416 -24.3808L50.1836 -5.35252C49.5121 -6.13729 48.6027 -6.64332 47.6269 -6.8242L47.6269 -48.7666L86.5127 -71.2158ZM86.5098 -211.524L86.5107 -166.624L49.0293 -144.985C48.6358 -145.379 48.1505 -145.653 47.6289 -145.793L47.6289 -189.076L86.5098 -211.524ZM46.8154 -235.379L85.7119 -212.923L46.8193 -190.469L8.5039 -212.589C8.53695 -212.81 8.53728 -213.035 8.50195 -213.26L46.8154 -235.379ZM45.4219 -94.2724C45.9709 -93.834 46.7185 -93.6634 47.4424 -93.8808C47.7254 -93.9659 47.9777 -94.1036 48.1943 -94.2783L85.7119 -72.6172L46.8203 -50.1631L8.5039 -72.2851C8.53863 -72.513 8.5363 -72.7391 8.50194 -72.958L45.4219 -94.2724ZM9.33788 68.502C9.48089 67.975 9.4874 67.4113 9.3408 66.8682L44.6035 46.5098C45.581 47.4882 47.1281 47.7312 48.3828 47.0069C48.6292 46.8646 48.8477 46.6926 49.039 46.5L85.1348 67.3438C85.1002 67.5659 85.101 67.7936 85.1357 68.0196L46.8203 90.1426L9.33788 68.502ZM7.11816 -210.853C7.22143 -210.894 7.32389 -210.94 7.42285 -210.997C7.52282 -211.055 7.61481 -211.121 7.70215 -211.191L46.0176 -189.07L46.0176 -145.797C45.7554 -145.727 45.4981 -145.623 45.2519 -145.48C45.0091 -145.34 44.7919 -145.173 44.6025 -144.983L7.11816 -166.625L7.11816 -210.853ZM7.12108 -70.5556C7.3298 -70.6375 7.52421 -70.7505 7.69921 -70.8906L46.0127 -48.7695L46.0117 -6.82518C45.5301 -6.73562 45.0548 -6.56451 44.6064 -6.30565C44.1572 -6.04624 43.7708 -5.71987 43.4521 -5.34666L8.49315 -25.5312C8.54033 -25.8445 8.52391 -26.1725 8.42675 -26.4961C8.22416 -27.1705 7.72835 -27.6758 7.12108 -27.917L7.12108 -70.5556ZM6.32322 115.379L44.6592 137.511C44.6096 137.828 44.6268 138.161 44.7256 138.489C44.9262 139.156 45.4131 139.656 46.0107 139.9L46.0127 184.136L7.12498 206.589L7.12498 160.754L6.72264 160.522L-31.9737 138.182C-31.9397 137.957 -31.9396 137.725 -31.9785 137.491L6.32322 115.379ZM43.4551 0.408221C44.1256 1.19459 45.0349 1.70151 46.0107 1.88381L46.0117 41.2695C45.7516 41.339 45.4962 41.443 45.2519 41.584C43.9936 42.3105 43.4299 43.7783 43.7949 45.1172L8.53612 65.4727C8.14001 65.0744 7.64985 64.7976 7.12303 64.6572L7.12303 21.3838L43.4551 0.408221ZM7.12402 -116.357C7.38366 -116.427 7.63896 -116.53 7.88281 -116.671C9.13928 -117.396 9.70178 -118.861 9.33984 -120.198L44.6016 -140.557C44.9967 -140.16 45.4849 -139.884 46.0098 -139.744L46.0098 -98.0674C45.0349 -97.6931 44.4608 -96.6887 44.6172 -95.6689L7.69237 -74.3506C7.5235 -74.4848 7.33283 -74.5951 7.12401 -74.6767L7.12402 -116.357ZM6.31347 -165.229L43.7949 -143.588C43.6519 -143.06 43.6464 -142.495 43.7939 -141.951L8.5332 -121.594C7.55589 -122.574 6.0077 -122.819 4.75195 -122.094C4.50933 -121.954 4.2918 -121.787 4.10253 -121.598L-32.5801 -142.776L6.31347 -165.229ZM4.93651 -24.1201C5.48425 -23.6897 6.22453 -23.5227 6.94237 -23.7383C7.22253 -23.8224 7.47229 -23.9586 7.68749 -24.1308L42.6465 -3.94725C42.3147 -3.00854 42.2995 -1.96378 42.6474 -0.987287L6.32323 19.9854L-32.5693 -2.46776L4.93651 -24.1201ZM3.29491 -120.202C3.08429 -119.426 3.1714 -118.568 3.60546 -117.816C4.03909 -117.065 4.73691 -116.562 5.51366 -116.355L5.51366 -74.6787C5.30708 -74.5982 5.11421 -74.4872 4.94042 -74.3496L-30.0078 -94.5264C-29.5903 -95.7056 -29.6712 -97.0534 -30.3457 -98.2217C-31.021 -99.3912 -32.1493 -100.135 -33.3809 -100.362L-33.3809 -141.378L3.29491 -120.202ZM-33.374 139.92C-33.1528 139.836 -32.9519 139.721 -32.7754 139.579L5.51365 161.685L5.51365 206.584L-31.1602 185.411C-30.9512 184.636 -31.0375 183.781 -31.4707 183.03C-31.9034 182.281 -32.5994 181.778 -33.374 181.571L-33.374 139.92ZM5.51171 21.3848L5.51268 64.6553C5.25218 64.7247 4.99657 64.8295 4.75194 64.9707C4.50847 65.1113 4.29031 65.279 4.10057 65.4688L-30.0235 45.7686C-29.3767 43.973 -29.9479 41.8947 -31.5625 40.7041C-32.1182 40.2944 -32.738 40.033 -33.374 39.9141L-33.374 -1.06737L5.51171 21.3848ZM-33.3731 -48.7695L4.93358 -70.8857C5.1048 -70.7489 5.29825 -70.6363 5.51073 -70.5537L5.51171 -27.9258C4.52971 -27.5498 3.9537 -26.5346 4.12011 -25.5078L-33.374 -3.86131L-33.3731 -48.7695ZM-34.1885 -282.135L5.50879 -259.216L5.50879 -214.976C5.4069 -214.936 5.30569 -214.889 5.208 -214.833C4.39495 -214.363 3.99366 -213.456 4.12695 -212.581L-34.1875 -190.459L-73.8848 -213.378L-73.8848 -259.217L-34.1885 -282.135ZM-34.583 91.7676L-34.1807 91.999L4.10252 69.8955C4.49731 70.291 4.98468 70.567 5.50877 70.707L5.50877 113.981L-32.8076 136.102C-33.3542 135.68 -34.0884 135.517 -34.7998 135.731C-35.0764 135.815 -35.3239 135.949 -35.5371 136.118L-73.8779 113.983L-73.8779 69.0811L-34.583 91.7676ZM-29.7627 -191.154L4.93359 -211.187C5.10896 -211.046 5.30211 -210.934 5.50781 -210.853L5.50781 -166.623L-33.374 -144.176L-33.374 -189.07L-29.7627 -191.154ZM-36.4024 186.806C-35.4252 187.789 -33.8742 188.033 -32.6172 187.308C-32.3729 187.167 -32.156 186.996 -31.9658 186.806L4.71482 207.983L-34.1807 230.44L-73.0801 207.982L-36.4024 186.806ZM-37.5557 -93.1367C-36.1973 -91.5362 -33.8494 -91.083 -31.9668 -92.1699C-31.5165 -92.4299 -31.1307 -92.7585 -30.8115 -93.1328L4.12694 -72.9609C4.09058 -72.732 4.09249 -72.5043 4.12597 -72.2842L-34.1797 -50.166L-72.4932 -72.2861C-72.4577 -72.5156 -72.4595 -72.7434 -72.4941 -72.9639L-37.5557 -93.1367ZM-37.543 47.1651C-37.3316 47.4093 -37.0913 47.6352 -36.8203 47.835C-34.942 49.2198 -32.3338 48.9004 -30.8369 47.1592L3.29491 66.8643C3.15196 67.3925 3.14692 67.9578 3.29491 68.502L-34.1807 90.1397L-73.0791 67.6817L-37.543 47.1651ZM-76.0645 -70.8935C-75.8324 -70.7075 -75.5596 -70.5643 -75.2539 -70.4824C-74.5486 -70.2935 -73.8335 -70.4695 -73.3027 -70.8916L-34.9873 -48.7705L-34.9873 -3.86229L-74.2822 -26.5488L-74.6846 -26.7812L-112.968 -4.67968C-113.364 -5.07686 -113.854 -5.35262 -114.381 -5.49218L-114.381 -48.7715L-76.0645 -70.8935ZM-114.382 280.191C-113.75 279.943 -113.238 279.411 -113.049 278.705C-112.967 278.399 -112.955 278.092 -113 277.798L-74.6846 255.678L-34.9883 278.596L-34.9893 321.877C-35.2491 321.946 -35.5041 322.051 -35.7481 322.191C-37.0027 322.916 -37.5666 324.377 -37.208 325.713L-74.6846 347.351L-114.382 324.434L-114.382 280.191ZM-73.8779 25.2813C-73.6215 25.2345 -73.365 25.166 -73.1123 25.0713C-70.8424 24.2206 -69.6831 21.7072 -70.4971 19.4326L-34.9893 -1.06639L-34.9893 39.9121C-36.0595 40.1079 -37.0603 40.6958 -37.7569 41.6406C-38.6677 42.8761 -38.8422 44.428 -38.3594 45.7715L-73.8779 66.2774L-73.8779 25.2813ZM-73.8779 165.6C-72.8471 165.408 -71.8798 164.852 -71.1875 163.958C-70.2261 162.716 -70.0291 161.125 -70.5225 159.748L-35.5654 139.566C-35.3917 139.709 -35.1969 139.822 -34.9893 139.906L-34.9893 181.571C-35.249 181.641 -35.5042 181.744 -35.7481 181.885C-37.0043 182.61 -37.5674 184.074 -37.2061 185.411L-73.878 206.584L-73.8779 165.6ZM-73.877 -116.365C-73.6183 -116.435 -73.3641 -116.538 -73.1211 -116.679C-71.8656 -117.404 -71.3028 -118.867 -71.6631 -120.203L-34.9922 -141.374L-34.9912 -100.363C-35.4732 -100.274 -35.9488 -100.102 -36.3975 -99.8428C-38.2764 -98.7577 -39.0587 -96.5042 -38.3584 -94.5303L-73.3027 -74.3555C-73.4732 -74.4911 -73.6658 -74.6026 -73.877 -74.6846L-73.877 -116.365ZM-74.6865 -165.229L-35.7891 -142.772L-72.4658 -121.598C-73.4429 -122.582 -74.9943 -122.828 -76.252 -122.102C-76.4965 -121.96 -76.715 -121.791 -76.9053 -121.601L-113.582 -142.774L-74.6865 -165.229ZM-74.6846 -24.9219L-35.793 -2.46874L-71.3067 18.0352C-72.4835 16.6663 -74.4319 16.1053 -76.2207 16.7754C-76.9508 17.0489 -77.5663 17.4945 -78.0381 18.0488L-112.16 -1.65136C-112.018 -2.17884 -112.013 -2.74288 -112.161 -3.28612L-74.6846 -24.9219ZM-74.6826 115.379L-36.3487 137.512C-36.3818 137.723 -36.3837 137.942 -36.3526 138.161L-71.3321 158.356C-71.523 158.135 -71.7393 157.929 -71.9795 157.743C-73.8512 156.295 -76.5165 156.579 -78.044 158.351L-112.985 138.178C-112.952 137.954 -112.952 137.725 -112.99 137.493L-74.6826 115.379ZM-114.382 0.559581C-114.12 0.490159 -113.863 0.386947 -113.617 0.245128C-113.375 0.105013 -113.159 -0.0638958 -112.97 -0.252919L-78.8438 19.4492C-79.1787 20.3967 -79.1956 21.4628 -78.8154 22.4776C-78.2522 23.9807 -76.9589 24.9972 -75.4893 25.2764L-75.4893 66.2852L-114.382 43.8301L-114.382 0.559581ZM-114.382 139.917C-114.161 139.833 -113.961 139.717 -113.785 139.575L-78.8574 159.74C-79.4941 161.5 -78.9621 163.543 -77.4024 164.75C-76.8219 165.199 -76.1647 165.48 -75.4893 165.604L-75.4893 206.585L-112.159 185.414C-111.951 184.64 -112.038 183.785 -112.471 183.036C-112.905 182.284 -113.604 181.782 -114.382 181.576L-114.382 139.917ZM-75.4903 209.382L-75.4893 254.282L-113.805 276.403C-113.977 276.265 -114.172 276.151 -114.387 276.068L-114.387 231.839L-75.4903 209.382ZM-77.71 -120.205C-77.9189 -119.43 -77.8316 -118.574 -77.3984 -117.824C-76.9648 -117.073 -76.267 -116.569 -75.4902 -116.363L-75.4902 -74.6816C-75.6959 -74.6006 -75.8877 -74.4892 -76.0606 -74.3516L-114.382 -96.4766L-114.382 -141.376L-77.71 -120.205ZM-114.387 93.1328C-113.414 92.7582 -112.842 91.7558 -112.997 90.7373L-75.4942 69.0859L-75.4942 113.985L-113.812 136.105C-113.986 135.969 -114.18 135.861 -114.387 135.782L-114.387 93.1328ZM-151.518 69.166C-151.186 68.2361 -151.161 67.1939 -151.514 66.2002L-115.188 45.2275L-76.2891 67.6846L-113.799 89.3408C-114.348 88.9015 -115.095 88.7295 -115.819 88.9463C-116.102 89.0309 -116.355 89.1669 -116.571 89.3408L-151.518 69.166ZM-117.405 186.809C-116.428 187.794 -114.875 188.04 -113.617 187.313C-113.372 187.172 -113.155 187.001 -112.964 186.81L-76.2891 207.983L-115.185 230.44L-152.661 208.805C-152.518 208.275 -152.513 207.708 -152.662 207.163L-117.405 186.809ZM-154.881 -118.922L-115.991 -141.375L-115.992 -96.0117L-115.992 -95.5469L-115.589 -95.3135L-76.8701 -72.9599C-76.9055 -72.733 -76.9034 -72.5073 -76.8701 -72.2891L-115.185 -50.167L-153.501 -72.2891C-153.343 -73.3114 -153.918 -74.311 -154.882 -74.6865L-154.881 -118.922ZM-154.882 163.279C-154.25 163.031 -153.738 162.499 -153.549 161.793C-153.467 161.488 -153.455 161.181 -153.5 160.888L-116.572 139.567C-116.398 139.709 -116.203 139.823 -115.995 139.906L-115.995 181.578C-116.253 181.648 -116.506 181.751 -116.748 181.891C-118.002 182.614 -118.566 184.074 -118.209 185.409L-153.476 205.769C-153.871 205.375 -154.358 205.101 -154.882 204.962L-154.882 163.279ZM-156.095 302.221L-155.692 302.452L-116.568 279.863C-116.398 279.999 -116.206 280.112 -115.995 280.194L-115.995 324.437L-155.691 347.355L-195.389 324.437L-195.389 279.534L-156.095 302.221ZM-154.882 23.9424C-154.623 23.873 -154.368 23.7703 -154.125 23.6299C-152.87 22.9053 -152.307 21.4434 -152.666 20.1074L-117.398 -0.253896C-117.005 0.140724 -116.519 0.416966 -115.997 0.557628L-115.997 43.833L-152.32 64.8027C-152.985 64.025 -153.894 63.508 -154.882 63.3242L-154.882 23.9424ZM-154.881 72.0361C-154.593 71.9824 -154.305 71.8997 -154.022 71.7852C-153.343 71.5094 -152.77 71.0829 -152.324 70.5615L-117.373 90.7402C-117.42 91.0528 -117.403 91.3802 -117.307 91.7031C-117.104 92.3791 -116.607 92.8849 -115.998 93.126L-115.998 135.796C-116.2 135.877 -116.383 135.985 -116.547 136.114L-154.881 113.983L-154.881 72.0361ZM-154.882 211.016C-154.62 210.946 -154.363 210.842 -154.117 210.7C-153.875 210.56 -153.659 210.392 -153.47 210.203L-115.998 231.837L-115.998 276.071C-116.203 276.152 -116.395 276.264 -116.567 276.401L-154.882 254.281L-154.882 211.016ZM-155.688 115.377L-117.359 137.506C-117.393 137.719 -117.396 137.94 -117.364 138.161L-154.308 159.489C-154.539 159.304 -154.811 159.162 -155.115 159.08C-155.822 158.891 -156.539 159.067 -157.07 159.491L-194.583 137.833L-155.688 115.377ZM-155.692 255.68L-117.379 277.8C-117.414 278.027 -117.411 278.253 -117.377 278.471L-155.692 300.593L-194.59 278.136L-155.692 255.68ZM-194.001 -2.12988C-193.965 -2.35862 -193.967 -2.58578 -194.001 -2.80566L-155.692 -24.9219L-118.206 -3.28026C-118.348 -2.75343 -118.352 -2.19 -118.205 -1.64745L-153.469 18.7119C-154.446 17.7269 -155.998 17.4808 -157.256 18.207C-157.5 18.3482 -157.719 18.5173 -157.909 18.708L-194.001 -2.12988ZM-195.39 -0.407219C-195.181 -0.48815 -194.987 -0.599264 -194.812 -0.738274L-158.714 20.1025C-158.923 20.878 -158.836 21.7338 -158.402 22.4844C-157.968 23.2362 -157.269 23.7396 -156.491 23.9453L-156.491 63.3233C-156.781 63.377 -157.07 63.4601 -157.354 63.5752C-158.036 63.8521 -158.612 64.2801 -159.059 64.8047L-195.39 43.8301L-195.39 -0.407219ZM-157.879 160.888C-158.035 161.91 -157.456 162.91 -156.491 163.284L-156.491 204.964C-156.75 205.033 -157.005 205.137 -157.248 205.277C-157.492 205.418 -157.71 205.586 -157.899 205.775L-192.019 186.077C-191.608 184.918 -191.678 183.595 -192.324 182.438C-192.993 181.239 -194.137 180.472 -195.389 180.24L-195.389 139.231L-157.879 160.888ZM-235.886 -115.025C-234.392 -115.301 -233.079 -116.336 -232.521 -117.866C-232.155 -118.874 -232.176 -119.928 -232.51 -120.865L-196.188 -141.834L-156.492 -118.916L-156.493 -74.6855C-157.127 -74.4378 -157.639 -73.9045 -157.828 -73.1973C-157.911 -72.8886 -157.923 -72.5778 -157.876 -72.2812L-196.188 -50.1611L-235.886 -73.0781L-235.886 -115.025ZM-157.903 210.196C-157.508 210.595 -157.019 210.873 -156.492 211.014L-156.492 254.281L-195.39 276.74L-195.39 231.839L-157.903 210.196ZM-195.379 95.4199C-194.947 95.3391 -194.52 95.1919 -194.111 94.9746C-192.151 93.9311 -191.296 91.6241 -192.015 89.5918L-159.053 70.5615C-158.389 71.3371 -157.48 71.8517 -156.494 72.0352L-156.494 113.978L-195.379 136.428L-195.379 95.4199ZM-199.563 187.473C-198.22 189.049 -195.91 189.512 -194.033 188.465C-193.56 188.2 -193.154 187.862 -192.821 187.472L-158.705 207.169C-158.848 207.695 -158.853 208.258 -158.707 208.801L-191.77 227.891L-196.188 230.44L-235.087 207.982L-199.563 187.473ZM-196.191 45.2295L-159.864 66.2022C-160.193 67.1311 -160.215 68.1723 -159.861 69.1641L-192.82 88.1934C-194.139 86.641 -196.403 86.1572 -198.274 87.1533C-198.781 87.423 -199.213 87.7776 -199.564 88.1895L-235.085 67.6836L-196.191 45.2295ZM-235.885 22.9688C-234.922 22.5882 -234.363 21.5961 -234.512 20.5908L-197.568 -0.737298C-197.399 -0.602437 -197.208 -0.491216 -196.999 -0.409173L-196.999 43.833L-235.885 66.2842L-235.885 22.9688ZM-196.999 139.239L-196.999 180.241C-197.461 180.327 -197.918 180.487 -198.352 180.729C-200.267 181.798 -201.08 184.078 -200.367 186.078L-235.885 206.585L-235.885 161.689L-196.999 139.239ZM-200.369 89.5869C-200.768 90.7167 -200.711 92.0043 -200.104 93.1455C-199.444 94.3842 -198.28 95.1798 -197 95.418L-197 136.433L-235.886 113.982L-235.886 69.0811L-200.369 89.5869ZM-236.696 115.377L-197.798 137.835L-236.689 160.289L-275.589 137.83L-236.696 115.377ZM-236.696 -24.9238L-198.379 -2.80175C-198.414 -2.57442 -198.411 -2.34833 -198.377 -2.12988L-235.307 19.1924C-235.869 18.7379 -236.641 18.5662 -237.38 18.8047C-238.544 19.1802 -239.183 20.4277 -238.808 21.5918C-238.594 22.2545 -238.097 22.7464 -237.494 22.9785L-237.494 66.291L-274.172 45.1143C-273.963 44.339 -274.049 43.4837 -274.482 42.7334C-274.915 41.9839 -275.612 41.4814 -276.387 41.2744L-276.387 -2.00879L-236.696 -24.9238ZM-276.381 91.5371L-237.496 69.0869L-237.496 113.979L-276.382 136.431L-276.381 91.5371ZM-237.498 161.685L-237.498 206.59L-276.393 184.134L-276.393 139.229L-237.498 161.685ZM-316.889 161.686L-278.002 139.235L-278.002 185.063L-277.6 185.295L-238.301 207.985L-277.192 230.44L-316.89 207.521L-316.889 161.686ZM-357.389 -2.00977L-317.692 -24.9277L-278.002 -2.01269L-278.002 41.2744C-278.261 41.3438 -278.516 41.4473 -278.76 41.5879C-280.014 42.3123 -280.578 43.7737 -280.22 45.1094L-317.692 66.7451L-357.39 43.8262L-357.389 -2.00977Z" fill="#4BC4D6"/>
</g>
<defs>
<clipPath id="clip0_3388_21096">
<rect width="224" height="349" fill="white" transform="translate(-14)"/>
</clipPath>
</defs>
</svg>
