<svg width="198" height="634" viewBox="0 0 198 634" fill="none" xmlns="http://www.w3.org/2000/svg">
<path opacity="0.38" d="M0.403306 328.989L40.9053 352.373L41.3076 352.604L79.5859 330.504C80.5631 331.487 82.1139 331.733 83.3711 331.007C83.6156 330.866 83.8331 330.696 84.0234 330.505L120.706 351.685L81.0097 374.604L81.0097 375.069L81.0078 421.356L80.998 421.362L80.998 421.372L40.5019 444.753L40.5019 445.218L40.5 491.982L40.5 492.447L40.9033 492.681L81.4053 516.064L81.8076 516.296L122.31 492.911L162.001 515.828L162 562.135L162 562.6L162.002 562.601L162.002 609.362L162.404 609.594L202.906 632.979L203.309 633.211L243.815 609.824L283.913 632.975L284.315 633.206L322.595 611.105C323.572 612.09 325.124 612.337 326.383 611.61C327.88 610.746 328.394 608.831 327.529 607.333C327.096 606.582 326.398 606.079 325.621 605.873L325.622 562.128L325.623 561.663L325.22 561.431L285.121 538.279L285.121 493.377L324.417 516.064L324.819 516.296L366.125 492.448L366.125 492.444L405.821 469.525L445.916 492.678L446.318 492.91L483.452 471.47C484.811 473.066 487.156 473.518 489.037 472.432C491.156 471.208 491.881 468.499 490.658 466.38C489.983 465.211 488.855 464.467 487.624 464.239L487.624 421.363L487.222 421.132L446.72 397.748L446.317 397.516L407.198 420.099C406.652 419.678 405.919 419.516 405.208 419.73C404.931 419.813 404.684 419.947 404.471 420.116L366.118 397.975L366.118 354.709C366.38 354.64 366.637 354.535 366.883 354.394C367.127 354.253 367.344 354.083 367.534 353.893L405.418 375.766L405.82 375.998L444.941 353.411C445.633 353.964 446.618 354.07 447.431 353.601C448.247 353.129 448.647 352.218 448.51 351.34L485.433 330.022C486.124 330.577 487.112 330.684 487.927 330.214C488.986 329.602 489.35 328.248 488.738 327.188C488.476 326.735 488.077 326.41 487.624 326.233L487.624 282L487.625 281.999L487.625 281.995L528.129 258.61L528.129 214.4C528.388 214.331 528.643 214.228 528.887 214.087C528.973 214.037 529.056 213.983 529.136 213.926C529.242 213.879 529.347 213.828 529.449 213.769C530.707 213.043 531.269 211.576 530.905 210.238L568.629 188.46L568.629 140.762L568.227 140.53L527.726 117.148L527.323 116.916L490.191 138.354C488.832 136.757 486.487 136.306 484.606 137.392C484.157 137.651 483.77 137.978 483.451 138.352L447.121 117.377L447.121 71.5459L447.125 71.544L447.125 71.0791L447.126 24.3135L447.127 23.8487L446.724 23.6162L406.222 0.23244L405.819 1.77389e-05L365.313 23.3858L325.214 0.234389L324.812 0.00196732L283.506 23.8506L283.506 71.5479L283.908 71.7793L324.017 94.9365L324.016 139.831L284.716 117.145L284.313 116.912L243.01 140.759L243.01 140.766L203.312 163.686L163.214 140.535L162.812 140.303L125.685 161.738C125.204 161.175 124.577 160.723 123.832 160.451C121.533 159.614 118.99 160.8 118.153 163.099C117.316 165.397 118.501 167.939 120.8 168.776C121.033 168.861 121.27 168.924 121.506 168.969L121.506 211.849L121.908 212.08L162.409 235.463L162.812 235.694L201.931 213.107C202.162 213.292 202.434 213.434 202.738 213.516C203.445 213.705 204.16 213.528 204.691 213.105L243.01 235.229L243.01 278.505C242.75 278.574 242.496 278.678 242.252 278.818C242.007 278.96 241.787 279.13 241.597 279.321L203.71 257.447L203.308 257.215L164.194 279.797C163.962 279.611 163.69 279.469 163.385 279.387C162.677 279.197 161.958 279.374 161.427 279.8L122.706 257.445L122.304 257.213L81.8066 280.594L41.7099 257.445L41.3076 257.213L0.00194084 281.062L0.00194082 281.526L-1.43501e-05 328.291L-1.43704e-05 328.756L0.403306 328.989ZM490.995 142.711C491.328 141.772 491.344 140.726 490.996 139.748L527.323 118.775L567.018 141.692L567.019 187.53L530.099 208.845C529.566 208.311 528.865 207.996 528.133 207.937L528.134 164.618L528.135 164.153L527.731 163.921L490.995 142.711ZM487.626 145.584C488.11 145.495 488.587 145.324 489.037 145.064C489.486 144.805 489.872 144.478 490.19 144.105L526.523 165.082L526.522 208.238C526.454 208.272 526.386 208.307 526.318 208.346C526.232 208.396 526.148 208.449 526.068 208.506C525.963 208.552 525.858 208.605 525.756 208.664C525.511 208.805 525.293 208.974 525.103 209.165L487.626 187.529L487.626 145.584ZM525.11 213.593C525.506 213.987 525.993 214.262 526.518 214.401L526.519 257.681L487.625 280.136L487.625 235.235L525.11 213.593ZM486.822 188.926L524.298 210.561C524.155 211.09 524.15 211.656 524.3 212.201L486.827 233.837L447.927 211.38L486.822 188.926ZM447.13 168.969C447.611 168.879 448.085 168.71 448.533 168.451C450.412 167.366 451.194 165.113 450.494 163.14L483.457 144.108C484.129 144.895 485.04 145.401 486.017 145.582L486.016 187.53L447.13 209.98L447.13 168.969ZM486.014 235.231L486.014 280.13L450.492 259.621C450.909 258.442 450.828 257.096 450.154 255.929C449.48 254.761 448.355 254.018 447.126 253.789L447.126 212.78L486.014 235.231ZM486.014 282.93L486.014 326.234C485.911 326.275 485.81 326.321 485.712 326.378C484.9 326.847 484.499 327.751 484.63 328.625L447.697 349.947C447.523 349.809 447.33 349.699 447.126 349.62L447.126 305.381L486.014 282.93ZM406.629 423.92C407.624 423.545 408.205 422.517 408.027 421.48L446.317 399.374L486.014 422.294L486.014 464.238C485.531 464.328 485.055 464.5 484.606 464.759C482.727 465.844 481.944 468.1 482.646 470.074L446.318 491.05L406.629 468.133L406.629 423.92ZM442.947 261.018C444.306 262.615 446.652 263.067 448.533 261.98C448.983 261.721 449.369 261.393 449.688 261.019L485.215 281.53L446.319 303.986L409.994 283.014C410.328 282.072 410.344 281.023 409.993 280.043L442.947 261.018ZM408.839 142.046C408.982 141.519 408.987 140.955 408.84 140.411L446.319 118.773L482.647 139.747C482.314 140.688 482.299 141.737 482.649 142.716L449.691 161.744C448.333 160.144 445.985 159.692 444.103 160.778C443.653 161.038 443.266 161.365 442.947 161.738L408.839 142.046ZM406.623 144.253C406.883 144.184 407.139 144.079 407.383 143.938C407.626 143.798 407.843 143.629 408.032 143.439L442.144 163.134C441.726 164.313 441.807 165.661 442.481 166.829C443.157 167.999 444.285 168.743 445.517 168.97L445.517 209.985L445.514 209.983L407.993 188.32C408.04 188.008 408.024 187.68 407.927 187.357C407.724 186.684 407.229 186.179 406.623 185.938L406.623 144.253ZM406.627 285.887C407.11 285.797 407.587 285.627 408.037 285.367C408.485 285.108 408.87 284.782 409.188 284.409L445.517 305.384L445.517 349.622C445.415 349.662 445.313 349.708 445.216 349.765C445.119 349.821 445.029 349.884 444.944 349.951L408.841 329.105C409.048 328.332 408.961 327.478 408.528 326.73C408.096 325.981 407.401 325.479 406.627 325.272L406.627 285.887ZM366.123 24.7774L405.819 1.85939L445.516 24.7774L445.515 69.6807L406.218 46.9942L405.815 46.7617L366.692 69.3477C366.518 69.2094 366.326 69.0992 366.122 69.0195L366.123 24.7774ZM445.513 212.781L445.513 253.787C445.029 253.876 444.552 254.048 444.103 254.308C442.224 255.393 441.442 257.645 442.142 259.619L409.184 278.647C408.512 277.863 407.603 277.357 406.627 277.176L406.627 235.23L445.513 212.781ZM445.51 72.4756L445.511 117.376L408.031 139.014C407.637 138.619 407.152 138.343 406.629 138.203L406.629 94.9238L445.51 72.4756ZM367.503 211.715C367.538 211.487 367.537 211.261 367.503 211.042L404.425 189.726C404.974 190.162 405.72 190.332 406.442 190.115C406.725 190.03 406.978 189.893 407.194 189.718L444.715 211.381L405.82 233.837L367.503 211.715ZM405.815 48.6211L444.712 71.0772L405.819 93.5313L367.504 71.4111C367.537 71.19 367.537 70.9639 367.502 70.7393L405.815 48.6211ZM368.339 352.499C368.481 351.972 368.487 351.408 368.34 350.865L403.601 330.507C404.578 331.488 406.127 331.732 407.383 331.007C407.629 330.865 407.848 330.693 408.039 330.5L444.135 351.345C444.101 351.565 444.101 351.791 444.135 352.016L405.82 374.139L368.339 352.499ZM366.118 73.1426C366.221 73.1022 366.324 73.0562 366.423 72.999C366.522 72.9419 366.613 72.8759 366.699 72.8067L405.018 94.9297L405.018 138.199C404.755 138.269 404.498 138.374 404.252 138.516C404.008 138.656 403.79 138.825 403.601 139.015L366.118 117.375L366.118 73.1426ZM366.121 213.44C366.329 213.359 366.522 213.247 366.696 213.107L405.013 235.23L405.012 277.175C404.53 277.264 404.055 277.435 403.606 277.694C403.157 277.954 402.771 278.28 402.452 278.653L367.493 258.469C367.54 258.155 367.524 257.828 367.427 257.504C367.224 256.83 366.728 256.324 366.121 256.083L366.121 213.44ZM365.323 399.375L403.659 421.507C403.609 421.825 403.626 422.16 403.726 422.489C403.926 423.156 404.413 423.656 405.011 423.9L405.013 468.132L366.125 490.585L366.125 444.75L365.723 444.519L327.026 422.178C327.06 421.953 327.06 421.721 327.021 421.487L365.323 399.375ZM402.453 284.406C403.124 285.194 404.034 285.701 405.011 285.884L405.012 325.27C404.752 325.339 404.496 325.443 404.252 325.584C402.995 326.31 402.431 327.776 402.794 329.114L367.534 349.471C367.138 349.073 366.649 348.797 366.123 348.657L366.123 305.383L402.453 284.406ZM366.124 167.639C366.384 167.569 366.639 167.466 366.883 167.325C368.138 166.6 368.701 165.137 368.341 163.801L403.604 143.442C403.998 143.837 404.486 144.112 405.01 144.252L405.01 185.929C404.034 186.303 403.46 187.31 403.618 188.331L366.695 209.648C366.526 209.513 366.334 209.402 366.124 209.319L366.124 167.639ZM365.313 118.771L402.794 140.411C402.651 140.939 402.647 141.504 402.795 142.048L367.536 162.404C366.559 161.422 365.009 161.177 363.752 161.902C363.508 162.043 363.29 162.211 363.101 162.401L326.42 141.224L365.313 118.771ZM363.933 259.878C364.481 260.31 365.223 260.478 365.942 260.262C366.224 260.177 366.475 260.04 366.69 259.867L401.647 280.049C401.315 280.988 401.299 282.034 401.646 283.011L365.322 303.984L326.427 281.53L363.933 259.878ZM362.294 163.798C362.085 164.573 362.172 165.429 362.605 166.18C363.039 166.931 363.737 167.434 364.514 167.641L364.514 209.317C364.306 209.398 364.112 209.51 363.937 209.648L328.992 189.474C329.41 188.294 329.329 186.947 328.654 185.778C327.979 184.609 326.851 183.865 325.619 183.638L325.619 142.622L362.294 163.798ZM325.626 423.916C325.847 423.832 326.048 423.717 326.225 423.575L364.514 445.681L364.514 490.58L327.84 469.407C328.049 468.632 327.962 467.777 327.529 467.026C327.097 466.277 326.401 465.775 325.626 465.567L325.626 423.916ZM364.512 305.381L364.513 348.655C364.252 348.725 363.997 348.829 363.752 348.971C363.51 349.111 363.293 349.278 363.104 349.467L328.977 329.765C329.623 327.969 329.052 325.891 327.437 324.7C326.882 324.291 326.262 324.029 325.626 323.91L325.626 282.929L364.512 305.381ZM325.627 235.23L363.936 213.112C364.106 213.248 364.299 213.36 364.511 213.442L364.512 256.074C363.531 256.45 362.955 257.463 363.119 258.488L325.626 280.134L325.627 235.23ZM324.812 1.86134L364.509 24.7803L364.509 69.0205C364.407 69.0606 364.306 69.1067 364.208 69.1631C363.395 69.6326 362.994 70.5396 363.127 71.4151L324.812 93.5371L285.115 70.6182L285.115 24.7793L324.812 1.86134ZM324.417 375.764L324.819 375.995L363.101 353.894C363.496 354.29 363.984 354.567 364.509 354.707L364.509 397.978L326.192 420.098C325.646 419.676 324.912 419.513 324.2 419.728C323.924 419.811 323.676 419.945 323.463 420.114L285.122 397.98L285.122 353.077L324.417 375.764ZM325.627 94.9297L363.936 72.8115C364.11 72.9509 364.303 73.0625 364.508 73.1426L364.508 117.377L325.626 139.824L325.627 94.9297ZM322.598 470.802C323.575 471.785 325.126 472.029 326.383 471.304C326.627 471.163 326.844 470.992 327.034 470.802L363.715 491.98L324.819 514.437L285.92 491.979L322.598 470.802ZM321.444 190.863C322.803 192.464 325.151 192.917 327.033 191.83C327.483 191.57 327.869 191.242 328.188 190.867L363.126 211.039C363.09 211.268 363.093 211.496 363.127 211.716L324.82 233.834L286.507 211.714C286.542 211.484 286.54 211.257 286.506 211.036L321.444 190.863ZM321.457 331.161C321.668 331.405 321.909 331.631 322.18 331.831C324.058 333.216 326.666 332.896 328.163 331.155L362.296 350.861C362.152 351.389 362.147 351.954 362.294 352.498L324.819 374.136L285.921 351.678L321.457 331.161ZM282.936 213.106C283.168 213.292 283.44 213.436 283.746 213.518C284.451 213.707 285.166 213.53 285.697 213.108L324.013 235.23L324.013 280.134L284.718 257.447L284.315 257.215L246.032 279.316C245.636 278.919 245.146 278.643 244.619 278.504L244.619 235.229L282.936 213.106ZM244.618 564.188C245.25 563.939 245.762 563.407 245.951 562.701C246.033 562.396 246.045 562.088 246 561.794L284.315 539.674L324.012 562.592L324.011 605.873C323.751 605.942 323.496 606.047 323.252 606.188C321.997 606.912 321.433 608.373 321.792 609.709L284.315 631.347L244.618 608.43L244.618 564.188ZM285.122 309.277C285.379 309.231 285.635 309.162 285.888 309.067C288.158 308.217 289.317 305.703 288.503 303.429L324.011 282.93L324.011 323.908C322.94 324.104 321.94 324.692 321.243 325.637C320.332 326.872 320.158 328.424 320.641 329.768L285.122 350.273L285.122 309.277ZM285.122 449.596C286.153 449.404 287.12 448.849 287.812 447.954C288.774 446.712 288.971 445.121 288.478 443.744L323.435 423.563C323.608 423.705 323.803 423.819 324.011 423.902L324.011 465.567C323.751 465.637 323.496 465.74 323.252 465.881C321.996 466.606 321.433 468.07 321.794 469.407L285.122 490.58L285.122 449.596ZM285.123 167.635C285.382 167.565 285.636 167.462 285.879 167.321C287.134 166.596 287.697 165.133 287.337 163.797L324.008 142.626L324.009 183.637C323.527 183.726 323.051 183.898 322.603 184.157C320.724 185.242 319.941 187.496 320.642 189.47L285.697 209.645C285.527 209.509 285.334 209.397 285.123 209.315L285.123 167.635ZM284.313 118.771L323.211 141.228L286.534 162.402C285.557 161.418 284.006 161.172 282.748 161.898C282.504 162.04 282.285 162.209 282.095 162.399L245.418 141.226L284.313 118.771ZM246.839 282.349C246.982 281.82 246.987 281.255 246.839 280.71L284.315 259.074L323.211 281.529L287.696 302.034C286.52 300.663 284.57 300.101 282.779 300.771C282.048 301.046 281.431 301.492 280.959 302.048L246.839 282.349ZM284.317 399.375L322.651 421.508C322.618 421.72 322.616 421.938 322.647 422.157L287.668 442.353C287.477 442.131 287.261 441.925 287.02 441.739C285.149 440.291 282.483 440.575 280.956 442.347L246.015 422.174C246.048 421.951 246.048 421.721 246.01 421.489L284.317 399.375ZM244.618 284.556C244.88 284.486 245.137 284.383 245.383 284.241C245.625 284.101 245.84 283.932 246.029 283.743L280.156 303.445C279.821 304.393 279.804 305.459 280.185 306.474C280.748 307.977 282.041 308.993 283.511 309.272L283.511 350.281L244.618 327.826L244.618 284.556ZM244.618 423.913C244.839 423.829 245.039 423.713 245.215 423.571L280.143 443.736C279.506 445.496 280.038 447.539 281.598 448.746C282.178 449.195 282.835 449.476 283.511 449.6L283.511 490.581L246.841 469.41C247.049 468.636 246.962 467.782 246.529 467.032C246.095 466.281 245.396 465.778 244.618 465.572L244.618 423.913ZM283.51 493.378L283.511 538.278L245.195 560.399C245.023 560.261 244.828 560.147 244.613 560.064L244.613 515.835L283.51 493.378ZM281.29 163.795C281.081 164.57 281.168 165.426 281.602 166.176C282.035 166.927 282.733 167.431 283.51 167.637L283.51 209.318C283.304 209.399 283.112 209.511 282.939 209.648L244.618 187.523L244.618 142.624L281.29 163.795ZM244.613 377.129C245.586 376.754 246.158 375.752 246.003 374.733L283.506 353.082L283.506 397.981L245.188 420.102C245.014 419.966 244.82 419.857 244.613 419.778L244.613 377.129ZM207.482 353.162C207.814 352.232 207.839 351.19 207.486 350.196L243.812 329.224L282.711 351.681L245.201 373.337C244.652 372.898 243.905 372.726 243.181 372.942C242.898 373.027 242.645 373.163 242.429 373.337L207.482 353.162ZM241.595 470.805C242.572 471.79 244.125 472.036 245.383 471.31C245.628 471.168 245.845 470.997 246.036 470.806L282.711 491.98L243.815 514.437L206.339 492.801C206.482 492.271 206.487 491.705 206.338 491.159L241.595 470.805ZM204.119 165.078L243.009 142.625L243.008 187.988L243.008 188.453L243.411 188.687L282.13 211.04C282.095 211.267 282.097 211.493 282.13 211.711L243.815 233.833L205.499 211.711C205.657 210.689 205.082 209.689 204.118 209.313L204.119 165.078ZM204.118 447.275C204.75 447.027 205.262 446.495 205.451 445.789C205.533 445.484 205.545 445.177 205.5 444.884L242.428 423.563C242.602 423.705 242.797 423.819 243.005 423.902L243.005 465.574C242.747 465.644 242.494 465.747 242.252 465.887C240.998 466.611 240.434 468.07 240.791 469.405L205.524 489.765C205.129 489.371 204.642 489.097 204.118 488.958L204.118 447.275ZM202.905 586.217L203.308 586.448L242.432 563.859C242.602 563.995 242.794 564.108 243.005 564.19L243.005 608.433L203.309 631.352L163.611 608.433L163.611 563.53L202.905 586.217ZM204.118 307.938C204.377 307.869 204.632 307.766 204.875 307.626C206.13 306.901 206.693 305.44 206.334 304.104L241.602 283.742C241.995 284.137 242.481 284.413 243.003 284.554L243.003 327.829L206.68 348.799C206.015 348.021 205.106 347.504 204.118 347.32L204.118 307.938ZM204.119 356.032C204.407 355.978 204.695 355.896 204.978 355.781C205.657 355.506 206.23 355.079 206.676 354.558L241.627 374.736C241.58 375.049 241.597 375.376 241.693 375.699C241.896 376.375 242.393 376.881 243.002 377.122L243.002 419.792C242.8 419.873 242.617 419.981 242.453 420.11L204.119 397.98L204.119 356.032ZM204.118 495.012C204.38 494.942 204.637 494.838 204.883 494.696C205.125 494.556 205.341 494.388 205.53 494.199L243.002 515.833L243.002 560.067C242.797 560.148 242.605 560.26 242.433 560.397L204.118 538.277L204.118 495.012ZM203.312 399.373L241.641 421.502C241.607 421.716 241.604 421.936 241.636 422.157L204.692 443.485C204.461 443.3 204.189 443.158 203.885 443.076C203.178 442.887 202.461 443.064 201.93 443.487L164.417 421.829L203.312 399.373ZM203.308 539.676L241.621 561.796C241.586 562.023 241.589 562.249 241.623 562.467L203.308 584.589L164.41 562.132L203.308 539.676ZM164.999 281.866C165.035 281.637 165.033 281.41 164.999 281.19L203.308 259.074L240.794 280.716C240.652 281.243 240.648 281.806 240.795 282.349L205.531 302.708C204.554 301.723 203.002 301.477 201.744 302.203C201.5 302.344 201.281 302.513 201.091 302.704L164.999 281.866ZM163.61 283.589C163.819 283.508 164.013 283.397 164.188 283.258L200.286 304.099C200.077 304.874 200.164 305.73 200.598 306.48C201.032 307.232 201.731 307.736 202.509 307.941L202.509 347.319C202.219 347.373 201.93 347.456 201.646 347.571C200.964 347.848 200.388 348.276 199.941 348.801L163.61 327.826L163.61 283.589ZM201.121 444.884C200.965 445.907 201.544 446.906 202.509 447.28L202.509 488.96C202.25 489.029 201.995 489.133 201.752 489.273C201.508 489.414 201.29 489.582 201.101 489.771L166.981 470.073C167.392 468.914 167.322 467.592 166.676 466.434C166.007 465.235 164.863 464.468 163.611 464.236L163.611 423.228L201.121 444.884ZM123.114 168.971C124.608 168.696 125.921 167.66 126.479 166.13C126.845 165.122 126.824 164.068 126.49 163.131L162.812 142.162L202.508 165.08L202.507 209.314C201.873 209.562 201.361 210.095 201.172 210.803C201.09 211.11 201.077 211.419 201.123 211.715L162.812 233.835L123.114 210.918L123.114 168.971ZM201.097 494.192C201.492 494.591 201.981 494.869 202.508 495.01L202.508 538.277L163.61 560.736L163.61 515.835L201.097 494.192ZM163.621 379.416C164.053 379.335 164.48 379.188 164.889 378.971C166.849 377.927 167.704 375.62 166.985 373.588L199.947 354.558C200.611 355.333 201.52 355.848 202.506 356.031L202.506 397.974L163.621 420.424L163.621 379.416ZM159.437 471.469C160.78 473.045 163.09 473.509 164.967 472.461C165.44 472.197 165.846 471.858 166.179 471.468L200.295 491.165C200.152 491.691 200.147 492.254 200.293 492.797L167.23 511.887L162.812 514.437L123.913 491.979L159.437 471.469ZM162.809 329.226L199.136 350.198C198.807 351.127 198.785 352.168 199.139 353.16L166.18 372.189C164.861 370.637 162.597 370.153 160.726 371.149C160.219 371.419 159.787 371.774 159.436 372.186L123.915 351.68L162.809 329.226ZM123.115 306.965C124.078 306.584 124.637 305.592 124.488 304.587L161.432 283.259C161.601 283.394 161.792 283.505 162.001 283.587L162.001 327.829L123.115 350.28L123.115 306.965ZM162.001 423.235L162.001 464.237C161.539 464.323 161.082 464.483 160.648 464.725C158.733 465.794 157.92 468.074 158.633 470.074L123.115 490.581L123.115 445.686L162.001 423.235ZM158.631 373.583C158.232 374.713 158.289 376 158.896 377.142C159.556 378.38 160.72 379.176 162 379.414L162 420.429L123.114 397.979L123.114 353.077L158.631 373.583ZM122.304 399.373L161.202 421.831L122.311 444.285L83.4111 421.826L122.304 399.373ZM122.304 259.072L160.621 281.194C160.586 281.422 160.589 281.648 160.623 281.866L123.693 303.188C123.131 302.734 122.359 302.562 121.62 302.801C120.456 303.176 119.817 304.424 120.192 305.588C120.406 306.251 120.903 306.742 121.506 306.975L121.506 350.287L84.8281 329.11C85.0371 328.335 84.9507 327.48 84.5176 326.729C84.0848 325.98 83.3883 325.477 82.6133 325.271L82.6133 281.987L122.304 259.072ZM82.6191 375.533L121.504 353.083L121.504 397.975L82.6181 420.427L82.6191 375.533ZM121.502 445.681L121.502 490.586L82.6074 468.13L82.6074 423.226L121.502 445.681ZM42.1113 445.682L80.998 423.231L80.998 469.06L81.4004 469.291L120.699 491.981L81.8076 514.437L42.1103 491.518L42.1113 445.682ZM1.61132 281.99L41.3076 259.072L80.998 281.987L80.998 325.271C80.7386 325.34 80.4838 325.443 80.2402 325.584C78.9844 326.309 78.4206 327.773 78.7812 329.109L41.3076 350.745L1.61034 327.826L1.61132 281.99Z" fill="#4BC4D6"/>
</svg>
