<svg width="248" height="628" viewBox="0 0 248 628" fill="none" xmlns="http://www.w3.org/2000/svg">
<path opacity="0.2" d="M0.403306 322.989L40.9053 346.373L41.3076 346.604L79.5801 324.507C80.5569 325.495 82.1116 325.742 83.3711 325.015C83.6156 324.873 83.8331 324.704 84.0234 324.513L120.706 345.692L81.0097 368.612L81.0097 369.077L81.0078 415.364L80.998 415.37L80.998 415.38L40.5019 438.761L40.5019 439.226L40.5 485.99L40.5 486.455L40.9033 486.688L81.4053 510.072L81.8076 510.304L122.31 486.919L162.001 509.836L162 556.143L162 556.607L162.002 556.608L162.002 603.37L162.404 603.602L202.906 626.986L203.309 627.219L243.815 603.832L283.913 626.982L284.315 627.214L322.595 605.112C323.572 606.098 325.124 606.345 326.383 605.618C327.88 604.753 328.394 602.838 327.529 601.341C327.096 600.59 326.398 600.087 325.621 599.881L325.622 556.136L325.623 555.671L325.22 555.438L285.121 532.287L285.121 487.385L324.417 510.072L324.819 510.304L366.125 486.456L366.125 486.452L405.828 463.529L445.916 486.678L446.318 486.91L483.452 465.47C484.811 467.066 487.156 467.518 489.037 466.432C491.156 465.208 491.881 462.499 490.658 460.38C489.983 459.211 488.855 458.467 487.624 458.239L487.624 415.363L487.222 415.132L446.72 391.748L446.317 391.516L407.198 414.099C406.652 413.678 405.919 413.516 405.208 413.73C404.929 413.814 404.679 413.949 404.465 414.12L366.118 391.982L366.118 348.709C366.38 348.64 366.637 348.535 366.883 348.394C367.125 348.254 367.34 348.086 367.529 347.897L405.418 369.773L405.82 370.006L444.947 347.416C445.638 347.965 446.62 348.069 447.431 347.601C448.247 347.129 448.647 346.218 448.51 345.34L485.433 324.022C486.124 324.577 487.112 324.684 487.927 324.214C488.986 323.602 489.35 322.248 488.738 321.188C488.476 320.735 488.077 320.41 487.624 320.233L487.624 276.008L487.625 276.007L487.625 276.003L528.129 252.618L528.129 208.408C528.388 208.339 528.643 208.235 528.887 208.095C528.973 208.045 529.056 207.99 529.136 207.934C529.242 207.887 529.347 207.836 529.449 207.776C530.707 207.05 531.269 205.584 530.905 204.246L568.629 182.468L568.629 134.77L568.227 134.538L527.726 111.156L527.323 110.924L490.191 132.361C488.832 130.765 486.487 130.314 484.606 131.399C484.157 131.659 483.77 131.986 483.451 132.359L447.121 111.385L447.121 65.5459L447.125 65.544L447.125 65.0791L447.126 18.3135L447.127 17.8487L446.724 17.6162L406.222 -5.76756L405.819 -5.99998L365.307 17.3897L325.214 -5.7578L324.812 -5.99022L283.506 17.8584L283.506 65.5557L283.908 65.7871L324.017 88.9444L324.016 133.831L284.716 111.145L284.313 110.912L243.01 134.759L243.01 134.766L203.305 157.689L163.214 134.543L162.812 134.311L125.685 155.746C125.204 155.183 124.577 154.73 123.832 154.459C121.533 153.622 118.99 154.808 118.153 157.106C117.316 159.405 118.501 161.947 120.8 162.784C121.033 162.869 121.27 162.932 121.506 162.977L121.506 205.856L121.908 206.088L162.409 229.471L162.812 229.702L201.937 207.112C202.167 207.295 202.437 207.435 202.738 207.516C203.445 207.705 204.16 207.528 204.691 207.105L243.01 229.229L243.01 272.513C242.75 272.582 242.496 272.686 242.252 272.826C242.007 272.968 241.787 273.138 241.597 273.329L203.71 251.455L203.308 251.223L164.194 273.805C163.962 273.619 163.69 273.476 163.385 273.395C162.677 273.205 161.958 273.382 161.427 273.808L122.706 251.453L122.304 251.221L81.8135 274.598L41.7099 251.445L41.3076 251.213L0.00194084 275.062L0.00194082 275.526L-1.43501e-05 322.291L-1.43704e-05 322.756L0.403306 322.989ZM490.995 136.719C491.328 135.779 491.344 134.734 490.996 133.756L527.323 112.783L567.018 135.7L567.019 181.538L530.099 202.853C529.566 202.319 528.865 202.003 528.133 201.944L528.134 158.626L528.135 158.161L527.731 157.929L490.995 136.719ZM487.626 139.592C488.11 139.503 488.587 139.332 489.037 139.072C489.486 138.813 489.872 138.486 490.19 138.113L526.523 159.09L526.522 202.246C526.454 202.279 526.385 202.315 526.318 202.354C526.232 202.404 526.148 202.457 526.068 202.514C525.963 202.56 525.858 202.613 525.756 202.672C525.511 202.813 525.293 202.982 525.103 203.173L515.421 197.584L487.626 181.537L487.626 139.592ZM525.11 207.601C525.506 207.995 525.993 208.27 526.518 208.409L526.519 251.688L487.625 274.144L487.625 229.243L525.11 207.601ZM486.822 182.934L524.298 204.568C524.155 205.098 524.151 205.664 524.3 206.209L486.827 227.845L447.927 205.388L486.822 182.934ZM447.13 162.977C447.611 162.887 448.085 162.717 448.533 162.459C450.412 161.374 451.194 159.121 450.494 157.147L483.457 138.116C484.129 138.903 485.04 139.409 486.017 139.59L486.016 181.538L447.13 203.987L447.13 162.977ZM486.014 229.239L486.014 274.13L450.492 253.621C450.909 252.442 450.828 251.096 450.154 249.929C449.48 248.761 448.355 248.018 447.126 247.789L447.126 206.788L486.014 229.239ZM486.014 276.938L486.014 320.234C485.911 320.275 485.81 320.321 485.712 320.378C484.9 320.847 484.499 321.751 484.63 322.625L447.697 343.947C447.523 343.809 447.33 343.699 447.126 343.62L447.126 299.389L486.014 276.938ZM406.629 417.92C407.624 417.545 408.205 416.517 408.027 415.48L446.317 393.374L486.014 416.294L486.014 458.238C485.531 458.328 485.055 458.5 484.606 458.759C482.727 459.844 481.944 462.1 482.646 464.074L446.318 485.05L406.629 462.133L406.629 417.92ZM409.992 277.021C410.329 276.077 410.345 275.025 409.993 274.043L442.947 255.018C444.306 256.615 446.652 257.067 448.533 255.98C448.981 255.722 449.365 255.395 449.684 255.023L485.215 275.538L446.319 297.994L409.992 277.021ZM446.319 112.781L482.647 133.755C482.314 134.696 482.299 135.744 482.649 136.724L449.691 155.752C448.333 154.152 445.985 153.699 444.103 154.786C443.655 155.044 443.27 155.369 442.952 155.74L408.841 136.047C408.982 135.522 408.986 134.96 408.84 134.419L446.319 112.781ZM406.623 138.261C406.883 138.191 407.139 138.087 407.383 137.946C407.628 137.805 407.846 137.634 408.037 137.442L442.146 157.135C441.725 158.316 441.806 159.666 442.481 160.837C443.157 162.006 444.285 162.75 445.517 162.978L445.517 203.984L407.995 182.321C408.041 182.011 408.023 181.686 407.927 181.365C407.724 180.692 407.229 180.187 406.623 179.945L406.623 138.261ZM406.627 279.887C407.11 279.797 407.587 279.627 408.037 279.367C408.483 279.11 408.867 278.785 409.185 278.415L445.517 299.392L445.517 343.622C445.415 343.662 445.313 343.708 445.216 343.765C445.119 343.821 445.029 343.884 444.944 343.951L408.841 323.105C409.048 322.331 408.961 321.478 408.528 320.73C408.096 319.981 407.401 319.479 406.627 319.272L406.627 279.887ZM366.123 18.7774L405.819 -4.14061L445.516 18.7774L445.515 63.6807L406.218 40.9942L405.815 40.7617L366.687 63.3506C366.514 63.2145 366.324 63.1061 366.122 63.0274L366.123 18.7774ZM445.513 206.788L445.513 247.787C445.029 247.876 444.552 248.048 444.103 248.308C442.224 249.393 441.442 251.645 442.142 253.619L409.184 272.647C408.512 271.863 407.603 271.357 406.627 271.176L406.627 229.237L445.513 206.788ZM445.51 66.4756L445.511 111.376L408.026 133.017C407.633 132.625 407.149 132.351 406.629 132.211L406.629 88.9238L445.51 66.4756ZM405.815 42.6211L444.712 65.0772L405.819 87.5313L367.505 65.4111C367.538 65.1903 367.537 64.9645 367.501 64.7403L405.815 42.6211ZM404.419 183.729C404.968 184.169 405.717 184.341 406.442 184.123C406.725 184.038 406.978 183.9 407.194 183.726L444.708 205.385L405.82 227.837L367.504 205.716C367.538 205.488 367.537 205.262 367.502 205.043L404.419 183.729ZM368.337 346.506C368.481 345.979 368.488 345.415 368.342 344.872L403.605 324.512C404.583 325.489 406.129 325.731 407.383 325.007C407.629 324.865 407.848 324.693 408.039 324.5L444.135 345.345C444.1 345.568 444.1 345.797 444.136 346.023L405.82 368.147L368.337 346.506ZM366.118 67.1504C366.221 67.1101 366.324 67.064 366.423 67.0069C366.524 66.9484 366.617 66.8807 366.705 66.8096L405.018 88.9297L405.018 132.207C404.755 132.276 404.498 132.381 404.252 132.523C404.01 132.663 403.794 132.83 403.605 133.018L366.118 111.375L366.118 67.1504ZM366.121 207.448C366.331 207.366 366.526 207.252 366.702 207.111L405.013 229.23L405.012 271.175C404.53 271.264 404.055 271.436 403.606 271.694C403.157 271.954 402.771 272.28 402.452 272.653L367.493 252.469C367.54 252.155 367.524 251.828 367.427 251.504C367.224 250.83 366.728 250.324 366.121 250.083L366.121 207.448ZM365.323 393.383L403.658 415.514C403.609 415.83 403.627 416.162 403.726 416.489C403.926 417.156 404.413 417.656 405.011 417.9L405.013 462.14L366.125 484.593L366.125 438.758L365.723 438.526L327.026 416.186C327.06 415.96 327.06 415.728 327.021 415.495L365.323 393.383ZM402.457 278.411C403.127 279.196 404.036 279.702 405.011 279.884L405.012 319.27C404.752 319.339 404.496 319.443 404.252 319.584C402.992 320.311 402.429 321.781 402.796 323.121L367.539 343.477C367.142 343.076 366.651 342.798 366.123 342.657L366.123 299.388L402.457 278.411ZM366.124 161.647C366.384 161.577 366.639 161.474 366.883 161.333C368.14 160.607 368.703 159.14 368.339 157.802L403.599 137.445C403.994 137.843 404.484 138.119 405.01 138.26L405.01 179.937C404.036 180.31 403.463 181.313 403.617 182.331L366.689 203.651C366.521 203.518 366.332 203.408 366.124 203.327L366.124 161.647ZM365.313 112.771L402.796 134.412C402.652 134.94 402.646 135.505 402.793 136.049L367.53 156.407C366.553 155.429 365.006 155.186 363.752 155.91C363.51 156.05 363.294 156.216 363.105 156.404L326.42 135.224L365.313 112.771ZM363.939 253.882C364.487 254.311 365.226 254.477 365.942 254.262C366.221 254.178 366.47 254.043 366.685 253.872L401.645 274.056C401.315 274.994 401.3 276.037 401.647 277.013L365.323 297.985L326.434 275.534L363.939 253.882ZM362.297 157.799C362.085 158.576 362.171 159.435 362.605 160.188C363.039 160.938 363.737 161.442 364.514 161.648L364.514 203.325C364.308 203.405 364.116 203.515 363.943 203.651L328.992 183.474C329.41 182.294 329.329 180.947 328.654 179.778C327.979 178.609 326.851 177.865 325.619 177.638L325.619 136.622L362.297 157.799ZM325.626 417.924C325.847 417.84 326.048 417.725 326.225 417.583L364.514 439.688L364.514 484.588L327.84 463.415C328.049 462.64 327.962 461.784 327.529 461.034C327.097 460.285 326.401 459.782 325.626 459.575L325.626 417.924ZM364.512 299.389L364.513 342.655C364.252 342.725 363.997 342.829 363.752 342.971C363.507 343.112 363.289 343.281 363.099 343.472L328.977 323.772C329.623 321.977 329.052 319.899 327.437 318.708C326.882 318.298 326.262 318.037 325.626 317.918L325.626 276.937L364.512 299.389ZM325.627 229.23L363.931 207.115C364.103 207.253 364.297 207.367 364.511 207.45L364.512 250.074C363.529 250.451 362.953 251.467 363.121 252.495L325.626 274.142L325.627 229.23ZM324.812 -4.13085L364.509 18.7881L364.509 63.0283C364.407 63.0684 364.306 63.1145 364.208 63.1709C363.396 63.6399 362.995 64.5454 363.127 65.4199L324.81 87.543L285.115 64.626L285.115 18.7871L324.812 -4.13085ZM324.417 369.771L324.819 370.003L363.105 347.898C363.5 348.292 363.986 348.567 364.509 348.707L364.509 391.985L326.192 414.105C325.646 413.684 324.912 413.521 324.2 413.735C323.924 413.819 323.676 413.953 323.463 414.122L285.122 391.987L285.122 347.085L324.417 369.771ZM363.933 66.8174C364.108 66.9578 364.302 67.0698 364.508 67.1504L364.508 111.377L325.626 133.824L325.626 88.9336L363.933 66.8174ZM322.598 464.81C323.575 465.793 325.126 466.037 326.383 465.312C326.627 465.17 326.844 465 327.034 464.81L363.715 485.987L324.819 508.444L285.92 485.986L322.598 464.81ZM321.444 184.863C322.803 186.464 325.151 186.917 327.033 185.83C327.483 185.57 327.869 185.242 328.188 184.867L363.127 205.039C363.09 205.268 363.092 205.496 363.125 205.717L324.82 227.834L286.507 205.714C286.542 205.484 286.54 205.257 286.506 205.036L321.444 184.863ZM321.457 325.169C321.668 325.413 321.909 325.639 322.18 325.839C324.058 327.224 326.666 326.904 328.163 325.163L362.294 344.868C362.152 345.396 362.147 345.961 362.296 346.505L324.819 368.144L285.921 345.686L321.457 325.169ZM282.936 207.106C283.168 207.292 283.44 207.436 283.746 207.518C284.451 207.707 285.166 207.53 285.697 207.108L324.013 229.23L324.013 274.142L284.718 251.455L284.315 251.223L246.032 273.324C245.636 272.927 245.146 272.651 244.619 272.512L244.619 229.229L282.936 207.106ZM244.618 558.195C245.25 557.947 245.762 557.415 245.951 556.709C246.033 556.403 246.045 556.096 246 555.802L284.315 533.682L324.012 556.6L324.011 599.881C323.751 599.95 323.496 600.054 323.252 600.195C321.997 600.92 321.433 602.381 321.792 603.717L284.315 625.355L244.618 602.438L244.618 558.195ZM285.122 303.285C285.379 303.238 285.635 303.17 285.888 303.075C288.158 302.225 289.317 299.711 288.503 297.437L324.011 276.938L324.011 317.916C322.94 318.112 321.94 318.7 321.243 319.645C320.332 320.88 320.158 322.432 320.641 323.775L285.122 344.281L285.122 303.285ZM285.122 443.604C286.153 443.411 287.12 442.856 287.812 441.962C288.774 440.72 288.971 439.129 288.478 437.752L323.435 417.57C323.608 417.712 323.803 417.826 324.011 417.91L324.011 459.575C323.751 459.645 323.496 459.748 323.252 459.889C321.996 460.614 321.433 462.078 321.794 463.415L285.122 484.588L285.122 443.604ZM285.123 161.635C285.382 161.565 285.636 161.462 285.879 161.321C287.134 160.596 287.697 159.133 287.337 157.797L324.008 136.626L324.009 177.637C323.527 177.726 323.051 177.898 322.603 178.157C320.724 179.242 319.941 181.496 320.642 183.47L285.697 203.645C285.527 203.509 285.334 203.397 285.123 203.315L285.123 161.635ZM284.313 112.771L323.211 135.228L286.534 156.402C285.557 155.418 284.006 155.172 282.748 155.898C282.504 156.04 282.285 156.209 282.095 156.399L245.418 135.226L284.313 112.771ZM284.315 253.082L323.204 275.533L287.691 296.037C286.514 294.67 284.567 294.11 282.779 294.779C282.05 295.053 281.435 295.497 280.964 296.051L246.841 276.35C246.982 275.823 246.986 275.26 246.839 274.718L284.315 253.082ZM284.317 393.383L322.651 415.516C322.618 415.727 322.616 415.945 322.647 416.165L287.668 436.36C287.477 436.139 287.261 435.933 287.02 435.747C285.149 434.299 282.483 434.583 280.956 436.355L246.015 416.182C246.048 415.958 246.048 415.728 246.01 415.497L284.317 393.383ZM244.618 278.563C244.88 278.494 245.137 278.391 245.383 278.249C245.625 278.109 245.841 277.94 246.03 277.751L280.156 297.453C279.821 298.401 279.804 299.467 280.185 300.481C280.748 301.985 282.041 303.001 283.511 303.28L283.511 344.289L244.618 321.834L244.618 278.563ZM244.618 417.921C244.839 417.837 245.039 417.721 245.215 417.579L280.143 437.744C279.506 439.504 280.038 441.547 281.598 442.754C282.178 443.203 282.835 443.484 283.511 443.607L283.511 484.589L246.841 463.418C247.049 462.644 246.962 461.789 246.529 461.04C246.095 460.288 245.396 459.786 244.618 459.58L244.618 417.921ZM283.51 487.386L283.511 532.286L245.195 554.407C245.023 554.269 244.828 554.155 244.613 554.072L244.613 509.843L283.51 487.386ZM281.29 157.795C281.081 158.57 281.168 159.426 281.602 160.176C282.035 160.927 282.733 161.431 283.51 161.637L283.51 203.318C283.304 203.399 283.112 203.511 282.939 203.648L244.618 181.523L244.618 136.624L281.29 157.795ZM244.613 371.137C245.586 370.762 246.158 369.76 246.003 368.741L283.506 347.09L283.506 391.989L245.188 414.109C245.014 413.973 244.82 413.865 244.613 413.786L244.613 371.137ZM207.482 347.17C207.814 346.24 207.839 345.198 207.486 344.204L243.812 323.231L282.711 345.688L245.201 367.345C244.652 366.905 243.905 366.733 243.181 366.95C242.898 367.035 242.645 367.171 242.429 367.345L207.482 347.17ZM241.595 464.813C242.572 465.798 244.125 466.044 245.383 465.317C245.628 465.176 245.845 465.005 246.036 464.813L282.711 485.987L243.815 508.444L206.339 486.809C206.482 486.279 206.487 485.712 206.338 485.167L241.595 464.813ZM204.119 159.078L243.009 136.625L243.008 181.988L243.008 182.453L243.411 182.687L282.13 205.04C282.095 205.267 282.097 205.493 282.13 205.711L243.815 227.833L205.499 205.711C205.657 204.689 205.082 203.689 204.118 203.313L204.119 159.078ZM204.118 441.283C204.75 441.035 205.262 440.503 205.451 439.797C205.533 439.492 205.545 439.185 205.5 438.892L242.428 417.571C242.602 417.713 242.797 417.827 243.005 417.91L243.005 459.582C242.747 459.651 242.494 459.755 242.252 459.895C240.998 460.618 240.434 462.078 240.791 463.413L205.524 483.772C205.129 483.379 204.642 483.104 204.118 482.966L204.118 441.283ZM202.905 580.225L203.308 580.456L242.432 557.867C242.602 558.003 242.794 558.116 243.005 558.198L243.005 602.44L203.309 625.359L163.611 602.44L163.611 557.538L202.905 580.225ZM204.118 301.946C204.377 301.877 204.632 301.774 204.875 301.634C206.13 300.909 206.693 299.447 206.334 298.111L241.602 277.75C241.995 278.145 242.481 278.421 243.003 278.562L243.003 321.837L206.68 342.807C206.015 342.029 205.106 341.512 204.118 341.328L204.118 301.946ZM204.119 350.04C204.407 349.986 204.695 349.904 204.978 349.789C205.657 349.513 206.23 349.087 206.676 348.565L241.627 368.744C241.58 369.057 241.597 369.384 241.693 369.707C241.896 370.383 242.393 370.889 243.002 371.13L243.002 413.8C242.8 413.881 242.617 413.989 242.453 414.118L204.119 391.987L204.119 350.04ZM204.118 489.02C204.38 488.95 204.637 488.846 204.883 488.704C205.125 488.564 205.341 488.396 205.53 488.207L243.002 509.841L243.002 554.075C242.797 554.156 242.605 554.268 242.433 554.405L204.118 532.285L204.118 489.02ZM203.312 393.381L241.641 415.51C241.607 415.723 241.604 415.943 241.636 416.165L204.692 437.493C204.461 437.308 204.189 437.166 203.885 437.084C203.178 436.895 202.461 437.071 201.93 437.495L164.417 415.837L203.312 393.381ZM203.308 533.684L241.621 555.804C241.586 556.031 241.589 556.256 241.623 556.475L203.308 578.597L164.41 556.14L203.308 533.684ZM164.999 275.874C165.035 275.645 165.033 275.418 164.999 275.198L203.308 253.082L240.794 274.724C240.652 275.25 240.648 275.814 240.795 276.356L205.531 296.716C204.554 295.731 203.002 295.485 201.744 296.211C201.5 296.352 201.281 296.521 201.091 296.712L164.999 275.874ZM163.61 277.597C163.819 277.516 164.013 277.405 164.188 277.266L200.286 298.106C200.077 298.882 200.164 299.738 200.598 300.488C201.032 301.24 201.731 301.743 202.509 301.949L202.509 341.327C202.219 341.381 201.93 341.464 201.646 341.579C200.964 341.856 200.388 342.284 199.941 342.809L163.61 321.834L163.61 277.597ZM201.121 438.892C200.965 439.914 201.544 440.914 202.509 441.288L202.509 482.968C202.25 483.037 201.995 483.141 201.752 483.281C201.508 483.422 201.29 483.59 201.101 483.779L166.981 464.081C167.392 462.922 167.322 461.599 166.676 460.441C166.007 459.243 164.863 458.476 163.611 458.244L163.611 417.235L201.121 438.892ZM123.114 162.979C124.608 162.703 125.921 161.668 126.479 160.138C126.845 159.13 126.824 158.076 126.49 157.139L162.812 136.17L202.508 159.088L202.507 203.314C201.873 203.562 201.361 204.095 201.172 204.803C201.089 205.112 201.078 205.424 201.125 205.722L162.812 227.843L123.114 204.926L123.114 162.979ZM201.097 488.2C201.492 488.599 201.981 488.877 202.508 489.018L202.508 532.285L163.61 554.744L163.61 509.843L201.097 488.2ZM163.621 373.424C164.053 373.343 164.48 373.196 164.889 372.979C166.849 371.935 167.704 369.628 166.985 367.596L199.947 348.565C200.611 349.341 201.52 349.856 202.506 350.039L202.506 391.981L163.621 414.432L163.621 373.424ZM159.437 465.477C160.78 467.053 163.09 467.516 164.967 466.469C165.44 466.204 165.846 465.866 166.179 465.476L200.295 485.173C200.152 485.699 200.147 486.262 200.293 486.805L162.812 508.444L123.913 485.986L159.437 465.477ZM162.809 323.233L199.136 344.206C198.807 345.135 198.785 346.176 199.139 347.168L166.18 366.197C164.861 364.645 162.597 364.161 160.726 365.157C160.219 365.427 159.786 365.781 159.436 366.193L123.915 345.688L162.809 323.233ZM123.115 300.973C124.078 300.592 124.637 299.6 124.488 298.595L161.432 277.267C161.601 277.401 161.792 277.513 162.001 277.595L162.001 321.837L123.115 344.288L123.115 300.973ZM162.001 417.243L162.001 458.245C161.539 458.331 161.082 458.491 160.648 458.732C158.733 459.802 157.92 462.082 158.633 464.082L123.115 484.589L123.115 439.693L162.001 417.243ZM158.631 367.591C158.232 368.721 158.289 370.008 158.896 371.149C159.556 372.388 160.72 373.184 162 373.422L162 414.437L123.114 391.986L123.114 347.085L158.631 367.591ZM122.304 393.381L161.202 415.839L122.311 438.293L83.4111 415.834L122.304 393.381ZM122.304 253.08L160.621 275.202C160.586 275.429 160.589 275.656 160.623 275.874L123.693 297.196C123.131 296.742 122.359 296.57 121.62 296.809C120.456 297.184 119.817 298.432 120.192 299.596C120.406 300.258 120.903 300.75 121.506 300.982L121.506 344.295L84.8281 323.118C85.0371 322.343 84.9507 321.488 84.5176 320.737C84.0848 319.988 83.3883 319.485 82.6133 319.278L82.6133 275.995L122.304 253.08ZM82.6191 369.541L121.504 347.091L121.504 391.982L82.6181 414.435L82.6191 369.541ZM121.502 439.688L121.502 484.594L82.6074 462.138L82.6074 417.233L121.502 439.688ZM42.1113 439.689L80.998 417.239L80.998 463.067L81.4004 463.299L120.699 485.989L81.8076 508.444L42.1103 485.525L42.1113 439.689ZM1.61132 275.99L41.3076 253.072L80.998 275.987L80.998 319.278C80.7386 319.348 80.4838 319.451 80.2402 319.592C78.9865 320.316 78.4224 321.775 78.7793 323.11L41.3076 344.745L1.61034 321.826L1.61132 275.99Z" fill="#4BC4D6"/>
</svg>
