<svg width="30" height="32" viewBox="0 0 30 32" fill="none" xmlns="http://www.w3.org/2000/svg">
<path d="M21.4765 7.04575C20.457 6.12647 19.2528 5.43564 17.9446 5.01949C16.6364 4.60335 15.2544 4.4715 13.8911 4.63277C11.8334 4.86779 9.90478 5.75467 8.38702 7.16383C6.86926 8.57299 5.8419 10.4306 5.45505 12.4652C5.06821 14.4998 5.34214 16.6048 6.23683 18.4727C7.13152 20.3405 8.60008 21.8733 10.4279 22.8471V28.5715C10.4282 28.8745 10.5488 29.165 10.763 29.3792C10.9773 29.5935 11.2678 29.714 11.5708 29.7143H12.7137V30.8572C12.714 31.1602 12.8345 31.4507 13.0487 31.665C13.263 31.8792 13.5535 31.9997 13.8565 32H16.1422C16.4452 31.9997 16.7358 31.8792 16.95 31.665C17.1643 31.4507 17.2848 31.1602 17.2851 30.8572V29.7143H18.4279C18.731 29.714 19.0215 29.5935 19.2357 29.3792C19.45 29.165 19.5705 28.8745 19.5708 28.5715V22.8474C20.95 22.1128 22.1314 21.0561 23.0146 19.7671C23.8979 18.4781 24.4568 16.9948 24.6439 15.4435C24.831 13.8921 24.6407 12.3185 24.0893 10.8565C23.5378 9.39442 22.6415 8.08713 21.4765 7.04575ZM18.4279 25.1429V26.2857H11.5708V25.1429H18.4279ZM16.1431 30.8572H13.8565V29.7143H16.1425L16.1431 30.8572ZM16.7137 28.5715H11.5708V27.4286H18.4279V28.5715H16.7137ZM18.7488 21.9841C18.6526 22.031 18.5715 22.104 18.5147 22.1948C18.458 22.2856 18.4279 22.3905 18.4279 22.4975V24H15.5708V21.3795L17.1177 19.8326C17.2218 19.7248 17.2793 19.5805 17.278 19.4307C17.2767 19.2808 17.2166 19.1375 17.1107 19.0316C17.0048 18.9256 16.8614 18.8655 16.7116 18.8642C16.5618 18.8629 16.4174 18.9205 16.3097 19.0246L14.9994 20.3348L13.6891 19.0246C13.5813 18.9205 13.437 18.8629 13.2871 18.8642C13.1373 18.8655 12.994 18.9256 12.8881 19.0316C12.7821 19.1375 12.722 19.2808 12.7207 19.4307C12.7194 19.5805 12.777 19.7248 12.8811 19.8326L14.4279 21.3795V24H11.5708V22.4975C11.5708 22.3905 11.5408 22.2856 11.484 22.1948C11.4273 22.104 11.3462 22.031 11.2499 21.9841C9.58186 21.174 8.22173 19.8444 7.37393 18.1952C6.52612 16.5459 6.23644 14.666 6.54841 12.8381C6.86038 11.0101 7.75714 9.33271 9.10396 8.05798C10.4508 6.78326 12.1749 5.98004 14.0173 5.769C14.3473 5.73214 14.679 5.7136 15.0111 5.71346C17.1175 5.70717 19.1507 6.48568 20.7142 7.89717C21.7623 8.83393 22.5637 10.0143 23.0475 11.3341C23.5314 12.6539 23.6829 14.0726 23.4887 15.4648C23.2944 16.857 22.7604 18.18 21.9338 19.317C21.1071 20.4539 20.0133 21.37 18.7488 21.9841Z" fill="#1D3458"/>
<path d="M14.9992 3.42857C15.1507 3.42857 15.2961 3.36837 15.4032 3.2612C15.5104 3.15404 15.5706 3.0087 15.5706 2.85714V0.571429C15.5706 0.419876 15.5104 0.274531 15.4032 0.167368C15.2961 0.060204 15.1507 0 14.9992 0C14.8476 0 14.7023 0.060204 14.5951 0.167368C14.4879 0.274531 14.4277 0.419876 14.4277 0.571429V2.85714C14.4277 3.0087 14.4879 3.15404 14.5951 3.2612C14.7023 3.36837 14.8476 3.42857 14.9992 3.42857Z" fill="#1D3458"/>
<path d="M6.51443 6.60856C6.56714 6.66314 6.63019 6.70667 6.69991 6.73662C6.76963 6.76656 6.84461 6.78233 6.92048 6.78299C6.99636 6.78365 7.0716 6.76919 7.14183 6.74046C7.21205 6.71172 7.27586 6.66929 7.32951 6.61564C7.38316 6.56199 7.42559 6.49819 7.45432 6.42796C7.48306 6.35773 7.49751 6.28249 7.49685 6.20661C7.4962 6.13074 7.48043 6.05576 7.45048 5.98604C7.42054 5.91633 7.377 5.85327 7.32243 5.80056L5.70608 4.18422C5.65337 4.12964 5.59032 4.08611 5.5206 4.05616C5.45088 4.02621 5.3759 4.01045 5.30003 4.00979C5.22415 4.00913 5.14891 4.02359 5.07868 4.05232C5.00845 4.08105 4.94465 4.12348 4.891 4.17713C4.83735 4.23079 4.79492 4.29459 4.76618 4.36481C4.73745 4.43504 4.723 4.51029 4.72365 4.58616C4.72431 4.66203 4.74008 4.73702 4.77003 4.80673C4.79997 4.87645 4.84351 4.9395 4.89808 4.99222L6.51443 6.60856Z" fill="#1D3458"/>
<path d="M3.57101 13.7142H1.2853C1.13374 13.7142 0.988398 13.7744 0.881235 13.8816C0.774071 13.9888 0.713867 14.1341 0.713867 14.2857C0.713867 14.4372 0.774071 14.5826 0.881235 14.6897C0.988398 14.7969 1.13374 14.8571 1.2853 14.8571H3.57101C3.72256 14.8571 3.86791 14.7969 3.97507 14.6897C4.08223 14.5826 4.14244 14.4372 4.14244 14.2857C4.14244 14.1341 4.08223 13.9888 3.97507 13.8816C3.86791 13.7744 3.72256 13.7142 3.57101 13.7142Z" fill="#1D3458"/>
<path d="M6.51443 21.9629L4.89808 23.5792C4.84351 23.632 4.79997 23.695 4.77003 23.7647C4.74008 23.8344 4.72431 23.9094 4.72365 23.9853C4.723 24.0612 4.73745 24.1364 4.76618 24.2066C4.79492 24.2769 4.83735 24.3407 4.891 24.3943C4.94465 24.448 5.00845 24.4904 5.07868 24.5191C5.14891 24.5479 5.22415 24.5623 5.30003 24.5617C5.3759 24.561 5.45088 24.5452 5.5206 24.5153C5.59032 24.4853 5.65337 24.4418 5.70608 24.3872L7.32243 22.7709C7.42652 22.6631 7.48411 22.5188 7.48281 22.369C7.48151 22.2191 7.42141 22.0758 7.31547 21.9699C7.20952 21.8639 7.0662 21.8038 6.91637 21.8025C6.76654 21.8012 6.6222 21.8588 6.51443 21.9629Z" fill="#1D3458"/>
<path d="M24.2927 4.18422L22.6764 5.80056C22.6218 5.85327 22.5783 5.91633 22.5483 5.98604C22.5184 6.05576 22.5026 6.13074 22.502 6.20661C22.5013 6.28249 22.5158 6.35773 22.5445 6.42796C22.5732 6.49819 22.6157 6.56199 22.6693 6.61564C22.723 6.66929 22.7868 6.71172 22.857 6.74046C22.9272 6.76919 23.0025 6.78365 23.0783 6.78299C23.1542 6.78233 23.2292 6.76656 23.2989 6.73662C23.3686 6.70667 23.4317 6.66314 23.4844 6.60856L25.1007 4.99222C25.1553 4.9395 25.1989 4.87645 25.2288 4.80673C25.2588 4.73702 25.2745 4.66203 25.2752 4.58616C25.2758 4.51029 25.2614 4.43504 25.2326 4.36481C25.2039 4.29459 25.1615 4.23079 25.1078 4.17713C25.0542 4.12348 24.9904 4.08105 24.9201 4.05232C24.8499 4.02359 24.7747 4.00913 24.6988 4.00979C24.6229 4.01045 24.5479 4.02621 24.4782 4.05616C24.4085 4.08611 24.3455 4.12964 24.2927 4.18422Z" fill="#1D3458"/>
<path d="M23.485 21.9629C23.3772 21.8588 23.2329 21.8012 23.0831 21.8025C22.9332 21.8038 22.7899 21.8639 22.684 21.9699C22.578 22.0758 22.5179 22.2191 22.5166 22.369C22.5153 22.5188 22.5729 22.6631 22.677 22.7709L24.2933 24.3872C24.4011 24.4913 24.5455 24.5489 24.6953 24.5476C24.8451 24.5463 24.9884 24.4862 25.0944 24.3803C25.2003 24.2743 25.2604 24.131 25.2617 23.9812C25.263 23.8314 25.2054 23.687 25.1014 23.5792L23.485 21.9629Z" fill="#1D3458"/>
<path d="M28.7136 13.7142H26.4279C26.2763 13.7142 26.131 13.7744 26.0238 13.8816C25.9166 13.9888 25.8564 14.1341 25.8564 14.2857C25.8564 14.4372 25.9166 14.5826 26.0238 14.6897C26.131 14.7969 26.2763 14.8571 26.4279 14.8571H28.7136C28.8651 14.8571 29.0105 14.7969 29.1176 14.6897C29.2248 14.5826 29.285 14.4372 29.285 14.2857C29.285 14.1341 29.2248 13.9888 29.1176 13.8816C29.0105 13.7744 28.8651 13.7142 28.7136 13.7142Z" fill="#1D3458"/>
</svg>
