<svg width="43" height="56" viewBox="0 0 43 56" fill="none" xmlns="http://www.w3.org/2000/svg">
<g clip-path="url(#clip0_1514_3310)">
<path d="M15.2002 33.8064C20.8125 35.0405 21.8888 36.8523 22.0355 39.4606C22.0629 39.9499 21.8168 40.4214 21.3783 40.6463C17.9524 42.4033 15.0999 39.5723 13.561 33.8064L13.2629 33.0664L0 0.822754H0.96864L13.9335 32.8443C14.324 33.3645 14.5745 33.6123 15.2002 33.8064Z" fill="white"/>
<path d="M16.1611 28.2164C20.8068 29.2441 21.7641 30.7446 21.9136 32.8932C21.9474 33.3805 21.7007 33.8552 21.2585 34.0693C18.42 35.4437 16.0603 33.0431 14.7798 28.2164L14.5286 27.5891L3.35254 0.822266H4.16877L15.0937 27.4009C15.4227 27.8419 15.6339 28.0519 16.1611 28.2164Z" fill="white"/>
<path d="M17.0157 23.3123C20.7945 24.1462 21.6474 25.3539 21.8029 27.0712C21.847 27.5583 21.5979 28.0378 21.1478 28.2363C18.8335 29.2568 16.9136 27.2599 15.8636 23.3123L15.6541 22.7904L6.33301 0.822266H7.01377L16.1254 22.6339C16.3999 23.0008 16.5759 23.1754 17.0157 23.3123Z" fill="white"/>
<path d="M17.2723 18.1946C20.7887 18.9685 21.6106 20.0859 21.7689 21.6701C21.8176 22.1575 21.5673 22.6395 21.1136 22.8315C18.9573 23.7442 17.1696 21.8717 16.189 18.1946L15.992 17.7052L9.01562 0.822266H9.65575L16.4352 17.5584C16.6932 17.9024 16.8588 18.0663 17.2723 18.1946Z" fill="white"/>
<path d="M22.3979 23.4048C22.0613 23.3156 21.755 22.966 21.9765 22.6988C22.0301 22.6339 22.1023 22.5706 22.1962 22.5013C22.2441 19.8257 23.1799 19.2613 25.7414 19.1734C26.2506 19.1491 26.4246 18.9689 26.7261 18.635L32.9335 0.822266H33.7707L27.0215 19.1734C25.6234 23.0211 24.5033 23.9623 22.3979 23.4048Z" fill="white"/>
<path d="M22.7754 28.9408C22.2228 28.827 21.8003 28.2396 22.2525 27.9044C22.3036 25.0516 23.2989 24.4498 26.0228 24.356C26.5644 24.33 26.7494 24.1379 27.0702 23.782L35.3963 0.822266H36.2866L27.3844 24.356C25.9672 28.2663 24.8185 29.3614 22.7754 28.9408Z" fill="white"/>
<path d="M22.9125 34.9484C22.3477 34.8169 21.8744 34.2111 22.3146 33.8359C22.3526 33.8036 22.3943 33.7706 22.4402 33.7366C22.5013 30.3071 23.6945 29.5837 26.9608 29.471C27.6102 29.4399 27.8319 29.209 28.2166 28.7809L38.1997 0.822266H39.2671L28.5933 29.471C26.8587 34.2695 25.4596 35.5412 22.9125 34.9484Z" fill="white"/>
<path d="M23.041 41.7054C22.4782 41.5626 21.9758 40.9674 22.3772 40.5504C22.4502 40.4748 22.5406 40.3988 22.6508 40.3174C22.7234 36.2721 24.1396 35.4187 28.0156 35.2857C28.7862 35.249 29.0492 34.9766 29.5058 34.4718L41.3531 0.822266H42.6197L29.9529 35.2857C27.856 41.0516 26.1724 42.5007 23.041 41.7054Z" fill="white"/>
<path fill-rule="evenodd" clip-rule="evenodd" d="M21.6718 8.58987C18.933 8.56757 16.3527 9.26508 14.1035 10.5093L14.4012 11.2101C16.5565 10.0054 19.0343 9.32909 21.666 9.35052C24.1906 9.37107 26.5636 10.0314 28.6387 11.1796L29.0057 10.5173C26.824 9.30744 24.3279 8.61149 21.6718 8.58987Z" fill="white"/>
<path d="M14.8842 38.1748C14.7595 38.1111 14.6358 38.0456 14.5131 37.9785C9.79287 35.3936 6.60029 30.2901 6.64598 24.442C6.66007 22.6382 6.98112 20.9102 7.55811 19.3093L7.14433 18.311C6.35933 20.1936 5.91788 22.2623 5.9009 24.436C5.85291 30.5784 9.20746 35.9389 14.1666 38.652C14.3034 38.7269 14.4415 38.7998 14.5807 38.8707C14.8005 38.9824 15.0233 39.0889 15.2488 39.1903L14.8842 38.1748Z" fill="white"/>
<path d="M7.87012 16.7968L8.27671 17.6338C8.6476 16.8949 9.07593 16.1913 9.55561 15.5289L9.22216 14.7202C8.72091 15.3734 8.26836 16.0675 7.87012 16.7968Z" fill="white"/>
<path d="M10.0654 13.5729L10.4508 14.4087C10.8147 13.9945 11.2005 13.6009 11.6063 13.2298L11.2953 12.4956C10.8413 12.8979 10.4714 13.1203 10.0654 13.5729Z" fill="white"/>
<path d="M12.1641 11.7789L12.5125 12.4637C12.8314 12.2151 13.1604 11.9794 13.4988 11.7574L13.2012 11.0488C12.8456 11.2782 12.4996 11.5218 12.1641 11.7789Z" fill="white"/>
<path d="M30.5945 12.4737L30.8675 11.7312C30.596 11.5253 30.3177 11.3281 30.033 11.1401L29.7607 11.8674C30.0456 12.0599 30.3237 12.2622 30.5945 12.4737Z" fill="white"/>
<path d="M32.7486 14.5289L33.0122 13.6923C32.6474 13.2915 32.2627 12.9098 31.8596 12.5488L31.5723 13.3068C31.9863 13.6914 32.3791 14.0995 32.7486 14.5289Z" fill="white"/>
<path d="M34.8879 17.7774L35.2609 16.8663C34.8837 16.1674 34.4567 15.5003 33.9848 14.8701L33.6719 15.7172C34.128 16.3677 34.5351 17.0563 34.8879 17.7774Z" fill="white"/>
<path d="M36.4492 24.6846C36.4076 29.9926 33.7085 34.6438 29.6508 37.3329C29.5496 37.3999 29.4475 37.466 29.3445 37.5304L28.9854 38.6206C29.2439 38.4777 29.4983 38.3274 29.7478 38.1704C29.8648 38.0967 29.9808 38.0217 30.0957 37.9451C34.334 35.1176 37.1509 30.2467 37.1941 24.6908C37.2107 22.5764 36.8241 20.5547 36.1077 18.7017L35.7023 19.7931C36.1993 21.3306 36.4625 22.9758 36.4492 24.6846Z" fill="white"/>
<path d="M23.3153 43.1272C23.3153 43.7705 23.1104 44.2918 22.6534 44.2918C22.1965 44.2918 21.8261 43.7705 21.8261 43.1272C21.8261 42.4842 21.3692 41.7964 21.8261 41.7964C22.283 41.7964 23.3153 42.4842 23.3153 43.1272Z" fill="white"/>
<path d="M22.2814 46.5715H21.5293C21.5293 45.3238 23.5976 45.3238 23.5976 46.5715C23.5976 46.9359 23.4241 47.0729 23.3156 47.1474V47.2434C23.9737 47.8192 23.7856 49.1629 22.6575 49.1629C21.6233 49.1629 21.5293 48.875 21.5293 47.9152H22.2814V48.779C22.2814 48.971 22.9395 48.971 22.9395 48.779V47.4353C22.8427 47.3184 22.5569 47.3393 22.3754 47.3393V47.0514C22.7515 47.0514 22.9395 46.9554 22.9395 46.5715C22.9395 45.6117 22.2814 45.6117 22.2814 46.5715Z" fill="white"/>
<path fill-rule="evenodd" clip-rule="evenodd" d="M23.7852 47.5553H24.6313V46.0197H23.9732V45.6357H32.2465V46.0197H31.6824V48.8512H32.1524V49.1869H30.4602V48.8512H30.9303V48.3231C30.4602 48.707 29.238 48.611 29.238 47.8432V46.0197H28.7679V48.9376H29.426C30.1781 48.9376 30.1781 50.0507 29.426 50.0507H26.8876V49.7628H28.7679C29.238 49.7628 29.238 49.2829 28.7679 49.2829H27.4517V48.9376H27.9218V47.4593H27.1697V48.5151H26.5116L25.8535 47.7472V47.1714H27.9218V46.0197H25.3834V48.707L25.4774 48.9376H25.9475V49.1869H24.1612V48.9376H24.5373L24.6313 48.707V47.8432H23.7852V47.5553ZM30.0841 46.0197V47.8432C30.0841 48.2271 30.9303 48.3231 30.9303 47.8432V46.0197H30.0841Z" fill="white"/>
<path fill-rule="evenodd" clip-rule="evenodd" d="M11.0938 45.7314H12.974V47.459H14.0082V46.1154H13.8202V45.7314H21.1533V46.0194H19.179V46.4985C21.0593 45.5395 21.4353 48.8987 19.461 48.2269V48.1309C20.5603 48.1714 20.1191 45.8274 19.179 46.8049V48.8987H19.6491V49.1866H18.3329C17.7688 49.1866 17.7688 49.7625 18.3329 49.7625H20.1567V50.0193H17.7688C16.9226 50.0193 16.9226 48.8987 17.7688 48.8987H18.3329V48.5148C16.3586 48.8987 16.5466 45.6355 18.3329 46.4993V46.1154H16.4526V48.8027L16.8286 48.8987V49.1866H15.3244V48.8987L15.5124 48.8027V46.1154H14.7603V48.8027L14.9483 48.8987H15.1364V49.1866H13.7262V48.8987H13.8672L14.0082 48.8027V47.843H12.974V48.9947H12.504L11.3073 47.9389V47.5038H12.1279V46.0194H11.0938V45.7314ZM18.3329 46.6912C17.2987 45.9234 17.3927 48.8987 18.3329 48.0349V46.6912Z" fill="white"/>
<path d="M13.3055 50.9165H11.0938V51.2088L11.7669 51.4037V54.2295L11.1899 54.4245V54.8141H13.4016V54.4245L12.8246 54.2295V51.4037L13.3055 51.2088V50.9165Z" fill="white"/>
<path d="M16.5753 55.0092C18.0176 54.845 18.539 54.5727 19.0756 53.84V53.7425H18.6908C18.2366 54.2577 17.7685 54.4045 16.5753 54.4247C15.3553 54.1936 15.1329 53.84 14.9797 52.9142C14.999 51.6985 15.4871 51.4816 16.5753 51.3065C17.6332 51.368 18.1306 51.5185 18.6908 52.1834H19.0756V50.8194H18.6908L18.4985 51.209C17.8147 50.8572 17.3797 50.8132 16.5753 50.8194C14.9195 50.97 14.0751 51.4039 13.8828 52.9142C13.8828 54.0348 14.5178 54.7963 16.5753 55.0092Z" fill="white"/>
<path fill-rule="evenodd" clip-rule="evenodd" d="M19.3633 54.327H19.9402L21.5749 51.1113H22.7288L24.7482 54.327C25.1722 54.3154 25.229 54.327 25.229 54.8141H22.6327V54.327H23.2096C23.2587 54.007 23.1596 53.7423 22.9212 53.4499H20.998C20.8363 53.7165 20.7447 53.963 20.8057 54.327H21.3827L21.3825 54.8141C21.187 54.8141 21.0074 54.8159 20.8431 54.8176C19.7944 54.828 19.3633 54.8324 19.3633 54.327ZM22.0557 51.7935H21.7672L21.2864 52.7679V52.9627H22.6327V52.7679L22.0557 51.7935Z" fill="white"/>
<path fill-rule="evenodd" clip-rule="evenodd" d="M25.998 51.1113V51.696H26.4788L26.6712 51.9884V54.2294L26.4788 54.4245H25.998V54.8141H28.3059V54.5218L28.0175 54.4245L27.8251 54.2294V53.4499H28.4022L30.4216 55.009C31.6733 55.1274 31.9776 54.9282 32.1524 54.327C31.9424 54.2721 31.7986 54.3199 31.6481 54.37C31.4958 54.4204 31.3366 54.4734 31.0946 54.4245L30.0369 53.4499C31.7677 53.3526 31.4793 51.1113 30.0369 51.1113H25.998ZM29.2677 51.5987H27.729V52.9627H29.2677C30.3253 52.9627 30.3253 51.5987 29.2677 51.5987Z" fill="white"/>
</g>
<defs>
<clipPath id="clip0_1514_3310">
<rect width="42.6826" height="54.3233" fill="white" transform="translate(0 0.718262)"/>
</clipPath>
</defs>
</svg>
