<svg width="50" height="56" viewBox="0 0 50 56" fill="none" xmlns="http://www.w3.org/2000/svg">
<g clip-path="url(#clip0_1514_3336)">
<mask id="mask0_1514_3336" style="mask-type:luminance" maskUnits="userSpaceOnUse" x="0" y="0" width="50" height="56">
<path d="M49.4833 0.718262H0.592773V55.0415H49.4833V0.718262Z" fill="white"/>
</mask>
<g mask="url(#mask0_1514_3336)">
<path d="M6.88992 48.479C6.80992 48.2229 6.5763 47.6472 6.51267 47.2222C6.37223 46.2809 6.86219 45.661 7.31216 45.519C7.81713 45.3775 8.01439 45.6322 8.20983 46.2243C8.46254 47.1259 8.49072 48.3073 8.40573 49.9987C8.29528 52.309 7.14445 55.0991 4.28372 55.0411C1.81434 54.9868 0.721681 53.3804 0.608052 50.9295C0.554419 49.7741 0.636686 48.6191 1.11302 46.9858C1.36573 46.1111 1.59117 45.7998 2.37521 45.6323C2.99153 45.519 2.93608 46.1664 2.79655 46.9296C2.48929 48.6191 2.34658 49.4349 2.4602 51.3517C2.5702 53.3804 3.49787 54.1697 4.5078 54.1697C6.0227 54.1989 6.69539 52.9312 6.97719 51.0979C7.19944 49.6335 7.03173 48.9291 6.88992 48.479ZM39.1897 50.4798C39.7796 50.4798 39.9487 51.1805 39.8078 51.6051C39.6669 52.0269 39.1628 52.508 38.3779 52.6482C38.2088 52.2245 38.1243 50.4798 39.1897 50.4798ZM28.224 51.4348C28.224 50.9578 27.9699 50.5629 27.664 50.5629C27.4086 50.5629 26.8218 50.8436 26.8218 51.7457C26.8218 52.4523 27.0718 52.7874 27.1863 52.9312C27.9976 52.6765 28.224 51.9986 28.224 51.4348ZM19.4982 45.6884C19.4587 45.2365 19.1059 44.9288 18.6287 44.9288C18.0965 44.9288 17.5951 45.4898 17.6483 46.1947C17.6824 46.6594 17.9551 47.0415 18.491 47.0415C19.1059 47.0419 19.5546 46.3375 19.4982 45.6884ZM24.0602 47.3432C24.0115 46.5553 23.8216 46.1997 23.4002 46.2289C22.8416 46.2627 22.5835 48.028 22.6975 49.8836C22.7703 51.0942 22.9498 51.281 23.1171 51.2691C23.4261 51.2504 24.1674 49.0875 24.0602 47.3432ZM42.6685 50.3091C42.3208 51.7575 41.2668 53.8885 39.6942 53.8885C39.3301 53.8885 38.6847 53.7465 38.6847 53.3804C38.6847 52.9855 41.155 52.9312 41.155 51.0422C41.155 50.3387 40.51 49.3513 39.5555 49.3513C38.2933 49.3513 37.0621 50.7332 37.0621 52.6486C37.0621 54.366 38.1243 54.9297 39.1901 54.9297C41.0423 54.9297 42.1645 53.4073 42.7531 52.1405C43.0349 52.986 43.2003 54.9297 43.9043 54.9297C44.1839 54.9297 44.3816 54.7887 44.7184 54.0291C45.5579 52.1401 46.3724 49.9708 47.495 49.9708C47.9145 49.9708 47.6632 50.7332 48.6727 50.7332C49.1486 50.7332 49.484 50.3387 49.484 49.8859C49.484 49.2372 48.8958 48.7319 47.9991 48.7319C45.3615 48.7319 44.8025 52.7048 44.3811 52.7048C43.6794 52.7048 43.9039 49.5207 43.398 49.5207C42.949 49.5202 42.7285 50.0575 42.6685 50.3091ZM20.2281 53.6894C20.6486 53.6894 21.3717 53.5525 21.9408 52.6372C21.6153 51.9114 21.3831 50.4447 21.3508 49.9106C21.1835 47.1793 22.2312 44.6101 23.3779 44.5389C24.2188 44.4878 24.8915 45.2871 24.9688 46.5822C25.1756 49.9854 24.047 51.406 23.482 52.6317C23.5775 53.1069 24.3802 53.9159 25.1374 53.9159C25.4169 53.9159 25.7551 53.7748 25.8401 53.6607C25.7837 53.4648 25.7264 53.2115 25.7264 52.844C25.7264 50.8719 26.9891 49.2089 28.0836 49.2089C28.953 49.2089 29.458 50.3639 29.458 51.1262C29.458 52.0264 28.6999 52.7605 27.5786 53.4648C27.7758 53.6607 28.1385 53.8031 28.4485 53.8031C30.0489 53.8031 30.8861 51.8584 31.5061 50.0827C31.6179 49.7439 31.8156 49.266 32.2074 49.266C32.8805 49.266 33.1623 53.7177 34.2813 53.7177C34.7599 53.7177 35.1517 52.7308 35.1517 51.9721C35.1517 51.4079 34.9554 51.3513 34.9554 50.5341C34.9554 49.6335 35.4326 48.8734 36.0794 48.8734C36.4716 48.8734 36.6135 49.266 36.6135 49.7439C36.6135 51.5476 35.3213 54.901 33.4164 54.901C31.9833 54.901 32.0951 52.4213 31.5906 52.4213C31.027 52.4213 30.2416 54.9288 27.4672 54.9288C27.0163 54.9288 26.5405 54.7038 26.1487 54.2518C25.4764 54.7038 24.9138 54.901 24.2683 54.901C23.2316 54.901 22.7816 53.83 22.3621 53.83C21.8562 53.83 21.2967 54.9288 19.6118 54.9288C18.2655 54.9288 18.041 53.1275 17.5651 53.1275C17.1433 53.1275 16.4984 54.9288 15.7975 54.9288C14.6176 54.9288 14.3676 51.8023 13.3277 51.8023C12.5146 51.8023 9.94427 54.9777 9.24658 54.9051C8.96615 54.8759 8.84797 54.6654 8.87752 54.3833C8.91706 53.9935 9.25113 52.9499 9.38658 52.4564C9.61338 51.5996 9.82155 50.6606 9.9379 50.3611C10.0534 50.0589 10.3647 49.8434 10.6147 49.8667C10.7406 49.8786 10.7783 50.1146 10.8174 50.3095C10.9592 51.0061 11.1569 51.7165 11.3801 51.7165C11.7741 51.7165 13.0754 49.2085 13.8327 49.2085C14.7599 49.2085 14.8708 53.154 16.1325 53.154C16.5543 53.154 16.8638 52.6477 17.1433 52.026C17.172 50.9819 17.4524 49.4919 18.2937 49.4919C18.8832 49.4919 19.1641 50.8149 18.7419 51.9716C18.741 53.3512 19.6377 53.6894 20.2281 53.6894Z" fill="white"/>
</g>
<path d="M39.7666 9.50759C39.5584 9.50759 39.2602 9.50759 39.0962 9.17936C38.9616 8.91003 39.0071 8.4759 38.7539 8.28189C39.0071 8.3563 39.2748 8.3563 39.483 8.3563C40.1538 8.3563 40.7947 7.89295 41.2865 7.89295C41.6105 7.89295 41.7151 8.10249 41.7151 8.31111C41.7155 8.96983 40.3929 9.50759 39.7666 9.50759ZM40.0938 11.1971C41.6405 11.1971 43.0568 9.95632 43.0568 8.86529C43.0568 8.3563 42.8177 7.93815 42.2073 7.86328C42.3114 7.99795 42.3559 8.10249 42.3559 8.34169C42.3559 9.1643 41.1083 10.0764 39.752 10.0764C39.2602 10.0764 39.1112 10.4197 39.1112 10.5991C39.1112 11.0181 39.5139 11.1971 40.0938 11.1971ZM39.9752 11.8252C40.1693 13.2449 42.3114 15.159 42.8918 15.1138C43.28 15.081 43.4286 13.26 43.4286 11.8252C43.4286 11.0031 43.4736 10.3599 43.0414 10.2101C42.3555 11.6011 40.5565 11.885 39.9752 11.8252Z" fill="white"/>
<path d="M6.47062 21.2289C6.97604 21.2289 6.87196 18.1188 7.69054 18.1188C7.88462 18.1188 7.94416 18.3132 7.94416 18.5524C7.94416 19.255 7.60146 20.2871 7.60146 20.8546C7.60146 21.1389 7.676 21.2289 7.81008 21.2289C8.16779 21.2289 8.79275 17.8047 9.40271 17.8047C9.59633 17.8047 9.68542 17.9992 9.68542 18.1936C9.68542 18.9112 8.7782 20.9742 8.7782 21.5571C8.7782 21.647 8.80729 21.7214 8.88229 21.7214C9.25453 21.7214 9.99858 20.1073 10.2363 19.3002C10.3704 18.8811 10.549 18.6565 10.7131 18.6565C10.8617 18.6565 10.9962 18.8213 10.9962 19.1655C10.9962 19.9726 10.2513 21.8712 9.59633 23.1425C9.09091 24.129 8.30187 25.5483 8.30187 26.3407C8.30187 26.7447 8.37504 27.1629 8.95592 27.6714C8.00325 27.6116 7.61646 27.5222 7.25966 26.7749C5.66658 29.9589 10.1917 29.6453 8.64366 32.4697C8.3605 31.9625 6.12837 31.4389 6.12837 28.479C6.12837 25.9226 8.3605 24.4276 8.3605 23.3667C8.3605 23.1576 8.28687 22.9782 8.09325 22.8138C7.60146 22.3943 7.58646 22.0515 7.19967 22.0515C6.91741 22.0515 6.5738 22.7088 6.9315 23.2918C7.05104 23.4863 7.15512 23.6059 7.15512 23.7853C7.15512 24.2034 6.49971 25.3241 6.03883 25.3241C5.57704 25.3241 5.2207 24.1747 5.2207 22.3199C5.2207 20.6747 5.59204 19.0162 6.05383 19.0162C6.18746 19.0162 6.232 19.1057 6.232 19.2258C6.232 19.4202 6.17291 19.8083 6.17291 20.4661C6.17291 21.1686 6.33654 21.2289 6.47062 21.2289Z" fill="white"/>
<path d="M10.2654 25.6085C10.8913 25.6085 11.4117 25.1442 11.4117 24.1143V22.5887C11.4117 22.0058 11.4567 21.3484 11.844 20.8842C11.799 21.0791 11.799 21.2882 11.799 21.4826C11.799 22.7686 12.513 23.651 12.513 24.8913C12.513 25.3542 12.3789 25.6089 12.0226 25.6089C11.6799 25.6089 11.7099 25.2948 11.6349 25.2948C11.5758 25.2948 11.4863 25.4889 11.4863 25.6984C11.4863 26.0125 11.7094 26.5055 12.3344 26.5055C12.8707 26.5055 13.3016 26.0125 13.3016 25.4592C13.3016 24.1148 12.2598 22.6189 12.2598 21.1841C12.2598 20.5559 12.4235 20.1378 12.5576 19.8082C12.5576 22.7836 15.0728 24.9511 15.0728 26.1914C15.0728 26.4758 14.8647 26.7004 14.552 26.7004C14.2097 26.7004 14.0456 26.4306 14.0456 26.2211C14.0456 26.1165 14.0306 26.0869 13.9861 26.0869C13.8975 26.0869 13.6293 26.3859 13.6293 26.7753C13.6293 27.2678 14.0306 27.8668 14.7751 27.8668C15.6228 27.8668 16.0846 27.1482 16.0846 26.5055C16.0846 24.9365 13.0334 22.5591 13.0334 20.0182C13.0334 19.5841 13.1071 18.8815 13.4207 18.3438C11.4558 19.6137 10.8458 21.3037 10.8458 22.7836C10.8458 24.0696 10.8013 24.7114 10.1463 24.7114C9.80364 24.7114 9.71456 24.3983 9.59502 24.3983C9.50593 24.3983 9.46094 24.6672 9.46094 24.7416C9.46185 25.2944 9.86409 25.6085 10.2654 25.6085Z" fill="white"/>
<path d="M32.8161 8.7754C33.0052 8.64804 33.8442 8.84981 34.9291 8.31114C35.0628 8.23765 35.1969 8.20752 35.3159 8.20752C35.8377 8.20752 35.7036 8.80508 36.1804 8.80508C36.5518 8.80508 37.0295 8.491 37.3126 8.491C37.7562 8.491 38.3967 9.89656 38.3967 10.5544C38.3967 11.3167 37.2526 11.7805 35.8973 11.7805C33.9188 11.7805 32.7266 10.0463 32.7266 8.92468C32.727 8.8352 32.772 8.80508 32.8161 8.7754ZM36.0614 10.674C36.7168 10.674 37.2081 10.375 37.2081 10.1951C37.2081 10.1362 37.119 10.091 36.9249 10.091C36.7313 10.091 36.3441 10.0764 35.6141 9.95636C34.9878 9.85182 34.5114 9.61262 34.3328 9.61262C34.2733 9.61262 34.2433 9.64229 34.2433 9.68703C34.2433 10.0764 34.9587 10.674 36.0614 10.674Z" fill="white"/>
<path d="M10.5792 31.2443C10.0883 31.3644 9.29883 32.1404 9.29883 33.3679C9.29883 34.8319 10.8619 37.0902 13.4367 37.0902C15.6093 37.0902 16.1457 35.5801 16.1457 34.5626C16.1457 32.3057 14.7621 30.7207 12.9613 30.7207C11.9787 30.7207 11.1001 31.4383 11.1001 32.4992C11.1001 33.4871 11.8446 34.9666 13.6154 34.9666C14.449 34.9666 14.9398 34.3677 14.9398 33.682C14.9398 33.0087 14.3299 32.0824 13.4363 32.0824C13.1686 32.0824 12.9754 32.26 12.9754 32.5453C12.9754 32.9032 13.4658 33.2629 14.0767 33.2629C14.2249 33.2629 14.3444 33.2328 14.4044 33.2027C14.4335 33.2488 14.449 33.3227 14.449 33.3825C14.449 33.7267 14.1212 33.9363 13.6154 33.9363C12.8563 33.9363 12.1268 33.3684 12.1268 32.4695C12.1268 31.9327 12.5886 31.5442 13.2581 31.5442C14.5826 31.5442 15.3712 32.7247 15.3712 33.9066C15.3712 34.967 14.7917 35.581 13.6004 35.581C11.2187 35.5806 10.0588 33.4273 10.5792 31.2443Z" fill="white"/>
<path d="M27.5695 40.0034C28.2836 40.0034 28.2463 39.9436 28.4699 39.9436C28.6926 39.9436 28.7081 40.0783 28.7081 40.1682C28.7081 40.4973 27.9781 40.9009 26.6832 40.9009C25.9242 40.9009 25.4624 40.4969 25.3288 40.0486C24.5847 40.527 23.4539 40.9607 22.3371 40.9607C19.2864 40.9607 18.5124 39.6291 17.5593 39.1968C16.8298 38.8676 15.7135 39.5108 14.1504 37.7615C14.359 37.8067 14.6422 37.8213 14.8653 37.8213C16.2339 37.8213 16.9634 37.1498 16.9634 36.0725C16.9634 35.9374 16.9484 35.7895 16.9334 35.6553C17.3506 35.8196 18.3038 36.5363 18.5274 37.8067C18.5565 37.9565 19.1664 38.0907 19.5537 38.0907C20.09 38.0907 20.7745 37.8661 20.8786 36.985C22.6648 36.8358 23.8711 35.7749 24.1243 34.4277C24.7633 34.6373 25.4928 35.2202 25.6715 35.5201C25.9246 35.4307 26.2219 35.3855 26.5641 35.3855C27.0405 35.3855 27.5768 35.4754 28.2163 35.6699C28.2463 35.4754 28.2758 35.2362 28.574 35.2362C29.0203 35.2362 28.9013 35.7297 29.0503 36.0122C29.1249 36.162 29.4976 36.2514 29.4976 36.5509C29.4976 36.8358 29.2581 36.9408 29.1094 36.9408C29.0499 36.9408 28.9753 36.9257 28.9303 36.9111C28.6331 37.0156 28.6176 39.1671 27.3677 39.1671C26.4455 39.1671 25.5969 38.4047 25.2242 37.4488C25.1201 37.1649 24.897 36.985 24.6883 36.985C24.4506 36.985 24.3166 37.0302 24.0343 37.3443C23.2307 38.2253 21.8908 38.9877 20.2386 38.9877C19.7323 38.9877 19.3305 38.942 19.226 38.942C19.166 38.942 19.166 38.9571 19.166 38.9717C19.166 39.0767 19.6719 39.4807 20.7736 39.4807C23.3934 39.4807 24.0338 38.0003 24.4502 38.0003C24.5106 38.0003 24.6879 38.0003 24.792 38.2399C25.4033 39.6743 26.7359 40.0034 27.5695 40.0034ZM26.4155 37.0156C26.4155 37.3448 26.6837 37.6141 27.0114 37.6141C27.3391 37.6141 27.6068 37.3448 27.6068 37.0156C27.6068 36.686 27.3391 36.4167 27.0114 36.4167C26.6837 36.4167 26.4155 36.686 26.4155 37.0156Z" fill="white"/>
<path d="M38.204 29.5549C37.9954 29.5549 37.7722 29.7197 37.7722 30.1241C37.7722 30.571 38.1149 30.8559 38.3081 30.9449C38.4126 31.0056 38.5767 31.0654 38.739 31.0654C39.1712 31.0654 39.5144 30.9449 39.5144 30.5856C39.5139 30.1241 38.8431 29.5549 38.204 29.5549ZM36.5982 30.4811C36.2855 30.4811 34.5565 32.7983 33.4425 32.7983C33.1748 32.7983 32.9512 32.2902 32.9512 31.9031C32.9512 31.6936 33.0848 31.5438 33.5625 31.4384C36.1219 30.8554 35.5555 28.9263 37.7418 28.9263C38.9471 28.9263 40.2889 29.7498 40.2889 31.6027C40.2889 33.5762 37.4922 36.0271 37.075 36.0271C36.7323 36.0271 36.36 35.5341 36.36 35.2054C36.36 35.1009 36.405 34.9662 36.7027 34.8466C38.1299 34.2778 38.9476 32.9626 38.9476 32.2893C38.9476 32.1396 38.8735 31.9917 38.6799 31.9917C38.4272 31.9917 37.3436 34.4723 36.1364 34.4723C35.3015 34.4723 34.4524 33.7117 34.4524 33.352C34.4524 32.7531 36.8664 31.6479 36.8664 30.8098C36.8659 30.4953 36.7173 30.4811 36.5982 30.4811Z" fill="white"/>
<path d="M7.14044 10.8835C7.14044 10.8835 6.7091 11.2118 6.17323 11.2118C5.53372 11.2118 5.02739 10.7338 5.02739 10.0609C5.02739 9.59713 5.26556 9.11918 5.81598 8.87952C5.80143 8.96945 5.80143 9.04386 5.80143 9.13379C5.80098 9.98653 6.27731 10.6288 7.14044 10.8835ZM10.3257 13.754C9.99843 14.142 9.65573 14.8003 9.65573 15.4727C9.65573 16.2798 10.1475 16.9522 10.9066 16.9522C11.6356 16.9522 11.9783 16.3245 11.9783 15.6823C11.9783 14.6807 11.0702 13.9772 10.3257 13.754ZM5.38464 14.3516C5.35646 14.3977 5.33964 14.4566 5.33964 14.5164C5.33964 14.651 5.48872 14.8003 5.6219 14.8003C5.74098 14.8003 5.81552 14.7706 5.87506 14.7706C6.23186 14.7706 6.6341 15.0244 7.21452 15.0244C7.55632 15.0244 7.95856 14.9194 8.46444 14.6661C9.53619 14.1274 9.95344 12.7972 9.95344 12.5726C9.95344 12.2882 9.72618 12.3256 9.53619 12.064C9.3462 11.8034 9.41892 11.5729 9.29802 11.451C9.22939 11.3811 9.01577 11.3766 8.74715 11.3464C8.65761 11.3368 8.53853 11.3314 8.41944 11.3314C7.92902 11.3314 7.34679 11.3921 6.69319 11.8102C5.40237 12.6379 5.59235 14.0078 5.38464 14.3516ZM8.88214 12.4977C8.98532 12.6388 9.26984 12.8122 9.26984 12.9168C9.26984 13.1254 9.14985 13.3952 8.91214 13.3952C8.39081 13.3952 7.97447 12.6027 7.97447 12.1535C7.97447 11.87 8.13855 11.8404 8.36127 11.8404C8.46535 11.8404 8.51035 11.8554 8.58443 11.9002C8.71806 11.975 8.71806 12.2736 8.88214 12.4977ZM7.51223 14.3219C7.02135 14.3219 6.48548 13.7093 6.48548 13.1555C6.48548 12.857 6.70865 12.4827 6.87227 12.4827C6.93181 12.4827 6.96181 12.5279 6.97636 12.6328C7.06544 13.3651 7.54223 13.7841 7.98902 13.9928C8.03356 14.0224 8.06356 14.0375 8.06356 14.0672C8.06356 14.1722 7.78039 14.3219 7.51223 14.3219ZM8.77806 10.5544C8.85214 10.3147 8.91168 10.0167 8.91168 9.68706C8.91168 8.9699 8.58352 7.87842 7.57177 7.87842C6.99181 7.87842 6.57411 8.34176 6.57411 8.89504C6.57411 10.0765 7.7504 10.5544 8.77806 10.5544ZM4.92285 16.5341C4.92285 17.6698 5.26556 18.2085 5.87552 18.2085C6.35185 18.2085 6.99181 17.8643 7.7504 17.2065C7.17043 17.3412 6.72319 17.4311 6.32185 17.4311C5.78598 17.4311 5.36964 17.2216 4.92285 16.5341ZM5.44418 15.2034C5.42964 15.2787 5.42964 15.3531 5.42964 15.4275C5.42964 16.1301 5.80098 16.519 6.29231 16.519C6.66319 16.519 7.09589 16.2949 7.48178 15.8009C7.31906 15.8306 7.12498 15.8457 6.94636 15.8457C6.39639 15.8457 5.80098 15.6969 5.44418 15.2034ZM9.09076 14.9943C8.7476 15.0838 8.03356 15.5024 8.03356 16.2497C8.03356 16.7874 8.4499 17.1321 8.97123 17.1321C9.23939 17.1321 9.43256 17.0718 9.55164 16.9824C9.13531 16.5788 8.98623 16.1301 8.98623 15.6823C8.98623 15.3677 9.03077 15.1737 9.09076 14.9943ZM9.62618 10.8982C9.62618 11.2268 9.89389 11.4966 10.2211 11.4966C10.5489 11.4966 10.817 11.2273 10.817 10.8982C10.817 10.5695 10.5489 10.2997 10.2211 10.2997C9.89389 10.2997 9.62618 10.5695 9.62618 10.8982ZM10.3998 12.2435C10.3998 12.5726 10.6684 12.8419 10.9966 12.8419C11.3233 12.8419 11.5915 12.5726 11.5915 12.2435C11.5915 11.9152 11.3233 11.6459 10.9966 11.6459C10.6679 11.6459 10.3998 11.9152 10.3998 12.2435Z" fill="white"/>
<path d="M33.6211 19.5834C33.6211 19.2849 33.8893 19.0306 34.1833 19.0306C34.5115 19.0306 34.7647 19.2849 34.7647 19.5834C34.7647 19.9272 34.511 20.1668 34.1833 20.1668C33.8893 20.1668 33.6211 19.9272 33.6211 19.5834ZM28.3951 14.9792C28.3951 15.3079 28.6637 15.5772 28.99 15.5772C29.3186 15.5772 29.5868 15.3079 29.5868 14.9792C29.5868 14.651 29.3182 14.3816 28.99 14.3816C28.6637 14.3816 28.3951 14.651 28.3951 14.9792ZM27.8896 17.0868C27.8896 17.5506 28.2755 17.9387 28.7378 17.9387C29.1987 17.9387 29.5868 17.5506 29.5868 17.0868C29.5868 16.6239 29.1987 16.2346 28.7378 16.2346C28.2755 16.2346 27.8896 16.6239 27.8896 17.0868ZM29.7654 16.13C29.7654 16.639 30.1677 17.0421 30.6708 17.0421C31.1767 17.0421 31.5803 16.639 31.5803 16.13C31.5803 15.6219 31.1767 15.2184 30.6708 15.2184C30.1677 15.2184 29.7654 15.6219 29.7654 16.13ZM29.8404 14.1867C29.8404 14.5012 30.0936 14.756 30.4031 14.756C30.7158 14.756 30.969 14.5012 30.969 14.1867C30.969 13.8735 30.7154 13.6193 30.4031 13.6193C30.0936 13.6193 29.8404 13.8735 29.8404 14.1867ZM32.5334 12.7524C32.5334 13.0655 32.7866 13.3198 33.0998 13.3198C33.4125 13.3198 33.6661 13.0655 33.6661 12.7524C33.6661 12.4379 33.4125 12.1836 33.0998 12.1836C32.7866 12.1836 32.5334 12.4379 32.5334 12.7524ZM31.4162 14.5912C31.4162 15.1139 31.848 15.5471 32.3694 15.5471C32.8911 15.5471 33.3234 15.1139 33.3234 14.5912C33.3234 14.0671 32.8916 13.6343 32.3694 13.6343C31.848 13.6343 31.4162 14.0671 31.4162 14.5912ZM29.8845 18.0889C29.8845 18.418 30.1527 18.6864 30.4777 18.6864C30.8054 18.6864 31.074 18.418 31.074 18.0889C31.074 17.7597 30.8054 17.4908 30.4777 17.4908C30.1527 17.4908 29.8845 17.7597 29.8845 18.0889ZM31.8335 16.8924C31.8335 17.2215 32.1012 17.4908 32.4298 17.4908C32.7571 17.4908 33.0252 17.2215 33.0252 16.8924C33.0252 16.5641 32.7571 16.2948 32.4298 16.2948C32.1012 16.2948 31.8335 16.5641 31.8335 16.8924ZM31.2826 19.0005C31.2826 19.5684 31.7439 20.0322 32.3103 20.0322C32.8761 20.0322 33.3388 19.5684 33.3388 19.0005C33.3388 18.4326 32.8761 17.9688 32.3103 17.9688C31.7439 17.9688 31.2826 18.4326 31.2826 19.0005ZM33.427 17.7291C33.427 18.1185 33.7402 18.4326 34.1247 18.4326C34.512 18.4326 34.8247 18.1185 34.8247 17.7291C34.8247 17.3411 34.512 17.027 34.1247 17.027C33.7402 17.027 33.427 17.3411 33.427 17.7291ZM33.3825 15.8456C33.3825 16.1903 33.6661 16.4742 34.0047 16.4742C34.3479 16.4742 34.631 16.1903 34.631 15.8456C34.631 15.5023 34.3479 15.2184 34.0047 15.2184C33.6661 15.2184 33.3825 15.5023 33.3825 15.8456Z" fill="white"/>
<path d="M34.8993 35.4608C34.5121 35.7602 33.6067 36.4318 32.1018 36.4318C31.2978 36.4318 30.94 36.1775 30.821 36.1775C30.6719 36.1775 30.5083 36.3268 30.3442 36.5217C29.9906 36.9407 29.5283 37.7182 29.5283 38.5695C29.5283 39.1671 29.9906 39.7642 30.8505 39.7642C33.6367 39.7642 35.7188 38.0158 35.7188 36.5966C35.7188 35.7899 35.2425 35.4608 34.8993 35.4608ZM34.1253 35.2964C34.2457 35.1933 34.2739 35.0276 34.2739 34.8623V34.5186C34.2739 34.0844 33.6217 33.8315 32.7277 33.8315C31.64 33.8315 31.0591 34.3236 31.0591 34.5336V35.2211C31.0591 35.506 31.715 35.7899 32.5195 35.7899C33.1599 35.7899 33.7408 35.6256 34.1253 35.2964ZM34.0053 36.7764C34.0803 36.7764 34.1689 36.8207 34.1689 37.0905C34.1689 37.4187 34.0208 37.8519 33.4872 38.1952C33.1149 38.4504 32.6081 38.6599 31.8636 38.6732C31.9827 38.3157 32.0722 37.9409 32.0722 37.584C32.0722 37.4639 32.0577 37.374 32.0427 37.2398H32.2363C33.4131 37.2402 33.9199 36.7764 34.0053 36.7764Z" fill="white"/>
<path d="M28.3207 18.5078C28.4843 19.7778 30.1828 19.135 30.1828 20.6744C30.1828 20.8989 30.1233 21.2285 30.1233 21.512C30.1233 21.8412 30.1524 22.1251 30.4033 22.1251C30.656 22.1251 30.716 21.9462 30.716 21.7065C30.716 21.4668 30.656 21.1683 30.656 21.0039C30.656 20.4803 31.0287 20.3612 31.2527 20.3612C31.8186 20.3612 32.2504 20.9441 33.0999 20.9441C32.9058 21.901 30.9396 21.6467 30.9396 22.6934C30.9396 23.217 31.4609 23.3357 31.8036 23.3357C32.1163 23.3357 32.2209 23.291 32.2209 23.0226C32.2209 22.8724 32.1909 22.7081 32.1909 22.6035C32.1909 22.5433 32.2359 22.4835 32.3104 22.4835C32.639 22.4835 34.2435 23.7096 34.2435 24.0839C34.2435 24.4272 32.5486 24.771 32.0572 24.771C31.9082 24.771 31.8782 24.6664 31.8782 24.6066C31.8782 24.5021 32.1313 24.188 32.1313 24.0091C32.1313 23.8744 31.9082 23.7845 31.3118 23.7845C31.0287 23.7845 30.82 23.8146 30.82 24.0392C30.82 24.4418 31.4755 24.9358 31.4755 25.3087C31.4755 25.6082 31.2968 25.7876 30.82 25.7876C30.4178 25.7876 29.8097 25.4731 29.8097 24.9504C29.8097 24.5318 30.2392 24.1141 30.2392 23.8593C30.2392 23.7845 30.1824 23.6649 30.0037 23.6649C29.4519 23.6649 29.3033 25.1293 27.3525 25.2941C27.6652 25.0102 27.9325 24.6961 27.9325 24.0543C27.9325 23.7402 27.8589 23.4855 27.8589 23.1422C27.8589 22.6934 28.0666 22.4688 28.3643 22.4688C28.9147 22.4688 29.1829 23.2458 29.5415 23.2458C29.7356 23.2458 29.9437 23.0673 29.9437 22.798C29.9437 21.6618 27.7698 21.8261 27.7698 20.2265C27.7702 19.7929 27.9184 19.2546 28.3207 18.5078ZM35.4202 22.8879C35.4202 23.2609 35.5402 23.6945 35.9124 23.6945C36.2251 23.6945 36.4929 23.217 36.4929 22.6934C36.4929 22.0954 36.3888 21.6316 36.3888 21.392C36.3888 21.2879 36.4338 21.2431 36.4929 21.2431C36.7165 21.2582 36.9246 21.8708 37.1637 21.8708C37.4319 21.8708 37.8314 21.3769 37.9946 21.3769C38.0396 21.3769 38.0541 21.4372 38.0541 21.4518C38.0541 21.6764 37.7114 22.1703 37.7114 22.3643C37.7114 22.5286 38.5755 22.5583 38.5755 22.7081C38.5755 22.9326 37.6696 22.9326 37.2383 23.1271C36.8215 23.3061 36.5669 23.5302 36.5669 23.8297C36.5669 24.1287 36.8651 24.188 37.2824 24.188C38.2768 24.188 38.9768 23.6503 39.2 23.6503C39.2445 23.6503 39.274 23.6795 39.274 23.7247C39.274 23.8744 38.7682 24.3674 38.7682 24.592C38.7682 24.8458 39.6917 25.1439 39.6767 25.2941C39.6622 25.3388 39.6022 25.3535 39.4981 25.3535C39.3336 25.3535 39.0809 25.3087 38.8868 25.3087C38.7677 25.3087 38.6636 25.3233 38.6182 25.3831C38.515 25.5032 38.6482 26.2957 38.4409 26.2957C38.2468 26.2957 37.7405 24.5318 36.5969 24.5318C36.4329 24.5318 36.3138 24.6664 36.3138 24.8906C36.3138 25.4881 36.8947 26.1756 37.446 26.5047C37.6955 26.6695 38.1132 26.8339 38.1132 26.9243C38.1132 27.1028 37.1628 26.9389 37.1628 27.2374C37.1628 27.5068 37.2819 27.9112 37.2819 28.1495C37.2819 28.2244 37.2669 28.3134 37.1778 28.3134C36.9992 28.3134 36.5665 27.4917 36.3583 27.4917C36.1797 27.4917 35.7924 27.9847 35.6284 27.9847C35.5838 27.9847 35.5543 27.94 35.5543 27.8957C35.5543 27.5515 36.1056 26.7745 36.1056 26.0117C36.1056 25.6529 36.0606 24.8755 35.6284 24.8755C35.2711 24.8755 34.8684 25.4434 34.6898 26.0117C34.5862 26.3404 34.6602 27.6113 34.4216 27.6113C34.1985 27.6113 34.258 26.7595 33.9594 26.7595C33.7399 26.7595 33.2631 27.1626 33.099 27.1626C33.069 27.1626 33.039 27.1475 33.039 27.1178C33.039 26.9389 33.4712 26.3555 33.4712 26.2359C33.4712 26.0117 32.4881 25.9821 32.4881 25.8027C32.4881 25.6977 32.8754 25.6232 33.2326 25.563C33.9898 25.4283 35.1066 24.8755 35.1066 24.0985C35.1066 23.2317 34.2725 22.8573 33.7244 22.4985C33.4412 22.3191 33.1285 22.1703 33.1285 22.0507C33.1285 21.9306 33.4858 21.9306 33.6349 21.9306C33.858 21.9306 34.0789 21.9156 34.0789 21.7366C34.0789 21.6015 34.0489 21.3331 34.0489 21.1235C34.0489 20.9738 34.0635 20.8542 34.1239 20.8542C34.3471 20.8542 34.6598 21.5864 34.8093 21.5864C35.047 21.5864 35.3747 20.9884 35.5988 20.9884C35.6725 20.9884 35.7029 21.0336 35.7029 21.1678C35.7038 21.7211 35.4202 22.3488 35.4202 22.8879Z" fill="white"/>
<path d="M28.7533 27.0279C29.4387 27.1179 29.6028 27.3566 29.6028 27.5515C29.6028 27.8807 29.3046 27.9847 29.021 27.9847C28.8133 27.9847 28.5747 27.94 28.3215 27.94C27.9933 27.94 27.6666 28.0149 27.3988 28.3289C27.592 28.3586 27.8752 28.4937 27.8752 28.7932C27.8752 29.6601 25.479 28.9416 25.479 31.1702C25.479 32.3507 26.6998 33.6371 28.5447 33.6371C29.4987 33.6371 30.1091 33.323 30.1091 32.9633C30.1091 32.6798 29.6032 32.8734 29.6032 32.6342C29.6032 32.5296 29.7819 32.3347 29.7819 32.1695C29.7819 32.0973 29.7223 31.9618 29.6032 31.9618C29.3342 31.9618 28.8278 32.3941 27.8006 32.3941C26.9966 32.3941 26.2076 31.9321 26.2076 31.3035C26.2076 31.1693 26.2675 31.094 26.3566 31.094C26.4462 31.094 26.5648 31.1542 26.6693 31.1542C26.7589 31.1542 26.7734 31.094 26.7734 30.9301C26.7734 30.7653 26.7734 30.3015 27.0557 30.3015C27.3393 30.3015 27.8752 31.3482 29.9305 31.3482C30.6127 31.3482 31.9385 31.2145 32.4303 30.7653C32.4153 32.41 31.1336 34.5775 28.4556 34.5775C25.6721 34.5775 24.1836 32.3347 24.1836 30.2713C24.1836 27.9847 26.0435 25.9072 28.5897 25.9072C29.2437 25.9072 29.796 26.1309 29.796 26.4153C29.7955 26.8047 28.8274 26.565 28.7533 27.0279ZM33.3235 27.8213C33.4275 27.9847 33.4725 28.1495 33.4725 28.2988C33.4725 28.7179 33.1894 29.1064 33.1894 29.5405C33.1894 30.0335 33.5621 30.4366 34.1252 30.4366C34.7356 30.4366 35.1529 29.9445 35.1529 29.3606C35.1529 28.5682 34.4379 27.8957 33.3235 27.8213ZM28.3956 28.7777C28.5438 28.9265 28.5892 29.0762 28.5892 29.226C28.5892 29.4501 28.4851 29.6898 28.4851 29.944C28.4851 30.3015 28.7533 30.616 29.1396 30.616C29.5573 30.616 29.841 30.2864 29.841 29.8993C29.841 29.331 29.2583 28.7777 28.3956 28.7777ZM30.3741 26.2359C31.9381 26.5349 32.7871 27.7163 32.7871 28.8229C32.7871 29.5857 32.3108 30.2869 31.4763 30.2869C30.7164 30.2869 30.1682 29.7642 30.1682 28.927C30.1682 28.2993 30.6564 27.6415 30.6564 26.9983C30.6564 26.7444 30.5823 26.4902 30.3741 26.2359ZM31.1486 28.2244C31.1486 28.4335 31.2977 28.5983 31.5063 28.5983C31.744 28.5983 31.8936 28.3887 31.8936 28.1495C31.8936 27.8359 31.6104 27.4023 31.3422 27.4023C31.2227 27.4023 31.2677 27.5817 31.2381 27.7761C31.2227 27.9249 31.1486 28.1044 31.1486 28.2244Z" fill="white"/>
<path d="M14.7169 12.8421C15.2228 12.8421 15.8028 10.0912 15.8028 9.62745C15.8028 9.50785 15.7587 9.41791 15.6546 9.41791C15.1928 9.41791 14.5533 12.0346 14.5533 12.618C14.5529 12.7225 14.5824 12.8421 14.7169 12.8421ZM18.3635 13.6643C18.7349 13.6643 19.1517 12.2286 19.1517 11.3316C19.1517 11.1371 19.1221 10.9285 19.0321 10.9285C18.7194 10.9285 18.1985 12.4084 18.1985 13.2155C18.199 13.5296 18.274 13.6643 18.3635 13.6643ZM15.936 12.3336C16.0996 12.3336 16.3082 12.1533 16.6964 11.7209C16.7255 11.5265 16.7255 11.3466 16.7255 11.1225C16.7255 10.8239 16.6064 10.4948 16.4282 10.4948C15.981 10.4948 15.7582 11.6908 15.7582 12.0053C15.7587 12.1838 15.8473 12.3336 15.936 12.3336ZM17.9758 11.7209C17.9758 11.4662 17.9158 11.4064 17.8567 11.4064C17.7077 11.4064 17.5445 11.5863 17.3063 11.9898C17.3359 12.528 17.4254 12.7672 17.574 12.7672C17.7377 12.7672 17.9758 12.2436 17.9758 11.7209ZM19.1221 9.95658C20.1048 9.95658 20.5507 10.8089 20.5507 11.7657C20.5507 12.1838 20.4325 12.7974 20.2389 12.7974C20.0452 12.7974 20.0752 12.4532 20.0452 12.1391C20.0157 11.7356 19.9407 11.6461 19.8066 11.6461C19.5535 11.6461 19.3903 12.2436 19.3903 12.7974C19.3903 13.1407 19.4498 13.5296 19.7171 13.5296C19.8662 13.5296 20.0002 13.4547 20.0898 13.3653C20.0302 14.0523 19.5235 14.6512 18.8094 14.6512C17.4995 14.6512 17.0082 13.111 16.86 12.214C16.071 13.0512 15.3419 13.6643 14.0315 13.6643C12.8116 13.6643 12.2607 12.7672 12.2607 11.9154C12.2607 11.6607 12.3498 11.0033 12.663 11.0033C13.0348 11.0033 12.7075 12.2286 13.4366 12.2286C13.6157 12.2286 13.942 12.0788 14.1215 11.5863C14.2256 11.2868 14.2852 10.9737 14.2852 10.7039C14.2852 10.2999 14.1961 10.0465 13.8984 10.0465C13.6447 10.0465 13.332 10.2401 13.228 10.3451C13.5857 9.26864 14.4488 8.71582 15.4001 8.71582C16.5773 8.71582 17.2018 9.76211 17.2018 10.9285C17.2018 11.0923 17.1868 11.2718 17.1568 11.4365C17.6631 10.5993 18.3635 9.95658 19.1221 9.95658Z" fill="white"/>
<path d="M16.3388 13.9775C15.6989 13.9775 15.6693 14.7563 15.6693 16.3249C15.1926 15.2936 14.4044 14.1871 13.4813 14.1871C12.8563 14.1871 12.6186 14.6061 12.6186 15.3379C12.6186 15.4876 12.6332 15.7122 12.6632 15.846C12.7377 15.5926 12.9759 15.4876 13.2731 15.4876C13.914 15.4876 14.6876 15.9807 15.1935 16.654C14.6135 16.5494 14.0476 16.4445 13.5718 16.4445C13.2736 16.4445 13.0059 16.4746 12.7827 16.5791C12.3509 16.7731 11.7705 17.4163 11.7705 18.3882C11.7705 18.538 11.7855 18.7018 11.8155 18.8812C12.3364 17.7149 13.7204 17.1917 14.6135 17.1917C14.7926 17.1917 14.9258 17.2068 15.0303 17.2219C14.5685 17.64 14.4649 18.3727 14.4344 18.8662C14.4203 19.1054 14.3303 19.1209 14.1663 19.1209C14.1663 19.6135 14.554 20.3466 14.554 20.72C14.554 20.8547 14.4794 20.9743 14.4053 21.0044C14.4053 21.6622 15.0594 22.1406 15.0594 22.5588C15.0594 22.6633 15.0303 22.7533 14.9848 22.7984C15.0303 23.0678 15.7503 23.5202 15.8434 23.7471C15.958 24.0228 16.0866 24.0693 16.1611 24.0693C16.4143 24.0693 16.8152 23.7699 16.8152 23.5005C16.8152 23.4111 16.7406 23.3065 16.682 23.2613C16.3988 23.0527 16.2498 22.604 16.1307 22.3054C16.0261 22.3054 15.8916 22.2612 15.8443 22.0849C15.763 21.7754 15.7589 21.1989 15.6398 20.8547C15.4462 20.8099 15.3566 20.7351 15.3566 20.3315C15.3566 20.1371 15.4762 19.3743 15.4762 19.1049C15.3871 19.1049 15.268 19.0451 15.268 18.8657C15.268 18.3878 15.7448 18.0139 15.878 17.4013C16.7266 18.0285 16.9343 18.6713 16.9343 19.24C16.9343 19.5381 16.8897 19.8225 16.8302 20.0923C17.4556 19.7778 18.3933 19.3145 18.3933 18.3727C18.3933 17.819 18.1401 17.2064 16.4579 16.9671C16.9788 16.7727 17.6342 16.6686 18.1846 16.6686C19.1378 16.6686 19.6882 16.9671 19.8068 17.6396C20.0004 17.341 20.1495 16.9968 20.1495 16.6832C20.1495 15.9501 19.5386 15.4726 18.7651 15.4726C17.8569 15.4726 17.0533 15.9501 16.1898 16.5339C16.5779 15.7268 16.8443 15.2484 17.3215 15.2484C17.3956 15.2484 17.4701 15.2635 17.5447 15.2786C17.3661 14.6212 16.6966 13.9775 16.3388 13.9775Z" fill="white"/>
<path d="M41.4169 24.7559C42.1623 24.7559 42.7577 25.7273 42.7577 26.864C42.7577 28.0746 42.1914 29.3907 41.1819 30.2868C41.1669 28.2691 38.708 28.9118 38.708 27.4474C38.708 26.8197 39.1557 26.4006 39.692 26.4006C40.1688 26.4006 40.5411 26.5353 40.8092 26.8051C40.5411 26.5504 40.407 26.1911 40.407 25.8478C40.407 25.2785 40.7647 24.7559 41.4169 24.7559Z" fill="white"/>
<path d="M28.127 10.5543C28.5147 10.9281 28.8561 11.092 29.2733 11.092C29.4379 11.092 29.6319 11.0478 29.7365 11.0478C29.8706 11.0478 29.9592 11.1071 29.9592 11.2116C29.9592 11.3764 29.8101 11.6458 29.6319 11.7955C29.8101 11.8699 30.0042 11.9 30.2128 11.9C31.0582 11.9 32.0263 11.3614 32.0263 10.0165C32.2059 10.2548 32.3099 10.7487 32.3099 10.9733C32.3099 12.6026 31.1177 13.2303 30.0187 13.2303C29.3038 13.2303 28.9456 12.9906 28.8556 12.9906C28.5734 12.9906 28.5884 13.5594 28.3947 13.5443C28.052 13.4845 27.7402 12.7222 27.7402 11.9151C27.7407 11.4362 27.8598 10.9281 28.127 10.5543ZM30.3737 9.46279C30.2546 9.26832 29.8101 9.16424 29.6024 9.16424C28.9461 9.16424 28.4993 9.62713 28.4102 10.0462C28.3506 9.89646 28.3061 9.71706 28.3061 9.53766C28.3061 8.87984 28.7529 8.07275 29.841 8.07275C30.7909 8.07275 31.1632 8.58084 31.2977 8.58084C31.4464 8.58084 31.5954 8.4311 31.715 8.4311C31.8786 8.4311 31.8786 8.68537 31.8786 8.86523C31.8786 9.46279 31.61 10.4945 30.94 10.8683C30.8205 10.6141 30.5823 10.3297 30.1978 10.1507C30.0937 10.106 30.0492 10.0165 30.0492 9.92659C30.0487 9.7618 30.1973 9.55226 30.3737 9.46279Z" fill="white"/>
<path d="M17.7825 6.20407C17.7825 6.72722 19.6428 9.28361 20.0005 9.28361C20.2987 9.28361 20.5214 8.76046 20.5214 8.31126C20.5214 8.19258 20.4914 8.07343 20.4328 7.98304C20.1646 7.60917 18.2743 6.11414 17.857 6.11414C17.812 6.11414 17.7825 6.15933 17.7825 6.20407ZM6.84226 4.6643C6.84226 4.96377 5.71143 5.96487 5.31009 5.96487C5.16146 5.96487 5.11601 5.78592 5.11601 5.62158C5.11601 5.32303 5.25009 4.90396 5.41417 4.76884C5.60689 4.58944 6.05368 4.50088 6.39593 4.50088C6.6041 4.50088 6.84226 4.5447 6.84226 4.6643ZM20.4328 5.53165C20.4328 4.63417 18.0179 3.00493 17.9911 2.30284C17.9884 2.23847 18.0234 2.17456 18.0774 2.1175C18.4911 1.67926 20.2087 1.35971 20.2087 0.986298C20.2087 0.792743 19.851 0.792743 19.6723 0.792743C18.2883 0.792743 16.2639 1.30083 16.2639 1.79384C16.2639 2.30284 18.0797 3.5436 18.0797 4.15668C18.0797 4.32102 17.9756 4.38082 17.8116 4.38082C17.3061 4.38082 16.2044 3.76728 15.6835 3.76728C15.4453 3.76728 15.3554 3.93162 15.3554 4.17174C15.3554 4.8889 16.2039 6.24926 16.2039 6.6519C16.2039 6.69709 16.1889 6.75689 16.1294 6.75689C15.8612 6.75689 14.5972 5.26277 14.15 5.26277C13.9868 5.26277 13.9713 5.48646 13.9713 5.81559V6.32367C13.9713 6.66742 13.9563 6.87695 13.7936 6.87695C13.4055 6.87695 13.2273 5.78592 12.8555 5.78592C12.4683 5.78592 12.3937 7.72877 12.0224 7.72877C11.5901 7.72877 11.9624 5.59099 11.5456 5.59099C11.0843 5.59099 10.5629 7.01162 10.2352 7.01162C10.1166 7.01162 10.0871 6.89156 10.0871 6.78702C10.0871 6.3538 10.3393 5.65125 10.3393 5.2331C10.3393 5.02311 10.2798 4.90396 10.1021 4.90396C9.63981 4.90396 8.62806 5.65125 8.24126 5.65125C8.18172 5.65125 8.10718 5.62158 8.10718 5.56132C8.10718 5.20343 9.72935 4.06675 9.72935 3.55866C9.72935 3.06473 7.49586 3.39433 7.49586 2.82553C7.49586 2.34758 9.08985 1.8541 9.08985 1.36063C9.08985 0.926954 7.19906 0.733398 6.47001 0.733398C5.59143 0.733398 5.11556 0.837023 5.11556 1.09129C5.11556 1.48023 7.11043 1.60029 7.11043 1.94357C7.11043 2.27271 5.04102 3.15466 5.04102 3.66275C5.04102 4.11148 7.9581 3.69242 7.9581 4.15668C7.9581 4.6643 5.41372 6.86143 5.41372 7.59411C5.41372 7.7589 5.5328 7.83377 5.69597 7.83377C6.47001 7.83377 8.47852 6.3538 9.02985 6.3538C9.22347 6.3538 9.23847 6.59255 9.23847 6.80208C9.23847 7.19102 9.10485 7.78857 9.10485 8.2227C9.10485 8.56599 9.19393 8.8052 9.49118 8.8052C10.043 8.8052 10.5479 7.86344 10.9211 7.86344C11.397 7.86344 11.1143 10.6289 11.8288 10.6289C12.4387 10.6289 12.6914 7.6393 13.0787 7.6393C13.4659 7.6393 13.7791 8.50619 14.1359 8.50619C14.5818 8.50619 14.3736 6.99655 14.8504 6.99655C15.3708 6.99655 16.8593 8.79059 17.5293 8.79059C17.7375 8.79059 17.8116 8.62579 17.8116 8.41626C17.8116 7.62378 16.7107 5.83066 16.7107 5.26277C16.7107 5.1135 16.7548 5.0683 16.9184 5.0683C17.4988 5.0683 19.1965 5.87539 19.9996 5.87539C20.2696 5.87539 20.4328 5.72612 20.4328 5.53165ZM18.8842 2.57172C18.8842 2.84059 19.8219 3.424 20.2541 3.424C20.5068 3.424 20.5814 3.0798 20.5814 2.72099C20.5814 2.27271 20.3887 2.25765 20.001 2.25765C19.5096 2.25765 18.8842 2.39231 18.8842 2.57172ZM15.3863 1.04656C15.3863 0.956626 14.9399 0.866696 14.33 0.866696C13.3623 0.866696 13.4964 1.67515 12.7523 1.67515C11.9783 1.67515 12.171 0.837023 11.1888 0.837023C10.5934 0.837023 10.0434 0.942018 10.0434 1.07623C10.0434 1.25609 10.7425 1.18122 10.7425 1.67515C10.7425 2.19784 9.23893 2.34758 9.23893 2.66165C9.23893 2.76618 9.35756 2.81092 9.50664 2.81092C9.8348 2.81092 10.3548 2.66165 10.7275 2.66165C10.9361 2.66165 11.1297 2.70593 11.1297 2.90039C11.1297 3.27427 10.3252 3.94714 10.3252 4.24615C10.3252 4.33608 10.3993 4.36621 10.4738 4.36621C10.772 4.36621 11.2783 3.6034 11.7542 3.6034C12.5433 3.6034 12.0228 5.29244 12.4537 5.29244C12.9001 5.29244 12.7069 3.63262 13.3468 3.63262C13.8686 3.63262 14.255 4.78391 14.6122 4.78391C14.7018 4.78391 14.7758 4.7095 14.7758 4.6045C14.7758 4.29134 14.3295 3.64768 14.3295 3.22953C14.3295 2.97526 14.5081 2.8552 14.7463 2.8552C15.0881 2.8552 15.5499 3.06473 15.8021 3.06473C15.8912 3.06473 15.9808 3.03506 15.9808 2.93052C15.9808 2.57172 14.6572 2.18324 14.6572 1.71989C14.6577 1.25609 15.3863 1.25609 15.3863 1.04656Z" fill="white"/>
<path d="M41.7746 3.4693C41.7746 4.79908 40.8097 5.8157 39.0662 6.09965C39.2602 6.11425 39.4389 6.11425 39.618 6.11425C41.6555 6.11425 42.401 5.18802 42.401 4.41106C42.401 3.97693 42.1623 3.58891 41.7746 3.4693ZM39.2602 4.97849C39.2602 3.91713 36.7318 3.64779 36.7318 3.40905C36.7318 3.21503 38.1435 2.88544 38.873 2.87038C37.7567 1.43561 36.1659 1.58534 36.1659 1.33107C36.1659 1.18134 37.3572 0.881873 38.4571 0.881873C39.3798 0.881873 40.2434 1.09141 40.2434 1.79396C40.2434 2.18335 39.9307 2.58735 39.9307 3.18445C39.9307 3.51358 40.0934 3.79753 40.5265 3.79753C40.9892 3.79753 41.0924 3.30451 41.0924 2.78045C41.0924 2.34769 41.0183 2.01855 41.0183 1.80902C41.0183 1.18134 41.4469 0.763184 42.0578 0.763184C42.5641 0.763184 42.6837 0.986411 43.4286 0.986411C43.0259 1.22653 42.8773 1.6602 42.8773 1.86882C42.8773 2.49742 43.2804 2.93064 43.2804 4.21659C43.2804 6.5776 41.0779 7.41482 38.3826 7.41482C37.6417 7.41482 36.8513 7.35502 36.0764 7.23587C35.9577 7.22081 35.9277 7.19113 35.9277 7.11627C35.9277 6.9218 36.9858 6.8168 36.9858 5.8609C36.9858 5.48657 36.8663 5.12822 36.8663 4.99401C36.8663 4.91914 36.9259 4.87395 36.9858 4.87395C37.209 4.87395 37.6567 5.74084 38.4876 5.74084C38.7085 5.74084 39.2602 5.66597 39.2602 4.97849ZM41.6855 1.67527C41.6855 1.88389 41.8492 2.04823 42.0578 2.04823C42.2664 2.04823 42.4305 1.88389 42.4305 1.67527C42.4305 1.46573 42.2664 1.30094 42.0578 1.30094C41.8492 1.30094 41.6855 1.46573 41.6855 1.67527Z" fill="white"/>
<path d="M40.3623 15.4873C40.3623 15.1737 39.5724 15.144 39.4983 14.2616C39.4829 14.1274 39.4383 13.8886 39.2742 13.8886C39.0065 13.8886 39.2147 14.7108 38.917 14.7108C38.2325 14.7108 38.0093 13.365 37.7561 13.365C37.6962 13.365 37.6252 13.4098 37.6252 13.5892C37.6252 13.754 37.6552 13.8585 37.6552 14.0521C37.6552 14.247 37.6098 14.3817 37.4316 14.3817C37.0294 14.3817 36.6717 13.4394 36.329 13.4394C36.2544 13.4394 36.1803 13.4846 36.1803 13.5595C36.1803 13.7389 36.4776 14.0671 36.4776 14.2319C36.4776 14.5912 35.5095 14.3963 35.5095 14.6957C35.5095 14.8304 35.6431 14.8747 35.8222 14.8747C36.1353 14.8747 36.6271 14.7409 36.8803 14.7409C37.0294 14.7409 37.2525 14.7706 37.2525 14.9641C37.2525 15.1737 36.7162 15.4426 36.7162 15.637C36.7162 15.727 36.8053 15.7712 36.8798 15.7712C37.2821 15.7712 37.9939 15.0691 38.5002 15.0691C38.5893 15.0691 38.8124 15.1139 38.8124 15.2485C38.8124 15.4426 38.3066 15.7858 38.3066 16.0702C38.3066 16.1451 38.352 16.2346 38.4411 16.2346C38.7075 16.2346 39.0652 15.5325 39.5719 15.5325C39.7656 15.5325 40.0487 15.6074 40.1983 15.6074C40.3178 15.6074 40.3623 15.5325 40.3623 15.4873ZM40.7496 22.7379C40.9882 21.991 41.2864 21.467 41.7741 20.6599C41.2864 20.4065 39.9896 19.8674 39.9896 18.9854C39.9896 17.9538 41.27 17.1467 41.5355 17.1467C41.655 17.1467 41.6845 17.2517 41.6845 17.4461C41.6845 17.9839 41.4314 18.8508 41.4314 19.3146C41.4314 19.7327 41.6995 20.1372 41.9377 20.1372C42.1909 20.1372 42.8908 19.2402 42.8908 18.3578C42.8908 16.7728 41.5055 16.2948 41.0768 16.2948C40.6746 16.2948 39.9446 16.9522 38.232 16.9522C35.0327 16.9522 34.3027 13.769 34.3027 12.3781C34.3027 12.3183 34.3168 12.3032 34.3318 12.3032C34.4064 12.3032 34.72 12.6926 35.7322 12.6926C36.2535 12.6926 36.7303 12.5575 37.4903 12.5575C39.2733 12.5575 40.0633 13.7992 41.1659 15.3828C41.8327 15.8009 43.4271 16.4742 43.4271 18.3728C43.4271 20.0473 41.6545 20.9739 41.2255 22.768C41.9072 22.6936 42.3099 21.467 43.0099 21.467C43.3676 21.467 43.5312 21.7514 43.5312 22.2006C43.5312 22.8575 43.1585 23.8449 42.4436 24.4575C42.4581 24.3977 42.4581 24.3224 42.4581 24.2329C42.4581 23.8147 42.2949 23.2172 41.8172 23.2172C41.0759 23.2172 40.8378 24.0243 40.421 24.6962C39.9887 23.172 39.4079 21.7961 38.3661 20.9589C37.3121 20.1071 35.494 20.5699 35.494 19.0156C35.494 18.5965 35.7626 17.9989 35.7626 17.5205C35.7626 17.3562 35.7326 17.2065 35.6426 17.0869C37.073 17.6255 36.5662 18.5814 37.4462 19.5684C37.9939 20.197 39.5129 20.7945 40.3914 23.3806C40.406 23.3062 40.421 23.1122 40.421 22.9775C40.421 20.7649 37.5048 18.5965 37.2516 17.6995C38.9456 17.894 39.2433 18.313 40.0478 20.5553C40.2128 21.0191 40.7496 22.1704 40.7496 22.7379Z" fill="white"/>
<path d="M32.6082 6.92161C31.5651 6.92161 30.8802 6.39892 30.8802 6.12913C30.8802 5.99447 30.9692 5.90545 31.0892 5.90545C31.4165 5.90545 32.1314 6.41307 32.3691 6.41307C32.4296 6.41307 32.4737 6.38386 32.4737 6.29393C32.4737 6.02459 32.2205 5.57631 32.2205 5.35263C32.2205 5.29237 32.2655 5.24809 32.3546 5.24809C32.7564 5.24809 33.3523 5.41243 33.6659 5.41243C33.77 5.41243 33.7995 5.35263 33.7995 5.29237C33.7995 4.96369 32.8309 4.32094 32.8309 4.12648C32.8309 3.94707 34.0345 3.67728 34.0345 3.39425C34.0345 3.09479 32.3982 3.30432 32.3982 3.01992C32.3982 2.81085 32.7114 2.45204 32.7114 2.2877C32.7114 2.21284 32.6514 2.18316 32.5478 2.18316C32.4137 2.18316 31.6987 2.46711 31.4006 2.46711C31.2519 2.46711 31.0729 2.43743 31.0729 2.22744C31.0729 1.8837 31.6537 1.51029 32.5628 1.51029C34.034 1.51029 34.9135 2.52691 34.9135 4.23101C34.9144 6.38386 33.4127 6.92161 32.6082 6.92161ZM29.7066 4.08174C29.7066 3.91694 29.1248 3.60333 29.1248 3.42393C29.1248 3.39425 29.1539 3.37919 29.1989 3.37919C29.3634 3.37919 29.6466 3.43899 29.8707 3.43899C30.0643 3.43899 30.0938 2.60177 30.2402 2.60177C30.3443 2.60177 30.5224 3.39425 30.6874 3.39425C30.8806 3.39425 31.2379 3.16966 31.3869 3.16966C31.4165 3.16966 31.4465 3.18426 31.4465 3.21485C31.4465 3.31939 31.0742 3.72248 31.0742 3.84208C31.0742 3.97674 31.9087 4.14154 31.9087 4.26114C31.9087 4.41087 31.0592 4.39581 31.0592 4.53048C31.0592 4.6341 31.3724 5.05317 31.3724 5.18783C31.3724 5.21796 31.3569 5.23303 31.3274 5.23303C31.2079 5.23303 30.7465 5.02304 30.6124 5.02304C30.4484 5.02304 30.1834 5.63612 30.0493 5.63612C30.0048 5.63612 29.9752 5.57631 29.9752 5.50145L29.9452 4.90389C29.9452 4.84409 29.9161 4.78383 29.8411 4.78383C29.662 4.78383 29.3193 4.76877 29.2144 4.76877C29.1398 4.76877 29.1103 4.75416 29.1103 4.72403C29.1098 4.60443 29.7066 4.18628 29.7066 4.08174ZM29.2734 6.53222C29.5125 6.53222 29.5571 7.11608 29.6025 7.45937C29.6321 7.63923 29.6621 7.65384 29.7366 7.65384C29.9157 7.65384 30.1979 6.96635 30.3893 6.96635C30.6715 6.96635 31.4319 7.75883 32.6978 7.75883C34.4976 7.75883 36.1957 6.48748 36.1957 4.24608C36.1957 2.07817 34.6754 0.807279 32.5782 0.807279C31.581 0.807279 30.8502 1.30075 30.4629 1.30075C30.2279 1.31582 29.8707 0.718262 29.6911 0.718262C29.6171 0.718262 29.5425 0.866624 29.5425 1.12135C29.5425 1.28615 29.5425 1.80884 29.3634 1.80884C29.0053 1.80884 27.6217 0.778063 27.6217 1.15102C27.6217 1.49522 28.5435 2.54197 28.5435 2.81085C28.5435 3.07973 27.6363 3.33445 27.6363 3.5134C27.6363 3.84208 28.6035 3.90188 28.6035 4.32094C28.6035 4.7391 27.5908 5.06823 27.5908 5.3823C27.5908 5.63612 28.6035 5.45717 28.6035 5.77078C28.6035 6.0844 27.8594 7.13115 27.8594 7.42924C27.8594 7.50456 27.874 7.50456 27.9331 7.50456C28.2162 7.50456 29.0648 6.53222 29.2734 6.53222Z" fill="white"/>
<path d="M22.5315 32.7839C22.5315 32.9185 22.4865 33.0683 22.3675 33.2171C22.2047 32.9185 21.7425 32.7688 21.5339 32.7693C20.0008 32.7693 20.5812 34.997 18.944 34.997C18.2595 34.997 18.1995 34.907 17.9473 34.907C17.8427 34.907 17.7832 34.9522 17.7832 35.0417C17.7832 35.4311 18.3341 36.387 19.8672 36.387C21.4002 36.387 22.8742 35.4457 22.8742 34.2784C22.8742 34.084 22.8297 33.8763 22.7402 33.6667C22.7997 33.5768 22.9492 33.517 23.0829 33.517C23.3206 33.517 23.4547 33.7872 23.6778 33.7872C23.9164 33.7872 24.0951 33.6069 24.0951 33.3682C24.0951 33.1728 23.991 33.039 23.8128 32.9482C23.9319 32.8592 24.021 32.7095 24.021 32.5451C24.021 32.2899 23.8419 32.0521 23.5437 32.0521C23.4097 32.0521 23.321 32.0977 23.2169 32.2C23.1879 31.9325 23.0383 31.6782 22.7552 31.6782C22.532 31.6782 22.3675 31.8421 22.3675 32.0973C22.3675 32.3347 22.5315 32.53 22.5315 32.7839Z" fill="white"/>
<path d="M14.3739 30.0042C15.5647 30.3014 16.1601 30.9446 16.2787 31.7074C16.3978 32.4396 16.5464 33.0386 16.8292 33.3366C17.2014 33.7562 17.9309 34.1278 18.5713 34.1278C19.1072 34.1278 19.5381 33.9502 19.5381 33.4562C19.5381 32.9176 18.809 31.7069 17.7373 31.7069C17.6332 31.7069 17.4991 31.7225 17.35 31.7225C17.2159 31.7225 17.0223 31.6928 16.9037 31.5878C16.666 31.3778 16.591 30.2567 16.1447 29.5842C15.6538 28.8365 15.1179 28.627 14.3889 28.627C13.8684 28.627 13.2871 28.9104 13.2871 29.3295C13.2871 29.5851 13.4212 29.7641 14.3739 30.0042ZM18.5268 33.3522C18.0795 33.3522 17.41 32.8728 17.41 32.6035C17.41 32.3789 17.6186 32.2593 17.7814 32.2593C18.1541 32.2593 18.8231 32.724 18.8231 33.1125C18.8236 33.217 18.749 33.3522 18.5268 33.3522Z" fill="white"/>
<path d="M17.1575 21.7069C17.1575 20.7501 19.4205 20.242 19.4205 19.0606C19.4205 18.8661 19.346 18.5228 19.2119 18.2686C20 18.7018 20.5809 19.4349 20.5809 20.0325C20.5809 21.0641 19.5096 21.5426 19.5096 22.1858C19.5096 22.9331 20.6554 23.0527 20.6554 23.9793C20.6554 24.7412 19.5687 25.6237 19.5687 26.6101C19.5687 27.3725 20.105 27.9997 20.9227 28.1047C20.655 28.1645 20.4173 28.2093 20.1641 28.2093C18.6601 28.2093 17.1125 26.969 17.1125 25.4885C17.1125 24.7563 17.4252 24.1145 17.9006 23.6507C18.3183 24.0095 18.7346 24.2482 19.0028 24.2482C19.2405 24.2482 19.3455 24.1291 19.3455 23.9497C19.346 23.3959 17.1575 22.8883 17.1575 21.7069ZM21.9058 29.2565C21.3954 29.4911 21.1917 29.4509 21.1917 29.9745C21.1917 30.1685 21.1468 30.4214 21.1468 30.5566C21.1468 30.736 21.1763 30.841 21.3845 30.841C21.9208 30.841 22.7694 29.9293 22.7694 29.1515C22.7694 28.9415 22.6498 28.8534 22.5158 28.8534C22.3967 28.8534 22.2635 29.0917 21.9058 29.2565ZM21.8463 28.1796C21.8463 27.5072 20.4618 27.4921 20.4618 26.4755C20.4618 26.2208 20.625 25.788 20.9531 25.3237C21.0877 26.1011 21.399 26.5051 22.0699 26.7599C23.3939 27.2524 23.573 27.9997 23.573 28.7931C23.573 30.1389 22.6353 31.8128 20.2241 31.8128C18.2888 31.8128 16.9043 30.0782 16.9043 28.6133C16.9043 28.2093 17.0084 27.7614 17.2615 27.7614C17.4852 27.7614 17.5593 27.9404 17.7379 28.1193C18.4083 28.7931 19.1373 28.9716 20.1941 28.9716C21.1468 28.9721 21.8463 28.5836 21.8463 28.1796Z" fill="white"/>
<path d="M11.3053 28.5034C11.3416 28.8157 11.1194 29.0973 10.8089 29.1339C10.4981 29.1704 10.2163 28.9467 10.1808 28.6349C10.1444 28.3222 10.3667 28.0396 10.6776 28.0031C10.9885 27.9666 11.2694 28.1907 11.3053 28.5034ZM8.52364 29.0914C8.58682 29.6018 9.06088 29.9889 9.59584 29.9291C9.78901 29.9076 9.96809 29.8547 10.0876 29.7798C10.2067 30.2578 10.6062 30.5654 11.1462 30.4942C11.6943 30.4226 12.067 29.9889 12.008 29.4356C11.9925 29.2868 11.963 29.1959 11.9189 29.0914C11.9189 29.0914 11.9911 29.0836 12.0457 29.0736C12.5834 28.9713 12.9456 28.5381 12.9006 28.015C12.8415 27.4768 12.3607 27.0773 11.8602 27.1394C11.6662 27.1632 11.4871 27.2376 11.3675 27.3421C11.233 26.8943 10.8135 26.5049 10.2408 26.5998C9.72311 26.6861 9.38086 27.1271 9.43267 27.6863C9.44131 27.7771 9.46222 27.8808 9.50721 27.9849C9.50721 27.9849 9.41949 27.9981 9.35904 28.0068C8.92452 28.0716 8.45319 28.5107 8.52364 29.0914Z" fill="white"/>
</g>
<defs>
<clipPath id="clip0_1514_3336">
<rect width="48.8909" height="54.3233" fill="white" transform="translate(0.592773 0.718262)"/>
</clipPath>
</defs>
</svg>
