<svg width="19" height="19" viewBox="0 0 19 19" fill="none" xmlns="http://www.w3.org/2000/svg">
<g clip-path="url(#clip0_729_6626)">
<path d="M9.49981 18.9996C14.7462 18.9996 18.9996 14.7459 18.9996 9.49981C18.9996 4.25376 14.7466 0 9.49981 0C4.25302 0 0 4.25414 0 9.49981C0 14.7455 4.25339 18.9996 9.49981 18.9996Z" fill="#F0F0F0"/>
<path fill-rule="evenodd" clip-rule="evenodd" d="M17.5957 4.53931H9.07255V2.05859H15.4055C16.2751 2.75094 17.0164 3.59059 17.5957 4.53931ZM18.9995 9.49962H9.07774V7.01965H18.6726C18.8902 7.82831 19.0002 8.66217 18.9995 9.49962ZM9.49967 18.9994C11.6474 19.0044 13.7326 18.2766 15.4107 16.9362H3.589C5.26689 18.2768 7.35201 19.0046 9.49967 18.9994ZM17.6061 14.461H1.39328C0.920406 13.6899 0.561326 12.8545 0.327148 11.9807H18.6722C18.4381 12.8545 18.079 13.6899 17.6061 14.461Z" fill="#D80027"/>
<path fill-rule="evenodd" clip-rule="evenodd" d="M4.41036 1.47842H4.40183V1.48435L4.41036 1.47842ZM4.41036 1.47842H5.26943L4.46009 2.05917L4.76624 3.00915L3.95875 2.4284L3.15646 3.00915L3.4203 2.18942C2.71119 2.78292 2.0925 3.47674 1.5838 4.24895H1.8636L1.3515 4.62004L1.1192 5.02823L1.36189 5.78302L0.902854 5.44904L0.586317 6.18602L0.85016 7.01354H1.85209L1.05574 7.60023L1.36189 8.55021L0.554404 7.96946L0.0794129 8.31754C0.0264078 8.7094 -0.000123168 9.10439 4.29849e-07 9.49982H9.49981V8.00154e-06C7.6971 -0.00233657 5.93127 0.510611 4.41036 1.47842ZM4.76438 8.54539L4.77143 8.55095H4.76624L4.76438 8.54539ZM4.45972 7.6006L4.76438 8.54539L3.95838 7.9702L3.1509 8.55095L3.45704 7.60097L2.64956 7.02022H3.65149L3.95764 6.07024L4.26378 7.02022H5.26572L4.45972 7.6006ZM4.46528 4.83527L4.77143 5.78525L3.96395 5.2045L3.15646 5.78525L3.46261 4.83527L2.65512 4.25452H3.65706L3.9632 3.30453L4.26935 4.25452H5.27128L4.46528 4.83527ZM7.37312 7.9702L8.1806 8.55095L7.87446 7.60097L8.68342 7.02022H7.68149L7.37534 6.07024L7.0692 7.02022H6.06726L6.87475 7.60097L6.5686 8.55095L7.37312 7.9702ZM7.87446 4.83527L8.1806 5.78525L7.37312 5.2045L6.56563 5.78525L6.87178 4.83527L6.0643 4.25452H7.06623L7.37238 3.30453L7.67852 4.25452H8.68046L7.87446 4.83527ZM8.1806 3.01954L7.87446 2.06956L8.68342 1.48881H7.68149L7.37534 0.538826L7.0692 1.48881H6.06726L6.87475 2.06956L6.5686 3.01954L7.37609 2.43879L8.1806 3.01954Z" fill="#0052B4"/>
</g>
<defs>
<clipPath id="clip0_729_6626">
<rect width="19" height="19" fill="white"/>
</clipPath>
</defs>
</svg>
