<svg width="32" height="32" viewBox="0 0 32 32" fill="none" xmlns="http://www.w3.org/2000/svg">
<path d="M19.75 7.25C20.095 7.25 20.375 6.97 20.375 6.625C20.375 6.28 20.095 6 19.75 6C19.405 6 19.125 6.28 19.125 6.625C19.125 6.97 19.405 7.25 19.75 7.25Z" fill="#1D3458"/>
<path d="M21.519 8.42589C22.9372 9.4622 24.0343 10.8659 24.6918 12.4851C24.821 12.8033 25.1847 12.9596 25.506 12.8291C25.8258 12.6992 25.9798 12.3347 25.85 12.0149C25.105 10.1803 23.8624 8.59014 22.2565 7.41664C21.9779 7.21308 21.5868 7.27383 21.3831 7.55251C21.1795 7.83126 21.2403 8.22226 21.519 8.42589Z" fill="#1D3458"/>
<path d="M31.375 15.375H29.1098C28.7921 8.63412 23.3658 3.20788 16.625 2.89025V0.625C16.625 0.279875 16.3451 0 16 0C15.6549 0 15.375 0.279875 15.375 0.625V2.89025C8.63412 3.20788 3.20788 8.63412 2.89025 15.375H0.625C0.279813 15.375 0 15.6549 0 16C0 16.3451 0.279813 16.625 0.625 16.625H2.89025C3.20788 23.3659 8.63412 28.7921 15.375 29.1098V31.375C15.375 31.7201 15.6549 32 16 32C16.3451 32 16.625 31.7201 16.625 31.375V29.1098C23.3658 28.7921 28.7921 23.3659 29.1098 16.625H31.375C31.7201 16.625 32 16.3451 32 16C32 15.6549 31.7201 15.375 31.375 15.375ZM27.8586 15.375H21.5901C21.3009 12.7717 19.2283 10.6991 16.625 10.4099V4.14144C22.6765 4.45675 27.5432 9.3235 27.8586 15.375ZM15.375 15.375H11.6704C11.9453 13.462 13.462 11.9453 15.375 11.6704V15.375ZM15.375 16.625V20.3296C13.4619 20.0547 11.9453 18.538 11.6704 16.625H15.375ZM16.625 16.6244H20.3296C20.0547 18.5374 18.538 20.0547 16.625 20.3296V16.6244ZM16.625 15.375V11.6704C18.538 11.9453 20.0547 13.462 20.3296 15.375H16.625ZM15.375 4.14144V10.4099C12.7717 10.6991 10.6991 12.7717 10.4099 15.375H4.14144C4.45675 9.3235 9.3235 4.45675 15.375 4.14144ZM4.14144 16.625H10.4099C10.6991 19.2283 12.7717 21.3009 15.375 21.5901V27.8586C9.3235 27.5432 4.45675 22.6765 4.14144 16.625ZM16.625 27.8586V21.5901C19.2283 21.3009 21.3009 19.2276 21.5901 16.6244H27.8586C27.5432 22.6759 22.6765 27.5432 16.625 27.8586Z" fill="#1D3458"/>
</svg>
