<svg width="32" height="30" viewBox="0 0 32 30" fill="none" xmlns="http://www.w3.org/2000/svg">
<path d="M32 9.98137C32 7.48246 31.0293 5.1338 29.2671 3.36935C27.5092 1.60179 25.165 0.628923 22.667 0.628923C20.2446 0.628923 17.9692 1.55212 16.2243 3.22034L16.07 3.06389C14.2179 1.20942 11.775 0.1875 9.19152 0.1875C6.71524 0.1875 4.40073 1.1405 2.6726 2.87205C-0.964659 6.52139 -0.8785 12.5405 2.86475 16.2898L3.27447 16.7002C3.06372 17.0864 3.00174 17.5669 3.10587 18.0747C3.22922 18.6739 3.57014 19.273 4.07159 19.7672C4.68028 20.3669 5.42905 20.7121 6.14002 20.7357C6.1456 20.8561 6.15118 20.9766 6.17659 21.1014C6.29994 21.7005 6.64085 22.2996 7.13673 22.7882C7.7448 23.388 8.49419 23.7325 9.20516 23.7561C9.21074 23.8766 9.21631 23.997 9.24173 24.1224C9.36508 24.7215 9.70599 25.3207 10.2019 25.8093C10.8106 26.409 11.5593 26.7536 12.2697 26.7772C12.2753 26.8976 12.2808 27.0187 12.3062 27.1435C12.4296 27.742 12.7705 28.3411 13.272 28.8359C13.9024 29.4568 14.684 29.8125 15.4166 29.8125C15.9274 29.8125 16.3687 29.6387 16.6917 29.3096L19.7587 26.1874C19.895 26.0483 19.9911 25.8856 20.0692 25.7137C20.6574 25.6243 21.1986 25.3604 21.6182 24.9339C22.2418 24.3099 22.4959 23.4594 22.4042 22.6405C22.5095 22.6523 22.6149 22.6709 22.7209 22.6709C23.4374 22.6709 24.154 22.3977 24.6988 21.852C25.3243 21.2255 25.579 20.3744 25.4867 19.5555C25.5908 19.5673 25.6937 19.5859 25.8003 19.5859C26.5485 19.5859 27.252 19.2935 27.7813 18.7639C28.1824 18.3622 28.4452 17.8599 28.5499 17.3142L29.2671 16.5965C31.0293 14.8296 32 12.4803 32 9.98137ZM22.667 1.87062C24.8333 1.87062 26.8652 2.71373 28.39 4.2466C29.9186 5.77761 30.7609 7.81462 30.7609 9.98137C30.7609 12.1475 29.9198 14.1827 28.3931 15.7137C28.2543 15.3741 28.0485 15.0612 27.7813 14.7942L21.33 8.33364C21.3244 8.32806 21.3176 8.32682 21.312 8.32185L20.7566 7.76557L21.2029 7.50295C21.4979 7.32849 21.5959 6.94791 21.4217 6.65301C21.2475 6.35686 20.8676 6.25939 20.5725 6.43323L15.6243 9.34873C14.7162 9.87583 13.5813 9.79698 12.7755 9.18545C12.6248 9.07121 12.5939 8.92035 12.5877 8.84026C12.5821 8.75893 12.5932 8.60309 12.7284 8.46775L16.9371 4.24598C18.4675 2.71435 20.5019 1.87062 22.667 1.87062ZM4.31953 17.8252C4.2935 17.6998 4.25135 17.3881 4.41994 17.2167L7.48756 14.0945C7.59418 13.9858 7.75906 13.9629 7.87869 13.9629C8.27663 13.9629 8.76569 14.2007 9.15929 14.5893C9.47727 14.9028 9.70165 15.2859 9.77418 15.6404C9.80021 15.7664 9.84236 16.0781 9.67376 16.2495L6.60676 19.3717C6.50015 19.4803 6.33527 19.5033 6.21564 19.5033C5.8177 19.5033 5.32926 19.2655 4.93504 18.8769C4.61706 18.5634 4.39267 18.1803 4.31953 17.8252ZM7.39025 20.8512C7.36421 20.7258 7.32206 20.4141 7.49066 20.2428L10.5577 17.1205C10.6643 17.0119 10.8292 16.9889 10.9488 16.9889C11.3467 16.9889 11.8358 17.2267 12.2238 17.6091C12.848 18.2244 13.0104 18.993 12.7389 19.2705L9.6719 22.3921C9.56467 22.5014 9.39979 22.5237 9.28078 22.5237C8.88284 22.5237 8.3944 22.286 8.00576 21.9035C7.68777 21.5894 7.46339 21.2063 7.39025 20.8512ZM10.5552 23.2626L13.6222 20.1409C13.7294 20.0317 13.8943 20.0093 14.0139 20.0093C14.4119 20.0093 14.9003 20.2471 15.2883 20.6295C15.9125 21.2442 16.0749 22.0134 15.8034 22.2903L12.7364 25.4125C12.6298 25.5212 12.4649 25.5442 12.3453 25.5442C11.9474 25.5442 11.4583 25.3064 11.0703 24.9239C10.4461 24.3081 10.2837 23.5395 10.5552 23.2626ZM18.8741 25.3157L15.8071 28.4379C15.7005 28.5466 15.5356 28.5696 15.416 28.5696C15.0175 28.5696 14.529 28.3318 14.1348 27.9431C13.8168 27.6296 13.5924 27.2465 13.5199 26.892C13.4939 26.766 13.4517 26.4543 13.6203 26.283L16.6873 23.1607C16.7939 23.0521 16.9588 23.0291 17.0784 23.0291C17.4764 23.0291 17.9654 23.2669 18.359 23.6556C18.9832 24.2702 19.1456 25.0394 18.8741 25.3157ZM24.6951 17.8841L18.2444 11.4236C18.002 11.1809 17.6103 11.1809 17.3679 11.4236C17.1256 11.6664 17.1256 12.0587 17.3679 12.3015L23.8218 18.7651C24.1162 19.06 24.278 19.4518 24.278 19.8684C24.278 20.285 24.1156 20.6773 23.8218 20.9716C23.2162 21.5782 22.23 21.5788 21.6225 20.9747C21.6207 20.9729 21.6194 20.9704 21.6176 20.9685L15.165 14.5055C14.9226 14.2627 14.5309 14.2627 14.2885 14.5055C14.167 14.6272 14.1069 14.7867 14.1075 14.9463C14.1075 15.1052 14.1683 15.2642 14.2891 15.3852L20.743 21.8495L20.7448 21.8514C21.3461 22.4635 21.3455 23.4494 20.738 24.0572C20.5787 24.2193 20.3866 24.336 20.1709 24.413C20.045 23.8474 19.7308 23.2644 19.2237 22.764C18.6157 22.1649 17.8669 21.8197 17.1565 21.7955C17.1225 21.1107 16.7871 20.3626 16.1592 19.743C15.5511 19.1438 14.8024 18.7987 14.092 18.7751C14.0579 18.0903 13.7226 17.3415 13.0947 16.7219C12.486 16.1222 11.7372 15.7776 11.0263 15.754C11.0207 15.6336 11.0151 15.5131 10.9897 15.3877C10.8663 14.7892 10.5254 14.1901 10.024 13.6953C9.39359 13.0744 8.61258 12.7187 7.87993 12.7187C7.36855 12.7187 6.92784 12.8925 6.6049 13.2216L4.10072 15.7708L3.74183 15.4113C0.481442 12.1456 0.395903 6.91315 3.54968 3.74868C5.04351 2.25244 7.04747 1.42857 9.19214 1.42857C11.4447 1.42857 13.5763 2.32135 15.1916 3.93866L15.341 4.09015L11.8525 7.58925C11.5004 7.94189 11.3176 8.42926 11.3517 8.92469C11.3858 9.41951 11.6325 9.87459 12.0279 10.1745C13.2242 11.0821 14.9102 11.1976 16.2497 10.4203L19.6533 8.41498L20.4498 9.21277C20.4554 9.21835 20.4622 9.21959 20.4678 9.22456L26.9042 15.6714C27.1993 15.9676 27.3617 16.36 27.3617 16.7778C27.3617 17.1956 27.1993 17.5886 26.9042 17.8835C26.3142 18.4771 25.2852 18.4764 24.6951 17.8841Z" fill="#1D3458"/>
</svg>
