<svg width="32" height="32" viewBox="0 0 32 32" fill="none" xmlns="http://www.w3.org/2000/svg">
<path d="M30.8923 15.2912C29.7374 14.3403 28.032 14.3823 26.9256 15.3908L23.1681 18.8146C22.6332 18.0806 21.7858 17.6333 20.8475 17.6333H16.8698C16.3685 17.6333 15.8833 17.5474 15.4278 17.3785C14.3046 16.9621 12.0884 16.4003 9.85513 17.3224C9.42995 17.4981 9.00576 17.7608 8.59401 18.1044L4.7042 21.3538C4.09957 20.9977 3.30895 21.0736 2.7907 21.5922L1.01313 23.3695C0.396883 23.9853 0.396445 24.9836 1.01313 25.5998L6.94726 31.5342C7.56126 32.1487 8.5622 32.1486 9.17757 31.5342L10.9549 29.7564C11.5699 29.1413 11.5699 28.1411 10.9549 27.5261L10.8921 27.4633L11.3271 27.0281C12.1362 26.2193 13.2253 25.7931 14.3214 25.8673C17.0997 26.0487 22.6762 25.8818 24.6442 23.9123L31.0013 17.5552C31.6394 16.9177 31.5896 15.8662 30.8923 15.2912ZM10.2481 29.0496L8.47101 30.8269C8.24551 31.052 7.87888 31.0515 7.65382 30.8274L1.71988 24.8931C1.71988 24.8931 1.71988 24.8931 1.71963 24.8926C1.49526 24.6692 1.4932 24.3036 1.71988 24.0764L3.49745 22.2991C3.72345 22.0736 4.08832 22.0738 4.31413 22.2991C4.49701 22.4819 10.3461 28.331 10.2481 28.233C10.4737 28.459 10.4739 28.8233 10.2481 29.0496ZM30.2946 16.8484L23.9374 23.2055C22.2247 24.9183 16.7674 25.0248 14.3864 24.8696C13.0059 24.7832 11.6328 25.3089 10.6203 26.3213L10.1853 26.7564C3.73032 20.2553 5.95663 22.4976 5.47501 22.0125L9.2347 18.8718C9.56807 18.5935 9.9052 18.3831 10.2366 18.2464C12.1538 17.4551 14.0939 17.9501 15.0798 18.3158C15.647 18.5261 16.2494 18.6331 16.8698 18.6331H20.8475C21.8959 18.6331 22.7204 19.4864 22.7123 20.5076C22.7101 20.8209 22.4484 21.0763 22.1292 21.0763H13.1889C12.9129 21.0763 12.6891 21.2998 12.6891 21.5761C12.6891 21.8524 12.9129 22.076 13.1889 22.076H22.1291C22.9958 22.076 23.7058 21.3755 23.7119 20.5149C23.7138 20.2567 23.6816 20.0034 23.6162 19.7588L27.5988 16.1299C28.3395 15.4539 29.4818 15.4256 30.2567 16.0641C30.5002 16.2641 30.5155 16.627 30.2946 16.8484Z" fill="#1D3458"/>
<path d="M16.0474 10.1642C16.2202 10.3321 16.2987 10.5743 16.258 10.812L15.9937 12.353C15.7521 13.7614 17.2315 14.8481 18.5074 14.1767L19.8871 13.4494C20.1012 13.3371 20.3562 13.3371 20.5698 13.4494L21.9447 14.1758C23.2139 14.8469 24.7 13.7688 24.4601 12.356L24.198 10.811C24.158 10.5737 24.2365 10.3326 24.4086 10.1646L25.5218 9.07901C26.5482 8.07795 25.9814 6.33333 24.5629 6.1267L23.0194 5.90164C22.7812 5.86651 22.5754 5.71714 22.469 5.50089L21.7792 4.10233C21.1443 2.81439 19.31 2.81645 18.6751 4.09989L17.9809 5.50239C17.8742 5.71764 17.6687 5.86658 17.431 5.9012L15.8899 6.12626C14.4707 6.33295 13.9044 8.07995 14.9329 9.08001L16.0474 10.1642ZM16.0344 7.11526L17.575 6.8902C18.1375 6.8087 18.6242 6.45576 18.8766 5.94564L19.5707 4.5432C19.8394 4.00064 20.6137 4.00001 20.8824 4.54464L21.5721 5.9432C21.8237 6.45426 22.3109 6.8082 22.875 6.8907L24.4185 7.11576C25.0189 7.20426 25.2587 7.93926 24.8237 8.36345L23.7107 9.44908C23.3035 9.84595 23.1171 10.4176 23.2123 10.978L23.4744 12.523C23.576 13.1224 22.9499 13.5744 22.4117 13.2923L21.0366 12.5659C20.5311 12.2984 19.9268 12.2979 19.4209 12.5649L18.0411 13.2922C17.5025 13.5761 16.8762 13.1201 16.9792 12.5219L17.2435 10.9808C17.3399 10.418 17.1532 9.84489 16.7441 9.44758L15.6299 8.36339C15.194 7.93889 15.4335 7.2037 16.0344 7.11526Z" fill="#1D3458"/>
<path d="M20.2264 1.72463C20.5025 1.72463 20.7263 1.50107 20.7263 1.22476V0.504758C20.7263 0.228445 20.5025 0.00488281 20.2264 0.00488281C19.9504 0.00488281 19.7266 0.228445 19.7266 0.504758V1.22476C19.7266 1.50107 19.9504 1.72463 20.2264 1.72463Z" fill="#1D3458"/>
<path d="M16.0277 2.48372C16.1669 2.72522 16.4742 2.80322 16.7104 2.66678C16.9496 2.52866 17.0314 2.22303 16.8932 1.98385L16.5332 1.36047C16.3954 1.12078 16.0891 1.03878 15.8506 1.17741C15.6114 1.31553 15.5296 1.62116 15.6677 1.86035L16.0277 2.48372Z" fill="#1D3458"/>
<path d="M12.8291 5.06455L13.4525 5.4243C13.692 5.56218 13.9976 5.4798 14.1354 5.24124C14.2733 5.00205 14.1913 4.69649 13.9523 4.5583L13.329 4.19855C13.089 4.05993 12.7837 4.14293 12.646 4.38161C12.5082 4.6208 12.5902 4.92636 12.8291 5.06455Z" fill="#1D3458"/>
<path d="M11.9735 9.25768H12.6933C12.9693 9.25768 13.1931 9.03412 13.1931 8.75781C13.1931 8.4815 12.9693 8.25793 12.6933 8.25793H11.9735C11.6974 8.25793 11.4736 8.4815 11.4736 8.75781C11.4736 9.03412 11.6974 9.25768 11.9735 9.25768Z" fill="#1D3458"/>
<path d="M27.2607 8.75793C27.2607 9.03424 27.4846 9.25781 27.7606 9.25781H28.4804C28.7564 9.25781 28.9802 9.03424 28.9802 8.75793C28.9802 8.48162 28.7564 8.25806 28.4804 8.25806H27.7606C27.4846 8.25806 27.2607 8.48162 27.2607 8.75793Z" fill="#1D3458"/>
<path d="M27.0008 5.4243L27.6242 5.06455C27.8632 4.92643 27.9452 4.6208 27.8073 4.38161C27.6689 4.14293 27.3635 4.05993 27.1243 4.19855L26.501 4.5583C26.262 4.69643 26.18 5.00205 26.3179 5.24124C26.4563 5.48018 26.7616 5.56205 27.0008 5.4243Z" fill="#1D3458"/>
<path d="M23.7441 2.66678C23.9808 2.80347 24.2879 2.72485 24.4268 2.48372L24.7868 1.86035C24.9249 1.62116 24.8432 1.3156 24.604 1.17741C24.3648 1.03878 24.059 1.12078 23.9213 1.36047L23.5613 1.98385C23.4231 2.2231 23.5049 2.52866 23.7441 2.66678Z" fill="#1D3458"/>
</svg>
