<svg width="32" height="28" viewBox="0 0 32 28" fill="none" xmlns="http://www.w3.org/2000/svg">
<path fill-rule="evenodd" clip-rule="evenodd" d="M9.12724 16.526C9.12724 16.8114 8.89779 17.0424 8.61003 17.0424H6.09694C5.81284 17.0424 5.57973 16.8114 5.57973 16.526C5.57973 16.2407 5.81284 16.0097 6.09694 16.0097H8.61003C8.89779 16.0097 9.12724 16.2407 9.12724 16.526ZM11.2871 7.84334H0.513548C0.229448 7.84334 0 7.61227 0 7.32698C0 7.0416 0.229448 6.81061 0.513548 6.81061H11.287C11.5748 6.81061 11.8042 7.04168 11.8042 7.32698C11.8042 7.61227 11.5748 7.84334 11.2871 7.84334ZM9.6772 11.9265C9.6772 12.2118 9.44409 12.4429 9.15999 12.4429H3.43821C3.15411 12.4429 2.92107 12.2119 2.92107 11.9265C2.92107 11.6411 3.15418 11.4101 3.43821 11.4101H9.16006C9.44416 11.4101 9.6772 11.6411 9.6772 11.9265ZM27.5639 12.8627C27.4181 12.616 27.5056 12.2996 27.7496 12.1572L28.183 11.9083C28.427 11.7658 28.7438 11.8504 28.8859 12.0974C29.0279 12.3449 28.9441 12.6605 28.6965 12.8033L28.2668 13.0518C28.0251 13.1925 27.7064 13.1124 27.5639 12.8627ZM14.8783 20.1898C15.0203 20.4361 14.9365 20.7525 14.6889 20.8946L14.2591 21.1438C14.0185 21.2842 13.6988 21.2049 13.5526 20.9547C13.4105 20.708 13.4943 20.3918 13.7419 20.2489L14.1717 20.0004C14.4193 19.8578 14.7362 19.9424 14.8783 20.1898ZM28.886 20.9547C28.7447 21.2019 28.4266 21.2853 28.183 21.1438L27.7496 20.8945C27.5056 20.7524 27.4182 20.4361 27.5639 20.1897C27.706 19.9423 28.0192 19.8577 28.2668 20.0002L28.6966 20.2487C28.9442 20.3917 29.0279 20.708 28.886 20.9547ZM21.7364 24.3688V24.8666C21.7364 25.1519 21.507 25.3833 21.2192 25.3833C20.9351 25.3833 20.7057 25.1519 20.7057 24.8666V24.3688C20.7057 24.0842 20.9351 23.8524 21.2192 23.8524C21.5069 23.8524 21.7364 24.0842 21.7364 24.3688ZM13.5525 12.0974C13.6982 11.8503 14.0114 11.7658 14.2591 11.9083L14.6888 12.1571C15.1447 12.4203 14.9568 13.1206 14.4302 13.1206C14.3428 13.1206 14.2554 13.0987 14.1716 13.0517L13.7419 12.8032C13.4942 12.6604 13.4104 12.3448 13.5525 12.0974ZM20.7057 8.68255V8.18548C20.7057 7.90011 20.9351 7.66912 21.2192 7.66912C21.507 7.66912 21.7364 7.90019 21.7364 8.18548V8.68255C21.7364 8.96792 21.507 9.19891 21.2192 9.19891C20.9351 9.19891 20.7057 8.96784 20.7057 8.68255ZM21.2192 17.116C20.895 17.116 20.6292 16.8514 20.6292 16.526C20.6292 16.2007 20.895 15.9361 21.2192 15.9361C21.547 15.9361 21.8092 16.2007 21.8092 16.526C21.8092 16.8514 21.547 17.116 21.2192 17.116ZM24.8104 18.0037L22.8109 16.8481C22.9812 16.0384 22.493 15.2429 21.7364 14.9879V11.0388C21.7364 10.7535 21.507 10.5225 21.2192 10.5225C20.9351 10.5225 20.7057 10.7535 20.7057 11.0388V14.9879C20.061 15.204 19.5984 15.8115 19.5984 16.526C19.5984 17.9165 21.2439 18.6651 22.2936 17.7425L24.2932 18.898C24.542 19.0397 24.8572 18.9579 24.9998 18.7093C25.1418 18.4621 25.058 18.1466 24.8104 18.0037ZM21.2192 26.2797C26.595 26.2797 30.9692 21.9043 30.9692 16.526C30.9692 11.1477 26.595 6.77224 21.2192 6.77224C15.8434 6.77224 11.4728 11.1477 11.4728 16.526C11.4728 21.9043 15.8434 26.2797 21.2192 26.2797ZM17.0999 2.16036C17.0999 1.9177 17.2966 1.72015 17.5406 1.72015H24.9015C25.1418 1.72015 25.3422 1.91763 25.3422 2.16036C25.3422 2.40272 25.1419 2.6002 24.9015 2.6002H17.5406C17.2966 2.6002 17.0999 2.40272 17.0999 2.16036ZM21.7364 5.75163V3.633H24.9015C25.7137 3.633 26.3729 2.97272 26.3729 2.16044C26.3729 1.34853 25.7136 0.6875 24.9015 0.6875H17.5406C16.7284 0.6875 16.0692 1.34853 16.0692 2.16044C16.0692 2.97272 16.7285 3.633 17.5406 3.633H20.7057V5.75163C14.9984 6.02204 10.4384 10.7517 10.4384 16.526C10.4384 22.4743 15.2752 27.3125 21.2192 27.3125C27.1669 27.3125 32 22.4743 32 16.526C32 10.7517 27.4436 6.02197 21.7364 5.75163Z" fill="#1D3458"/>
</svg>
