<svg width="32" height="32" viewBox="0 0 32 32" fill="none" xmlns="http://www.w3.org/2000/svg">
<path d="M11.1996 12.4611C9.10447 16.0198 10.824 18.8678 11.3982 19.6553C10.696 20.9471 10.155 22.3673 9.96591 23.8595C9.92288 24.1994 10.1638 24.5098 10.5037 24.5529C10.5302 24.5565 10.5563 24.558 10.5824 24.558C10.8903 24.558 11.1577 24.3289 11.1974 24.0155C11.8679 18.7188 17.7159 14.1424 17.7748 14.0968C18.0459 13.8871 18.0959 13.4972 17.8866 13.2261C17.6769 12.9551 17.2874 12.9043 17.0163 13.114C16.846 13.2453 14.1289 15.3702 12.1011 18.4794C11.5601 17.5514 10.813 15.5644 12.2692 13.0908C13.1759 11.5496 14.588 11.3046 16.2233 11.0207C17.4235 10.8129 18.7536 10.5819 19.949 9.7745C20.3326 11.6103 20.9204 15.7207 19.1607 18.1402C18.2831 19.3471 16.8894 19.9893 15.0183 20.0485C14.6759 20.0592 14.4066 20.3453 14.4177 20.6878C14.4283 21.024 14.7038 21.2892 15.0378 21.2892H15.0577C17.3334 21.2174 19.0519 20.4027 20.1667 18.8682C22.8268 15.2054 20.9976 8.7674 20.9186 8.49484C20.8571 8.28519 20.6901 8.12224 20.4786 8.06744C20.266 8.013 20.0417 8.07295 19.8861 8.22744C18.7848 9.31693 17.4379 9.55086 16.0111 9.79804C14.2349 10.1059 12.398 10.4244 11.1996 12.4611Z" fill="#1D3458"/>
<path d="M10.6007 28.1814C10.6798 28.2153 10.7625 28.2311 10.8434 28.2311C11.0847 28.2311 11.3143 28.0895 11.415 27.8533C11.5493 27.5381 11.4025 27.1736 11.0869 27.0393C6.19565 24.9553 3.29243 20.0003 3.86219 14.7085C4.51397 8.65596 9.58219 4.13249 15.5137 3.99639L13.981 5.23081C13.7139 5.44598 13.672 5.83661 13.8868 6.10365C14.0093 6.25593 14.1892 6.33501 14.3705 6.33501C14.5073 6.33501 14.6449 6.29013 14.7597 6.19781L17.5812 3.9254C17.7096 3.82205 17.7912 3.67234 17.8089 3.50829C17.8266 3.34425 17.7784 3.18056 17.6754 3.05256L15.4026 0.231366C15.1878 -0.0356724 14.7972 -0.0776042 14.5298 0.137204C14.2627 0.35238 14.2208 0.743007 14.436 1.01005L15.8363 2.74837C9.14117 2.72263 3.36011 7.77761 2.62814 14.5753C1.99917 20.4141 5.20326 25.8818 10.6007 28.1814Z" fill="#1D3458"/>
<path d="M20.3916 4.90056C25.2811 6.92248 28.2998 12.0131 27.733 17.2807C27.0805 23.3325 22.0101 27.8527 16.0811 27.9913L17.6135 26.7577C17.8805 26.5421 17.9225 26.1522 17.7077 25.8848C17.4925 25.6174 17.1022 25.5758 16.8348 25.7907L14.0129 28.0631C13.8845 28.1664 13.8025 28.3161 13.7848 28.4798C13.7672 28.6435 13.8154 28.8075 13.9187 28.9359L16.1919 31.7571C16.3147 31.9094 16.4942 31.9885 16.6752 31.9885C16.812 31.9885 16.9496 31.9432 17.0647 31.8513C17.3317 31.6357 17.3737 31.2451 17.1585 30.9784L15.7571 29.239C15.7736 29.239 15.7902 29.2405 15.8067 29.2405C22.479 29.2397 28.2362 24.1943 28.9671 17.4135C29.5924 11.6019 26.2614 5.98453 20.8661 3.75332C20.5498 3.62312 20.186 3.77319 20.0555 4.08988C19.9245 4.40658 20.075 4.76925 20.3916 4.90056Z" fill="#1D3458"/>
</svg>
