<svg width="18" height="24" viewBox="0 0 18 24" fill="none" xmlns="http://www.w3.org/2000/svg">
<path d="M17.5617 7.62902L16.3708 5.93186L16.0174 3.8998C15.847 2.91893 15.0726 2.14497 14.0917 1.97367L12.0489 1.61623L10.363 0.429794V0.429359C9.548 -0.14312 8.45308 -0.14312 7.6381 0.429359L5.9405 1.62028L3.90934 1.97367C2.92846 2.14453 2.15406 2.91849 1.98321 3.90026L1.6253 5.94268L0.438434 7.62902C-0.134502 8.44354 -0.134502 9.53847 0.438892 10.353L1.62981 12.0502L1.9832 14.0822C2.15406 15.0631 2.92803 15.8375 3.90933 16.0079L3.92279 16.0102V23.0137C3.92279 23.3812 4.12528 23.7187 4.45153 23.8875C4.77403 24.0562 5.16404 24.0337 5.46779 23.8237L9.00028 21.3862L12.5328 23.8237C12.7015 23.94 12.8965 24 13.0915 24C13.249 24 13.4065 23.9625 13.549 23.8875C13.8753 23.7187 14.0778 23.3812 14.0778 23.0137V17.7975C14.0778 17.5425 13.8715 17.3362 13.6165 17.3362C13.3615 17.3362 13.1553 17.5425 13.1553 17.7975V23.0137L13.0578 23.0663L9.26279 20.445C9.10529 20.3362 8.89527 20.3362 8.73778 20.445L4.94278 23.0663L4.84528 23.0137V16.1723L5.95176 16.3667L7.63809 17.5531C8.04559 17.8389 8.52295 17.9822 9.00031 17.9822C9.47769 17.9822 9.9555 17.8389 10.363 17.5531L12.0597 16.3613L14.0917 16.0079C15.0726 15.8375 15.847 15.0631 16.0174 14.0822L16.3753 12.0393L17.5617 10.3534C18.1351 9.53847 18.1351 8.44354 17.5617 7.62902ZM16.8063 9.82201L15.6198 11.5083C15.5387 11.6237 15.4837 11.758 15.4621 11.8924L15.1087 13.9235C15.0041 14.5222 14.5317 14.9945 13.9331 15.0991L11.9001 15.4525C11.7622 15.4769 11.6341 15.5301 11.517 15.6112L9.83197 16.7976C9.33433 17.1474 8.66584 17.1474 8.1691 16.7976L6.48411 15.6121C6.37052 15.5319 6.238 15.4769 6.09916 15.4525L4.06801 15.0991C3.4694 14.9945 2.99698 14.5222 2.89287 13.9235L2.53902 11.8901C2.51466 11.7535 2.45966 11.6219 2.38033 11.5083L1.19392 9.822C0.844121 9.3248 0.844121 8.6572 1.19346 8.16002L2.38033 6.47369C2.45966 6.36009 2.51466 6.22846 2.53945 6.08962L2.89287 4.05848C2.99698 3.45987 3.46939 2.98745 4.06801 2.88333L6.09737 2.52992C6.23621 2.50648 6.36963 2.45104 6.48276 2.3708L8.1691 1.18482C8.41791 1.00993 8.70912 0.92248 9.0003 0.92248C9.29151 0.92248 9.58269 1.00994 9.83107 1.18439L11.5188 2.37215C11.6351 2.45329 11.7649 2.50648 11.901 2.52992L13.9331 2.88334C14.5317 2.98746 15.0041 3.45987 15.1087 4.05803L15.4612 6.08558C15.4837 6.22396 15.5387 6.35785 15.6198 6.47369L16.8063 8.16046C17.1569 8.6572 17.1569 9.32481 16.8063 9.82201Z" fill="white"/>
<path d="M9.00011 3.47705C5.95969 3.47705 3.48633 5.95087 3.48633 8.99129C3.48633 12.0317 5.95969 14.5051 9.00011 14.5051C12.0406 14.5051 14.5144 12.0317 14.5144 8.99129C14.5144 5.95087 12.0406 3.47705 9.00011 3.47705ZM9.00011 13.5819C6.46907 13.5819 4.4095 11.5224 4.4095 8.99129C4.4095 6.45979 6.46907 4.40022 9.00011 4.40022C11.5321 4.40022 13.5912 6.45979 13.5912 8.99129C13.5912 11.5224 11.5321 13.5819 9.00011 13.5819Z" fill="white"/>
<path d="M10.8921 7.07361L8.33626 9.90985L7.10838 8.54718C6.93573 8.35785 6.64544 8.34297 6.45611 8.51337C6.26681 8.68421 6.25193 8.97631 6.42231 9.16564L7.99324 10.9083C8.08113 11.0052 8.20555 11.0607 8.33626 11.0607C8.467 11.0607 8.59185 11.0052 8.67931 10.9083L11.5773 7.69207C11.7486 7.50231 11.7333 7.21064 11.5439 7.0398C11.3546 6.87032 11.0634 6.8852 10.8921 7.07361Z" fill="white"/>
</svg>
