<svg width="24" height="24" viewBox="0 0 24 24" fill="none" xmlns="http://www.w3.org/2000/svg">
<path d="M23.0704 16.5601C23.0775 16.5458 23.0837 16.5312 23.0887 16.5162C24.5106 13.2343 24.2565 9.21088 22.4097 6.13569C23.3956 4.95704 22.115 3.26914 20.7144 3.92222C20.4683 3.67071 20.2099 3.42966 19.9421 3.20175C20.4678 1.7729 18.7135 0.600771 17.621 1.66832C14.4456 0.0648842 10.4961 0.0851905 7.33828 1.72258C6.21492 0.532114 4.32832 1.80854 5.00846 3.3022C4.61894 3.64281 4.25024 4.01076 3.91028 4.39986C3.61676 4.73583 4.14852 5.1963 4.44003 4.86268C4.7563 4.50073 5.09897 4.15834 5.46092 3.84104C6.16085 4.34588 7.17573 4.0887 7.55972 3.3181C8.82691 3.68286 10.037 4.20636 11.1647 4.87825C11.0703 5.21867 11.1088 5.59886 11.2708 5.91312C10.3427 6.71481 9.50691 7.6217 8.78114 8.61557C8.11113 8.41312 7.37261 8.752 7.08124 9.38651C5.60367 9.39443 4.1215 9.55336 2.66631 9.86096C2.53781 9.62151 2.343 9.42309 2.10683 9.29018C2.38024 8.22399 2.81328 7.20976 3.39658 6.27197C3.629 5.8982 3.04232 5.50967 2.79926 5.90041C2.1791 6.89743 1.71848 7.97562 1.42716 9.10902C-0.257834 9.13763 -0.540714 11.4687 1.06338 11.9171C1.03975 15.2346 2.47412 18.4601 4.96142 20.6573C4.44256 22.0589 6.12703 23.215 7.23867 22.2264C10.4829 23.9515 14.583 23.9517 17.8274 22.227C18.958 23.3452 20.7689 22.0959 20.132 20.6341C21.4139 19.4949 22.4098 18.1014 23.0704 16.5601ZM22.6272 15.7735C21.6536 14.8062 20.5881 13.9287 19.4506 13.1584C19.6121 12.6524 19.4717 12.083 19.0944 11.7094C20.051 10.1189 20.802 8.4135 21.3306 6.63195C21.5068 6.63256 21.6761 6.60006 21.8321 6.54125C23.4519 9.27686 23.7481 12.804 22.6272 15.7735ZM6.44204 19.7496C6.14603 16.8502 6.66545 13.9577 7.95103 11.3437C8.74968 11.5929 9.6129 11.0677 9.76799 10.2479C12.1932 10.5469 14.529 11.2589 16.7211 12.3678C16.6156 12.7775 16.7029 13.2294 16.954 13.5703C14.4832 16.7006 11.2217 19.0561 7.48891 20.4061C7.26273 20.0479 6.88235 19.7973 6.44204 19.7496ZM17.3796 12.7242C17.3796 12.3256 17.7015 12.0014 18.0971 12.0014C19.049 12.041 19.0488 13.4075 18.0971 13.447C17.7015 13.447 17.3796 13.1228 17.3796 12.7242ZM22.0513 5.20573C22.0513 5.6043 21.7294 5.92854 21.3337 5.92854C20.3817 5.88892 20.382 4.5224 21.3337 4.48291C21.7294 4.48291 22.0513 4.80716 22.0513 5.20573ZM20.177 4.37885C19.6908 5.0619 19.9164 6.0493 20.6493 6.45529C20.1373 8.17376 19.4113 9.8188 18.4878 11.3532C18.2947 11.2977 18.0804 11.2839 17.8819 11.3143C16.9166 9.25294 15.512 7.39627 13.7961 5.91321C13.9582 5.59877 13.9969 5.21923 13.9023 4.87834C14.9884 4.23127 16.1518 3.72131 17.3683 3.3588C17.7727 4.13944 18.8573 4.35986 19.5307 3.77548C19.7539 3.96747 19.97 4.16917 20.177 4.37885ZM11.8159 5.26018C11.8159 4.8616 12.1378 4.53736 12.5335 4.53736C13.4854 4.57699 13.4851 5.94346 12.5335 5.98294C12.1378 5.98294 11.8159 5.6587 11.8159 5.26018ZM18.6191 1.95964C19.0148 1.95964 19.3367 2.28389 19.3367 2.68246C19.2972 3.64135 17.9409 3.64112 17.9015 2.68246C17.9015 2.28389 18.2234 1.95964 18.6191 1.95964ZM6.28812 3.40523C5.89246 3.40523 5.57056 3.08099 5.57056 2.68241C5.61005 1.72347 6.96639 1.7238 7.00573 2.68241C7.00573 3.08099 6.68379 3.40523 6.28812 3.40523ZM7.70782 2.62848C7.70416 2.53084 7.69075 2.43579 7.66843 2.34406C10.6127 0.821466 14.291 0.794923 17.258 2.27324C17.2198 2.40075 17.199 2.53558 17.1983 2.67519C15.9187 3.05374 14.6951 3.58845 13.5528 4.26784C13.0037 3.69988 12.0635 3.69969 11.5142 4.2678C10.3239 3.55975 9.04606 3.00938 7.70782 2.62848ZM11.7365 6.44033C12.2121 6.76494 12.8547 6.76499 13.3304 6.44037C14.9686 7.85482 16.3106 9.6254 17.2349 11.5915C17.1723 11.6397 17.1138 11.693 17.0599 11.7507C14.7489 10.5786 12.2827 9.83329 9.72104 9.53343C9.65187 9.32409 9.53575 9.13613 9.38503 8.98226C10.0725 8.04831 10.8615 7.19531 11.7365 6.44033ZM8.3722 9.25857C8.76787 9.25857 9.08977 9.58282 9.08977 9.98139C9.05028 10.9403 7.69394 10.94 7.65459 9.98139C7.65464 9.58282 7.97654 9.25857 8.3722 9.25857ZM0.696745 10.535C0.696745 10.1364 1.01864 9.81219 1.41431 9.81219C2.36621 9.85181 2.36593 11.2183 1.41431 11.2578C1.01869 11.2578 0.696745 10.9336 0.696745 10.535ZM1.76678 11.9168C1.76678 11.9168 2.83513 11.6838 2.83513 10.5443C2.83513 10.5443 5.57652 10.1061 6.95579 10.0907C6.98168 10.4315 7.1272 10.739 7.35038 10.971C5.97969 13.7286 5.42682 16.7858 5.74506 19.8495C5.60803 19.9066 5.48188 19.9847 5.37036 20.0796C3.07566 18.024 1.76678 14.5797 1.76678 11.9168ZM6.28812 21.8901C5.89246 21.8901 5.57056 21.5658 5.57056 21.1672C5.57056 20.7687 5.89246 20.4444 6.28812 20.4444C6.67849 20.4444 7.00573 20.7825 7.00573 21.1672C7.00573 21.5658 6.68379 21.8901 6.28812 21.8901ZM12.5335 22.8222C10.8264 22.8222 9.13831 22.4134 7.62955 21.6372C7.6908 21.4617 7.71781 21.2617 7.7059 21.0754C11.5673 19.6836 14.9415 17.2512 17.4977 14.0169C17.7077 14.1154 17.9407 14.1606 18.1722 14.1484C18.3285 14.7284 18.452 15.3201 18.5395 15.9117C18.6065 16.3647 19.3026 16.2635 19.2354 15.8088C19.1425 15.1806 19.0109 14.5523 18.8439 13.9369C18.928 13.8846 19.0061 13.8236 19.0773 13.7553C20.251 14.5522 21.3453 15.4669 22.3367 16.4792C21.7219 17.8383 20.827 19.069 19.6901 20.0858C19.5777 20.0014 19.4524 19.9335 19.3178 19.8852C19.3869 19.2313 19.417 18.5711 19.4069 17.9181C19.3998 17.4586 18.6964 17.4694 18.7036 17.929C18.7133 18.5567 18.6842 19.1913 18.6175 19.8199C17.7879 19.9518 17.2454 20.812 17.4739 21.6181C15.9557 22.4066 14.2545 22.8222 12.5335 22.8222ZM18.8406 21.9512C18.4449 21.9512 18.123 21.627 18.123 21.2284C18.1625 20.2695 19.5189 20.2698 19.5582 21.2284C19.5582 21.627 19.2363 21.9512 18.8406 21.9512Z" fill="white"/>
</svg>
