<svg width="24" height="24" viewBox="0 0 24 24" fill="none" xmlns="http://www.w3.org/2000/svg">
<g clip-path="url(#clip0_729_6017)">
<path fill-rule="evenodd" clip-rule="evenodd" d="M15.3653 11.9066C15.3126 11.5971 15.0198 11.3858 14.7077 11.4386C14.3981 11.4914 14.1893 11.7843 14.2422 12.0962C14.2661 12.2498 14.2805 12.4082 14.2805 12.5714C14.2805 14.1434 13.0037 15.4202 11.4294 15.4202C9.85737 15.4202 8.58056 14.1434 8.58056 12.5714C8.58056 10.9971 9.85737 9.72025 11.4294 9.72025C11.5926 9.72025 11.7509 9.73466 11.9045 9.75863C12.2166 9.81142 12.5093 9.60265 12.5622 9.29304C12.615 8.98103 12.4037 8.68824 12.0942 8.63545C11.8781 8.59947 11.6574 8.58025 11.4294 8.58025C9.22855 8.58025 7.44056 10.3682 7.44056 12.5714C7.44056 14.7722 9.22855 16.5602 11.4294 16.5602C13.6326 16.5602 15.4205 14.7722 15.4205 12.5714C15.4205 12.3434 15.4013 12.1226 15.3653 11.9066ZM17.8469 8.86343C17.6909 8.59226 17.3405 8.50103 17.0693 8.65707C16.7957 8.81545 16.7022 9.16343 16.8605 9.43707C17.3933 10.3586 17.7005 11.4291 17.7005 12.5714C17.7005 16.0322 14.8902 18.8402 11.4294 18.8402C7.96855 18.8402 5.16057 16.0322 5.16057 12.5714C5.16057 9.11064 7.96855 6.30026 11.4294 6.30026C12.5718 6.30026 13.6422 6.60746 14.5637 7.14026C14.8374 7.29863 15.1853 7.20506 15.3437 6.93143C15.4998 6.66026 15.4085 6.30987 15.1374 6.15389C14.0453 5.52266 12.7805 5.16026 11.4294 5.16026C7.33978 5.16026 4.02057 8.48181 4.02057 12.5714C4.02057 16.661 7.33978 19.9802 11.4294 19.9802C15.5189 19.9802 18.8405 16.661 18.8405 12.5714C18.8405 11.2202 18.4781 9.95544 17.8469 8.86343ZM21.1397 7.76908C20.9981 7.48584 20.6573 7.37305 20.3741 7.51227C20.0933 7.65143 19.9781 7.99467 20.1173 8.27545C20.7605 9.57142 21.1205 11.0282 21.1205 12.5714C21.1205 17.921 16.7789 22.2626 11.4294 22.2626C6.07979 22.2626 1.73818 17.921 1.73818 12.5714C1.73818 7.22182 6.07979 2.88027 11.4294 2.88027C12.975 2.88027 14.4389 3.24507 15.7374 3.88825C16.0181 4.02988 16.3589 3.91468 16.5005 3.63144C16.6398 3.35066 16.5269 3.00988 16.2437 2.86826C14.7941 2.14586 13.1598 1.74268 11.4294 1.74268C5.45336 1.74268 0.600586 6.59305 0.600586 12.5714C0.600586 18.5474 5.45336 23.4002 11.4294 23.4002C17.4077 23.4002 22.2581 18.5474 22.2581 12.5714C22.2581 10.8482 21.8549 9.21863 21.1397 7.76908Z" fill="white"/>
<path fill-rule="evenodd" clip-rule="evenodd" d="M23.2323 3.99133L20.8155 6.41054C20.6811 6.54496 20.4867 6.60496 20.2995 6.56652L18.5835 6.22334L11.8324 12.9745C11.6116 13.1953 11.2491 13.1953 11.0259 12.9745C10.8052 12.7513 10.8052 12.389 11.0259 12.1681L17.7771 5.41697L17.4339 3.70094C17.3955 3.51379 17.4555 3.31938 17.5899 3.18497L20.0091 0.768158C20.1195 0.655365 20.2707 0.597768 20.4243 0.60017C20.4747 0.602572 20.5275 0.609779 20.5779 0.624193C20.7771 0.686537 20.9307 0.852181 20.9715 1.05855L21.3003 2.70257L22.9419 3.02899C23.1483 3.06977 23.3139 3.22335 23.3763 3.42256C23.4363 3.62418 23.3811 3.84256 23.2323 3.99133Z" fill="white"/>
</g>
<defs>
<clipPath id="clip0_729_6017">
<rect width="24" height="24" fill="white"/>
</clipPath>
</defs>
</svg>
