<svg width="24" height="24" viewBox="0 0 24 24" fill="none" xmlns="http://www.w3.org/2000/svg">
<g clip-path="url(#clip0_729_5992)">
<path d="M17.5 24C17.224 24 17 23.776 17 23.5V8.5C17 8.224 17.224 8 17.5 8C17.776 8 18 8.224 18 8.5V23.5C18 23.776 17.776 24 17.5 24Z" fill="white"/>
<path d="M5.5 24C5.224 24 5 23.776 5 23.5V8.5C5 8.224 5.224 8 5.5 8C5.776 8 6 8.224 6 8.5V23.5C6 23.776 5.776 24 5.5 24Z" fill="white"/>
<path d="M11.5 24C11.224 24 11 23.776 11 23.5V11.5C11 11.224 11.224 11 11.5 11C11.776 11 12 11.224 12 11.5V23.5C12 23.776 11.776 24 11.5 24Z" fill="white"/>
<path d="M19.5 5H3.5C2.121 5 1 3.878 1 2.5C1 1.122 2.121 0 3.5 0H19.5C20.879 0 22 1.122 22 2.5C22 3.878 20.879 5 19.5 5ZM3.5 1C2.673 1 2 1.673 2 2.5C2 3.327 2.673 4 3.5 4H19.5C20.327 4 21 3.327 21 2.5C21 1.673 20.327 1 19.5 1H3.5Z" fill="white"/>
<path d="M17.5 9H5.5C4.121 9 3 7.878 3 6.5V4.5C3 4.224 3.224 4 3.5 4C3.776 4 4 4.224 4 4.5V6.5C4 7.327 4.673 8 5.5 8H17.5C18.327 8 19 7.327 19 6.5V4.5C19 4.224 19.224 4 19.5 4C19.776 4 20 4.224 20 4.5V6.5C20 7.878 18.879 9 17.5 9Z" fill="white"/>
</g>
<defs>
<clipPath id="clip0_729_5992">
<rect width="24" height="24" fill="white"/>
</clipPath>
</defs>
</svg>
